SplineFontDB: 3.2
FontName: RoutedGothicNarrow
FullName: Routed Gothic Narrow
FamilyName: Routed Gothic Narrow
Weight: Regular

StartChar: exclam
Encoding: 33 33 0
Width: 230
Flags: HW
LayerCount: 2
Back
SplineSet
133.374023438 72 m 1
 130.092773438 59.068359375 119.446289062 48 108.799804688 48 c 0
 102.400390625 48 96 56 96 64 c 0
 96 66.6923828125 96.3623046875 69.3837890625 97.0263671875 72 c 1025
97.0263671875 72 m 1
 100.307617188 84.931640625 110.954101562 96 121.599609375 96 c 0
 128 96 134.400390625 88 134.400390625 80 c 0
 134.400390625 77.3076171875 134.038085938 74.6162109375 133.374023438 72 c 1025
115.200195312 688 m 0
 115.200195312 288 l 1024
EndSplineSet
Fore
SplineSet
147.820653326 67.0235196201 m 0
 148.102411734 68.8329706759 149 76.6239079781 149 80 c 0
 149 92.5193012658 145.5532439 99.7871751745 140.182055277 107.460301779 c 0
 133.986485761 116.753656053 128.999838308 120 122 120 c 0
 114.739897713 120 107.308386215 116.82986887 101.658563117 111.807803894 c 0
 93.5148348406 105.021363664 88.3735698232 97.926743178 83.9984394311 83.7029542872 c 0
 83.9801591542 82.6395054267 83.870781604 81.238388897 83.673454172 80.0544243047 c 0
 82.7472840848 74.4974037819 82 68.7406504195 82 64 c 0
 82 47.9677098384 87.5364473691 38.4046781279 92.9705627485 32.9705627485 c 0
 99.2244224674 26.7167030296 104.649722016 24 109 24 c 0
 116.039989881 24 122.116118271 26.6585795622 128.341436883 32.1921961063 c 0
 136.882923965 39.3101020076 143.432007333 50.3466648464 147.820653326 67.0235196201 c 0
194.738628461 56.4454700379 m 0
 187.586031851 30.3414437891 174.702294474 8.65806921224 159.861018938 -4.02271194213 c 0
 145.811299054 -16.140872865 129.910162748 -24 109 -24 c 0
 85.350277984 -24 68.7755775326 -10.7167030296 59.0294372515 -0.970562748477 c 0
 44.4635526309 13.5953218721 34 36.0322901616 34 64 c 0
 34 72.3462435188 35.0447860378 79.8271059097 36 85.9614850888 c 0
 36 86.9614850888 36 86 36 87 c 0
 36 89.0068832674 36.3808021026 91.552084971 36.7902111057 93.1078391827 c 0
 42.7929240724 115.918148456 55.6463463525 135.639818797 69.6863717872 147.635990521 c 0
 85.2714812706 161.017348368 101.070426659 168 122 168 c 0
 151.000161692 168 170.013514239 149.246343947 179.817944723 134.539698221 c 0
 188.4467561 122.212824826 197 103.480698734 197 80 c 0
 197 70.7406504195 195.812458374 62.8884495151 194.738628461 56.4454700379 c 0
53 688 m 2
 53 722.399384405 75.7046373961 760 115 760 c 0
 153.673299152 760 178 722.900860409 178 688 c 2
 178 288 l 2
 178 252.786157474 153.684365192 216 115 216 c 0
 75.780721114 216 53 253.930503911 53 288 c 2
 53 688 l 2
101 688 m 2
 101 288 l 2
 101 270.069496089 112.219278886 264 115 264 c 0
 118.315634808 264 130 271.213842526 130 288 c 2
 130 688 l 2
 130 705.099139591 118.326700848 712 115 712 c 0
 112.295362604 712 101 705.600615595 101 688 c 2
EndSplineSet
EndChar

StartChar: quotedbl
Encoding: 34 34 1
Width: 307
Flags: HW
LayerCount: 2
Back
SplineSet
217.599609375 688 m 0
 217.599609375 480 l 1024
89.599609375 688 m 0
 89.599609375 480 l 1024
EndSplineSet
Fore
SplineSet
27 688 m 2
 27 723.213842526 51.3156348081 760 90 760 c 0
 129.219278886 760 152 722.069496089 152 688 c 2
 152 480 l 2
 152 445.600615595 129.295362604 408 90 408 c 0
 51.3267008484 408 27 445.099139591 27 480 c 2
 27 688 l 2
75 688 m 2
 75 480 l 2
 75 462.900860409 86.6732991516 456 90 456 c 0
 92.7046373961 456 104 462.399384405 104 480 c 2
 104 688 l 2
 104 705.930503911 92.780721114 712 90 712 c 0
 86.6843651919 712 75 704.786157474 75 688 c 2
155 688 m 2
 155 723.213842526 179.315634808 760 218 760 c 0
 257.219278886 760 280 722.069496089 280 688 c 2
 280 480 l 2
 280 445.600615595 257.295362604 408 218 408 c 0
 179.326700848 408 155 445.099139591 155 480 c 2
 155 688 l 2
203 688 m 2
 203 480 l 2
 203 462.900860409 214.673299152 456 218 456 c 0
 220.704637396 456 232 462.399384405 232 480 c 2
 232 688 l 2
 232 705.930503911 220.780721114 712 218 712 c 0
 214.684365192 712 203 704.786157474 203 688 c 2
EndSplineSet
EndChar

StartChar: numbersign
Encoding: 35 35 2
Width: 537
Flags: HW
LayerCount: 2
Back
SplineSet
268.799804688 48 m 0
 409.599609375 688 l 1024
128 48 m 0
 268.799804688 688 l 1024
89.599609375 448 m 0
 448 448 l 1024
89.599609375 288 m 0
 448 288 l 1024
EndSplineSet
Fore
SplineSet
264.317509031 376 m 1
 260.817509031 360 l 1
 272.682490969 360 l 1
 276.182490969 376 l 1
 264.317509031 376 l 1
221.554399582 405.128725091 m 2
 223.842275027 415.587584265 233.658567121 424 245 424 c 2
 306 424 l 2
 316.39145304 424 329.99647062 414.083172034 329.99647062 399.870666206 c 0
 329.99647062 398.256845368 329.821054931 396.5876384 329.445600418 394.871274909 c 2
 315.445600418 330.871274909 l 2
 313.157724973 320.412415735 303.341432879 312 292 312 c 2
 231 312 l 2
 220.60854696 312 207.00352938 321.916827966 207.00352938 336.129333794 c 0
 207.00352938 337.743154632 207.178945069 339.4123616 207.554399582 341.128725091 c 2
 221.554399582 405.128725091 l 2
206 48 m 0
 206 55.6430268517 207.590951504 62.1550361905 208.650455307 66.5696353684 c 2
 241.207909053 216 l 1
 229.303131936 216 l 1
 188.489951392 30.0732886349 l 2
 182.936997457 2.3085189608 160.383241934 -24 128 -24 c 0
 88.780721114 -24 66 13.9305039107 66 48 c 0
 66 51.8721411115 65.746111038 58.9389791669 67.6279385274 66.4662891244 c 2
 100.207909053 216 l 1
 90 216 l 2
 51.3267008484 216 27 253.099139591 27 288 c 0
 27 323.213842526 51.3156348081 360 90 360 c 2
 132.682490969 360 l 1
 136.182490969 376 l 1
 90 376 l 2
 51.3267008484 376 27 413.099139591 27 448 c 0
 27 483.213842526 51.3156348081 520 90 520 c 2
 167.696868064 520 l 1
 208.510048608 705.926711365 l 2
 214.063002543 733.691481039 236.616758066 760 269 760 c 0
 308.219278886 760 331 722.069496089 331 688 c 0
 331 684.09106661 331.273041322 677.137630272 329.356554122 669.471681471 c 2
 295.955061055 520 l 1
 308.696868064 520 l 1
 349.510048608 705.926711365 l 2
 355.063002543 733.691481039 377.616758066 760 410 760 c 0
 449.219278886 760 472 722.069496089 472 688 c 0
 472 684.09106661 472.273041322 677.137630272 470.356554122 669.471681471 c 2
 436.955061055 520 l 1
 448 520 l 2
 487.219278886 520 510 482.069496089 510 448 c 0
 510 413.600615595 487.295362604 376 448 376 c 2
 405.317509031 376 l 1
 401.817509031 360 l 1
 448 360 l 2
 487.219278886 360 510 322.069496089 510 288 c 0
 510 253.600615595 487.295362604 216 448 216 c 2
 370.303131936 216 l 1
 329.489951392 30.0732886349 l 2
 323.936997457 2.30851896079 301.383241934 -24 269 -24 c 0
 230.326700848 -24 206 13.0991395912 206 48 c 0
254 48 m 0
 254 30.9008604088 265.673299152 24 269 24 c 0
 272.616758066 24 280.063002543 27.6914810392 282.510048608 39.9267113651 c 2
 327.558135764 245.145775076 l 2
 329.848507401 255.579690314 339.657226368 264 351 264 c 2
 448 264 l 2
 450.704637396 264 462 270.399384405 462 288 c 0
 462 305.930503911 450.780721114 312 448 312 c 2
 372 312 l 2
 361.60854696 312 348.00352938 321.916827966 348.00352938 336.129333794 c 0
 348.00352938 337.743154632 348.178945069 339.4123616 348.554399582 341.128725091 c 2
 362.554399582 405.128725091 l 2
 364.842275027 415.587584265 374.658567121 424 386 424 c 2
 448 424 l 2
 450.704637396 424 462 430.399384405 462 448 c 0
 462 465.930503911 450.780721114 472 448 472 c 2
 407 472 l 2
 396.450033773 472 383.003885271 481.998242576 383.003885271 496.132749894 c 0
 383.003885271 497.780088272 383.186527915 499.483610644 383.577684633 501.234036954 c 2
 423.733281553 680.93033317 l 1
 423.733281553 680.93033317 424 684.444110965 424 688 c 0
 424 705.930503911 412.780721114 712 410 712 c 0
 406.383241934 712 398.936997457 708.308518961 396.489951392 696.073288635 c 2
 351.441864236 490.854224924 l 2
 349.151492599 480.420309686 339.342773632 472 328 472 c 2
 266 472 l 2
 255.450033773 472 242.003885271 481.998242576 242.003885271 496.132749894 c 0
 242.003885271 497.780088272 242.186527915 499.483610644 242.577684633 501.234036954 c 2
 282.733281553 680.93033317 l 1
 282.733281553 680.93033317 283 684.444110965 283 688 c 0
 283 705.930503911 271.780721114 712 269 712 c 0
 265.383241934 712 257.936997457 708.308518961 255.489951392 696.073288635 c 2
 210.441864236 490.854224924 l 2
 208.151492599 480.420309686 198.342773632 472 187 472 c 2
 90 472 l 2
 86.6843651919 472 75 464.786157474 75 448 c 0
 75 430.900860409 86.6732991516 424 90 424 c 2
 166 424 l 2
 176.39145304 424 189.99647062 414.083172034 189.99647062 399.870666206 c 0
 189.99647062 398.256845368 189.821054931 396.5876384 189.445600418 394.871274909 c 2
 175.445600418 330.871274909 l 2
 173.157724973 320.412415735 163.341432879 312 152 312 c 2
 90 312 l 2
 86.6843651919 312 75 304.786157474 75 288 c 0
 75 270.900860409 86.6732991516 264 90 264 c 2
 130 264 l 2
 140.361957426 264 153.996532966 254.098357537 153.996532966 239.87130376 c 0
 153.996532966 238.263686325 153.822441656 236.600840437 153.449865503 234.890811427 c 2
 114.252421495 54.9845940565 l 1
 114.252421495 54.9845940565 114 51.6480690327 114 48 c 0
 114 30.0694960893 125.219278886 24 128 24 c 0
 131.616758066 24 139.063002543 27.6914810392 141.510048608 39.9267113651 c 2
 186.558135764 245.145775076 l 2
 188.848507401 255.579690314 198.657226368 264 210 264 c 2
 271 264 l 2
 281.361957426 264 294.996532966 254.098357537 294.996532966 239.87130376 c 0
 294.996532966 238.263686325 294.822441656 236.600840437 294.449865503 234.890811427 c 2
 255.372061473 55.5337108756 l 2
 254.412920233 51.6971459159 254 48.4334103322 254 48 c 0
EndSplineSet
EndChar

StartChar: dollar
Encoding: 36 36 3
Width: 403
Flags: HW
LayerCount: 2
Back
SplineSet
307.200195312 536 m 0
 307.200195312 536 272 592 201.599609375 592 c 0
 141.599609375 592 96 545 96 492 c 0
 96 450.420898438 115.369140625 390.134765625 201.599609375 380 c 0
 296.150390625 368.887695312 313.599609375 316.170898438 313.599609375 264 c 0
 313.599609375 200 274.799804688 144 201.599609375 144 c 0
 134.400390625 144 89.599609375 216 89.599609375 216 c 1024
204.799804688 688 m 0
 204.799804688 48 l 1024
EndSplineSet
Fore
SplineSet
255.34789813 181.420169783 m 0
 252.524862799 179.726348584 248.565564756 178.36379921 244.882970051 178.073980193 c 0
 244.266711785 178.025480866 243.653712538 178.001668106 243.044917584 178.001668106 c 0
 230.067208887 178.001668106 219 188.822576046 219 202 c 2
 219 321 l 2
 219 322.617085082 219.487380146 326.495070488 220.37138022 328.996597205 c 0
 223.842417124 338.818871896 233.344337528 344.947884317 243.217981954 344.947884317 c 0
 246.419660888 344.947884317 249.660425822 344.30343155 252.747323185 342.931477167 c 0
 265.6369357 337.202760494 274.602171327 329.33895417 279.970562748 323.970562748 c 0
 280.18048851 323.760636987 280.570919698 323.353086683 280.83905951 323.055153559 c 0
 294.990409106 307.331431785 299 287.644281301 299 264 c 0
 299 236.880452646 289.984552549 212.043427053 271.970562748 194.029437252 c 0
 267.092646285 189.151520788 261.551669689 185.142432718 255.34789813 181.420169783 c 0
155.266873708 557.466252584 m 0
 157.365556284 558.515593872 161.076162709 559.686704534 164.117029949 559.926019807 c 0
 164.733288215 559.974519134 165.346287462 559.998331894 165.955082416 559.998331894 c 0
 178.932791113 559.998331894 190 549.177423954 190 536 c 2
 190 439 l 2
 190 436.719086039 189.28642765 432.324397685 187.958884744 429.314578955 c 0
 184.013093191 420.36864036 175.016059081 415.068617241 165.785535583 415.068617241 c 0
 161.992200743 415.068617241 158.159433173 415.963708795 154.621604247 417.868693602 c 0
 139.088644904 426.232594787 127.729685352 436.599504144 121.288824028 447.871011462 c 0
 112.436293575 462.625228882 110 479.103629604 110 492 c 0
 110 503.438169508 113.868701161 514.873031291 120.648040704 525.71997456 c 0
 127.409282364 536.537961216 138.41532279 549.040477125 155.266873708 557.466252584 c 0
370 536 m 0
 370 500.786157474 345.684365192 464 307 464 c 0
 291.070588968 464 276.737625059 471.512930846 267 480.57206908 c 1
 267 438.30554534 l 1
 291.674905418 428.843112442 312.220312069 415.664121247 329.323034165 397.611247923 c 0
 368.862002842 356.87412868 376 302.481908514 376 264 c 0
 376 209.663817858 357.507822046 155.394945205 318.579047862 117.645830845 c 0
 303.394280369 103.354284968 284.540216111 91.1196824764 267 83.8802899932 c 1
 267 48 l 2
 267 13.6006155952 244.295362604 -24 205 -24 c 0
 166.326700848 -24 142 13.0991395912 142 48 c 2
 142 84.0680392098 l 1
 120.896360032 92.9084142066 104.847584498 104.013045403 90.7817663665 115.441522635 c 0
 58.5208903219 142.140178672 41.1196555359 170.553901391 38.835058717 173.980796619 c 0
 30.9736291237 186.559083968 27 200.489002545 27 216 c 0
 27 251.213842526 51.3156348081 288 90 288 c 0
 113.030721967 288 130.394364901 273.369100219 140.194623092 257.968694491 c 2
 140.194623092 257.968694491 140.988553766 256.790950073 142 255.402057206 c 2
 142 321.769719544 l 1
 104.653295446 336.641816573 78.5241545664 360.478793897 60.4201697829 390.65210187 c 0
 39.502112017 425.51553148 34 462.134826375 34 492 c 0
 34 525.477542575 43.0980255455 556.419178022 58.4058669536 582.324755789 c 0
 78.3199647542 615.18301716 108.627133866 640.665726652 142 653.535158249 c 1
 142 688 l 2
 142 723.213842526 166.315634808 760 205 760 c 0
 244.219278886 760 267 722.069496089 267 688 c 2
 267 652.378859164 l 1
 323.936531604 630.222407596 352.988946123 584.929194069 356.296441727 580.270567957 c 0
 356.698517377 579.724887422 357.117365207 579.095325103 357.351959296 578.71997456 c 0
 364.421583705 567.408575506 370 552.72962006 370 536 c 0
322 536 m 0
 322 541.072042602 320.115092728 547.349896868 317.003380319 552.701042466 c 0
 313.117255291 558.217919332 285.799491897 598.748122647 236.816096387 611.81036145 c 0
 227.861113657 614.198356844 219 623.620931653 219 635 c 2
 219 688 l 2
 219 705.930503911 207.780721114 712 205 712 c 0
 201.684365192 712 190 704.786157474 190 688 c 2
 190 636 l 2
 190 626.24556468 182.857574469 615.475759864 171.820855001 612.716579997 c 0
 142.529053243 605.393629557 116.460300408 585.504420357 99.5941330464 557.675244211 c 0
 88.9019744545 539.580821978 82 516.522457425 82 492 c 0
 82 467.865173625 86.497887983 440.48446852 101.579830217 415.34789813 c 0
 116.629363374 390.265342869 139.249843633 371.481284624 172.515043961 362.098792224 c 0
 182.609006267 359.251777214 190 349.67916258 190 339 c 2
 190 202 l 2
 190 199.847901552 189.291555496 195.353420094 187.979485999 192.361421515 c 0
 184.045488522 183.390467696 175.033686176 178.068159553 165.785154718 178.068159553 c 0
 162.008598532 178.068159553 158.192569539 178.955614591 154.6666861 180.844480719 c 0
 119.905282499 199.466661219 100.678161599 230.684495335 99.8053769081 232.031305509 c 0
 95.6056350988 238.630899781 90.9692780333 240 90 240 c 0
 86.6843651919 240 75 232.786157474 75 216 c 0
 75 209.497313018 76.5936760901 204.31514052 79.2105558923 199.947523398 c 0
 81.3056977263 196.734147687 95.8330887144 173.56687316 121.218233634 152.558477365 c 0
 135.576973661 140.892001093 153.005165732 129.790159995 172.72 124.04 c 0
 182.531363356 121.178352354 190 111.682172808 190 101 c 2
 190 48 l 2
 190 30.9008604088 201.673299152 24 205 24 c 0
 207.704637396 24 219 30.3993844048 219 48 c 2
 219 101 l 2
 219 110.0945915 225.708632275 121.160727168 236.685182261 124.15433171 c 0
 254.294165477 128.956781678 271.16174649 138.933740311 285.420952138 152.354169155 c 0
 312.492177954 178.605054795 328 220.336182142 328 264 c 0
 328 297.518091486 321.137997158 337.12587132 294.676965835 364.388752077 c 0
 279.809554841 380.082130348 261.215825912 390.835101548 236.40669293 397.923425257 c 0
 226.420986255 400.776484307 219 410.319302229 219 421 c 2
 219 534 l 2
 219 535.436133898 219.386568919 538.892424921 220.085930783 541.137606877 c 0
 223.277883024 551.384825005 233.014590318 557.956011972 243.212174072 557.956011972 c 0
 246.122169374 557.956011972 249.069694328 557.420913343 251.913376232 556.283440581 c 0
 257.639422409 553.993022111 264.739125406 550.445655945 270.035574373 546.47331922 c 0
 283.572396303 537.101673269 292.288407998 525.559900447 295.397145505 521.414917104 c 0
 296.076159976 520.585541693 296.683565858 519.77178443 297.247875706 518.885011813 c 0
 300.744183526 513.390813809 304.719915263 512 307 512 c 0
 310.315634808 512 322 519.213842526 322 536 c 0
EndSplineSet
EndChar

StartChar: percent
Encoding: 37 37 5
Width: 691
Flags: HW
LayerCount: 2
Back
SplineSet
601.599609375 168 m 0
 601.599609375 101.725585938 555.75390625 48 499.200195312 48 c 0
 442.646484375 48 396.799804688 101.725585938 396.799804688 168 c 0
 396.799804688 234.274414062 442.646484375 288 499.200195312 288 c 0
 555.75390625 288 601.599609375 234.274414062 601.599609375 168 c 0
294.400390625 568 m 0
 294.400390625 501.725585938 248.553710938 448 192 448 c 0
 135.446289062 448 89.599609375 501.725585938 89.599609375 568 c 0
 89.599609375 634.274414062 135.446289062 688 192 688 c 0
 248.553710938 688 294.400390625 634.274414062 294.400390625 568 c 0
204.799804688 48 m 0
 486.400390625 688 l 1024
EndSplineSet
Fore
SplineSet
205 -24 m 0
 166.326700848 -24 142 13.0991395912 142 48 c 0
 142 60.0508115439 144.815671167 70.82941757 148.988445142 80.5658901793 c 2
 299.481375869 422.110130127 l 1
 270.79897929 393.433771016 233.401665799 376 192 376 c 0
 99.5163858333 376 27 463.019760877 27 568 c 0
 27 672.989779665 99.5073375901 760 192 760 c 0
 284.483614167 760 357 672.980239123 357 568 c 0
 357 562.358508774 356.79064866 556.768930153 356.380094563 551.241973972 c 2
 431.142004808 720.914394386 l 2
 440.452479577 740.865411747 458.5715741 760 486 760 c 0
 524.673299152 760 549 722.900860409 549 688 c 0
 549 675.949188456 546.184328833 665.17058243 542.011554858 655.434109821 c 2
 391.518624131 313.889869873 l 1
 420.20102071 342.566228984 457.598334201 360 499 360 c 0
 591.483614167 360 664 272.980239123 664 168 c 0
 664 63.0102203346 591.49266241 -24 499 -24 c 0
 406.516385833 -24 334 63.0197608766 334 168 c 0
 334 173.641491226 334.20935134 179.231069847 334.619905437 184.758026028 c 2
 260.292926364 16.0726834524 l 2
 250.367917563 -7.41795174249 231.424382863 -24 205 -24 c 0
205 24 m 0
 208.211880298 24 212.211189232 25.1499507654 215.870437416 34.298071226 c 2
 497.988445142 674.565890179 l 2
 499.815671167 678.82941757 501 684.050811544 501 688 c 0
 501 705.099139591 489.326700848 712 486 712 c 0
 483.340274133 712 480.013789041 711.719950063 474.87295096 701.119547783 c 2
 193.011554858 61.4341098207 l 2
 191.184328833 57.17058243 190 51.9491884561 190 48 c 0
 190 30.9008604088 201.673299152 24 205 24 c 0
309 568 m 0
 309 653.019760877 251.516385833 712 192 712 c 0
 132.49266241 712 75 653.010220335 75 568 c 0
 75 482.980239123 132.483614167 424 192 424 c 0
 251.50733759 424 309 482.989779665 309 568 c 0
232 568 m 0
 232 594.897297183 212.445486234 616 192 616 c 0
 171.555294067 616 152 594.898212507 152 568 c 0
 152 541.102702817 171.554513766 520 192 520 c 0
 212.444705933 520 232 541.101787493 232 568 c 0
280 568 m 0
 280 520.898212507 245.555294067 472 192 472 c 0
 138.445486234 472 104 520.897297183 104 568 c 0
 104 615.101787493 138.444705933 664 192 664 c 0
 245.554513766 664 280 615.102702817 280 568 c 0
616 168 m 0
 616 253.019760877 558.516385833 312 499 312 c 0
 439.49266241 312 382 253.010220335 382 168 c 0
 382 82.9802391234 439.483614167 24 499 24 c 0
 558.50733759 24 616 82.9897796654 616 168 c 0
539 168 m 0
 539 194.897297183 519.445486234 216 499 216 c 0
 478.555294067 216 459 194.898212507 459 168 c 0
 459 141.102702817 478.554513766 120 499 120 c 0
 519.444705933 120 539 141.101787493 539 168 c 0
587 168 m 0
 587 120.898212507 552.555294067 72 499 72 c 0
 445.445486234 72 411 120.897297183 411 168 c 0
 411 215.101787493 445.444705933 264 499 264 c 0
 552.554513766 264 587 215.102702817 587 168 c 0
EndSplineSet
EndChar

StartChar: ampersand
Encoding: 38 38 6
Width: 627
Flags: HW
LayerCount: 2
Back
SplineSet
540.799804688 48 m 0
 540.799804688 288 412.799804688 414 240 414 c 0
 156.799804688 414 105.599609375 464 105.599609375 552 c 0
 105.599609375 616 150.400390625 696 272 696 c 0
 387.200195312 696 441.599609375 624 441.599609375 552 c 0
 441.599609375 480 394.456054688 414.848632812 310.400390625 406.75 c 1024
534.400390625 372 m 0
 534.400390625 372 470.400390625 320 438.400390625 192 c 0
 406.400390625 64 327.337890625 40 252.799804688 40 c 0
 144 40 86.400390625 128 86.400390625 224 c 0
 86.400390625 344 177.244140625 409.096679688 240 414 c 1024
EndSplineSet
Fore
SplineSet
241 486 m 2
 264.827084949 486 288.440709181 484.00347339 311.665926574 479.383154028 c 1
 335.116680499 483.608286771 349.448693378 492.389818875 359.029437252 501.970562748 c 0
 373.2752313 516.216356797 379 532.29183837 379 552 c 0
 379 562.73728508 376.250995567 573.856891344 369.030792936 584.687195291 c 0
 363.483282549 593.008460871 354.432764133 601.410183046 341.050179617 608.642660508 c 0
 323.167369498 617.47621049 302.036371582 624 272 624 c 0
 228.823163655 624 204.845887966 611.757188144 190.604753663 599.764653994 c 0
 173.77701803 585.1318404 168 565.924972786 168 552 c 0
 168 537.943240205 169.913350202 527.83860218 172.283440581 521.913376232 c 0
 172.51600438 521.331966735 172.801572244 520.50371326 172.938696209 520.058060372 c 0
 175.49379403 511.753992455 178.317739225 507.88080496 186.310231493 501.486811145 c 0
 195.349381015 493.738968698 213.297461889 486 240 486 c 2
 241 486 l 2
241 438 m 2
 240 438 l 2
 204.801067615 438 176.196491289 447.378552866 155.776920233 464.438501797 c 0
 143.837086059 474.2099774 133.254128725 486.852990035 127.345258067 505.031329462 c 0
 122.684325901 517.161704201 120 534.491629818 120 552 c 0
 120 578.075027214 130.22298197 610.8681596 159.395246337 636.235346006 c 0
 183.154112034 656.242811856 219.176836345 672 272 672 c 0
 309.95438497 672 339.536774727 663.064428366 362.98270014 651.34146566 c 0
 383.517195087 640.470262453 398.481076201 627.045001005 408.969207064 611.312804709 c 0
 421.749004433 592.143108656 427 571.26271492 427 552 c 0
 427 521.70816163 416.7247687 491.783643203 392.970562748 468.029437252 c 0
 374.978643455 450.037517958 348.095814795 435.889440107 314.279297531 431.225092898 c 0
 311.932317234 430.901371478 308.614116118 430.958109096 305.901688536 431.547767266 c 0
 284.860150947 436.122014568 263.672704611 438 241 438 c 2
399.821565383 281.23730912 m 1
 396.218669766 284.840204737 l 2
 357.556836842 321.398298393 305.607363634 341.570350332 242.602995287 341.995896675 c 0
 230.634403274 340.136411356 212.96440498 333.530596374 198.318645528 322.738984146 c 0
 184.138125311 312.103593983 173.051241328 300.873209713 164.785571385 285.995003816 c 0
 154.644678956 269.093516434 149 250.431422681 149 224 c 0
 149 189.078307698 160.304317762 159.636807735 179.970562748 139.970562748 c 0
 195.853476339 124.087649158 218.15768908 112 253 112 c 0
 281.227001626 112 305.552617905 115.924199296 323.478473866 126.05620484 c 0
 349.913363629 140.051146479 366.488317213 164.793279273 378.791085129 212.111617413 c 0
 385.303525395 236.533268407 392.304861939 261.084767989 399.821565383 281.23730912 c 1
444.970562748 303.970562748 m 2
 451.518044196 297.423081301 453.974114017 286.548768461 450.00968135 277.430573326 c 0
 440.98721429 256.678899087 433.092805731 229.452973313 425.208914871 199.888382587 c 0
 411.549500665 147.352174105 389.335558974 107.044983283 346.578064945 83.9724249299 c 0
 318.126583701 68.2441847503 284.994732031 64 253 64 c 0
 205.84231092 64 170.146523661 81.9123508417 146.029437252 106.029437252 c 0
 115.695682238 136.363192265 101 178.921692302 101 224 c 0
 101 257.67323124 108.53753502 285.153277878 123.184582083 309.956281478 c 0
 135.201467031 331.14576757 151.747914508 347.810935881 169.681354472 361.261015854 c 0
 192.396956839 377.998828124 217.226288812 387.215059346 238.02316637 389.814669041 c 0
 238.735468529 389.903706811 240.046980327 390 241 390 c 0
 316.381902765 390 381.518386449 365.178544889 429.768560864 319.172564633 c 2
 444.970562748 303.970562748 l 2
504 552 m 0
 504 499.776976111 487.291901531 450.469493606 458.216093643 411.941481845 c 1
 463.185952908 408.025751326 466.196830117 405.513200005 470.373281959 401.910279428 c 1
 485.088335465 419.146824415 494.797080424 427.042635663 497.435525891 429.367362132 c 0
 497.921360628 429.827497236 498.363474317 430.210560634 498.635574408 430.43731071 c 0
 507.056962232 437.455133897 519.37670644 444 534 444 c 0
 572.673299152 444 597 406.900860409 597 372 c 0
 597 347.188545714 584.754945263 326.879245503 571.553381482 314.610400902 c 0
 570.511829813 313.555496006 568.08268041 311.051615983 563.222158457 305.381007037 c 0
 562.840788143 304.936075005 562.278765388 304.337639891 561.970562748 304.029437252 c 0
 559.678009948 301.736884451 554.995479752 296.150437041 551.919368434 292.023946249 c 1
 584.82330959 224.371812229 603 142.059040619 603 48 c 0
 603 13.6006155952 580.295362604 -24 541 -24 c 0
 502.326700848 -24 478 13.0991395912 478 48 c 0
 478 68.1590058106 476.906623131 87.731482868 475.080253068 105.002837008 c 1
 468.916130007 91.7140094704 463.798364987 82.3499790525 457.283818531 72.1710002154 c 0
 435.269177793 36.9475750342 406.911827542 11.7713107194 377.395409676 -4.12214505483 c 0
 335.466248224 -26.7865566507 291.091627875 -32 253 -32 c 0
 190.802677065 -32 137.338312696 -8.27943819338 98.0294372515 31.0294372515 c 0
 48.6113936618 80.4474808412 24 151.740184893 24 224 c 0
 24 301.907486086 52.8629246154 364.22051587 89.8703263425 407.023167953 c 1
 60.0843204192 443.307414188 43 490.899892728 43 552 c 0
 43 609.33557297 66.349432799 670.895582468 115.12108071 713.996108529 c 0
 153.942462992 748.250269366 207.166234333 768 272 768 c 0
 358.363028234 768 427.146355982 733.547081332 467.919901056 672.386763721 c 0
 491.728249994 637.241105765 504 594.530684585 504 552 c 0
456 552 m 0
 456 585.469315415 446.271750006 618.758894235 428.080098944 645.613236279 c 0
 396.853644018 692.452918668 345.636971766 720 272 720 c 0
 216.833765667 720 176.057537008 703.749730634 146.87891929 678.003891471 c 0
 109.650567201 645.104417532 91 596.66442703 91 552 c 0
 91 490.560535716 111.675322862 449.73022012 139.144147056 424.758561762 c 0
 144.252627389 420.114488731 146.86582864 413.545218167 146.86582864 406.955558846 c 0
 146.86582864 400.63146188 144.459006639 394.288586372 139.541130384 389.610606519 c 0
 102.895533935 354.752600141 72 299.117009205 72 224 c 0
 72 162.259815107 93.3886063382 103.552519159 131.970562748 64.9705627485 c 0
 162.661687304 34.2794381934 203.197322935 16 253 16 c 0
 286.89856508 16 322.5535773 20.7972731499 354.587591175 38.1129563258 c 0
 377.107165603 50.238881018 398.726353638 69.0452752552 416.716181469 97.8289997846 c 0
 431.058212435 120.238423169 443.203014087 149.766591361 451.716579997 183.820855001 c 0
 451.82229263 184.243705534 452.046288184 185.033528396 452.231600847 185.589466384 c 0
 453.457756826 189.267934322 454.457756826 195.267934322 457.231600847 203.589466384 c 0
 459.297626397 209.787543034 464.216603993 215.326785199 470.486505329 218.033915203 c 0
 473.505964185 219.33761477 476.663932046 219.950197235 479.783159527 219.950197235 c 0
 489.747872869 219.950197235 499.317220135 213.698469109 502.712396546 203.755452479 c 0
 517.701838771 159.857800249 526 108.196018455 526 48 c 0
 526 30.9008604088 537.673299152 24 541 24 c 0
 543.704637396 24 555 30.3993844048 555 48 c 0
 555 141.728221195 535.660105092 220.785339576 502.79690955 282.755936883 c 0
 499.105016996 289.717791414 499.03524411 299.81948147 504.030792936 307.312804709 c 0
 512.297255403 319.712498409 519.758414066 329.545661312 527.327552642 337.261773452 c 0
 532.403147803 343.122158716 537.168231314 348.109356811 538.029437252 348.970562748 c 0
 538.239363013 349.18048851 538.646913317 349.570919698 538.944846441 349.83905951 c 0
 544.648106439 354.971993508 549 362.773337396 549 372 c 0
 549 389.099139591 537.326700848 396 534 396 c 0
 532.615166446 396 532.991130512 396.479298699 529.820760446 393.936238607 c 0
 526.224747216 390.695226314 511.571768544 379.251478666 492.661566092 352.236903735 c 0
 488.473810141 346.254395233 480.551316444 342.309399117 472.430917454 342.309399117 c 0
 466.636110679 342.309399117 460.740522457 344.318352046 456.029437252 349.029437252 c 2
 443.401012297 361.657862206 l 2
 433.31847764 370.82909304 421.613294583 379.769771502 409.338960508 388.267387401 c 0
 404.285068865 391.766235461 399.461628831 400.230635347 399.461628831 409.119340764 c 0
 399.461628831 414.596082738 401.292780925 420.233906422 406.029437252 424.970562748 c 0
 437.157664368 456.098789865 456 501.935184555 456 552 c 0
EndSplineSet
EndChar

StartChar: quotesingle
Encoding: 39 39 7
Width: 179
Flags: HW
LayerCount: 2
Back
SplineSet
89.599609375 688 m 0
 89.599609375 480 l 1024
EndSplineSet
Fore
SplineSet
27 688 m 2
 27 723.213842526 51.3156348081 760 90 760 c 0
 129.219278886 760 152 722.069496089 152 688 c 2
 152 480 l 2
 152 445.600615595 129.295362604 408 90 408 c 0
 51.3267008484 408 27 445.099139591 27 480 c 2
 27 688 l 2
75 688 m 2
 75 480 l 2
 75 462.900860409 86.6732991516 456 90 456 c 0
 92.7046373961 456 104 462.399384405 104 480 c 2
 104 688 l 2
 104 705.930503911 92.780721114 712 90 712 c 0
 86.6843651919 712 75 704.786157474 75 688 c 2
EndSplineSet
EndChar

StartChar: parenleft
Encoding: 40 40 8
Width: 275
Flags: HW
LayerCount: 2
Back
SplineSet
185.599609375 768 m 0
 185.599609375 768 89.599609375 600 89.599609375 368 c 0
 89.599609375 136 185.599609375 -32 185.599609375 -32 c 1024
EndSplineSet
Fore
SplineSet
186 840 m 0
 225.219278886 840 248 802.069496089 248 768 c 0
 248 753.239873176 243.849939025 740.03424659 238.466252584 729.266873708 c 0
 238.232264174 728.798896887 237.877451918 728.155889092 237.680286586 727.821094191 c 2
 237.680286586 727.821094191 213.02006549 685.890618964 188.959648706 606.010035242 c 0
 169.429075683 542.535672917 152 461.035049653 152 368 c 0
 152 274.965400432 169.429261077 193.463724552 188.959648706 129.989964758 c 0
 213.020219923 50.1088683163 237.680286586 8.17890580896 237.680286586 8.17890580896 c 2
 237.945793833 7.72806350499 238.292493098 7.08064526309 238.466252584 6.733126292 c 0
 243.849939025 -4.03424658961 248 -17.2398731763 248 -32 c 0
 248 -66.3993844048 225.295362604 -104 186 -104 c 0
 162.850457218 -104 143.767058392 -90.0890509219 133.269306378 -72.0929046126 c 0
 133.054120315 -71.7240142187 132.829587055 -71.3105406074 132.646468334 -70.9558360932 c 0
 129.58224583 -65.1816328423 98.8067061019 -8.23061788353 71.040885272 82.0082998137 c 0
 48.552171253 156.629941786 27 253.927061215 27 368 c 0
 27 482.072584548 48.5523083384 579.370513089 71.040885272 653.991700186 c 0
 98.9802307084 744.794572855 130.009912168 801.987524829 132.6465783 806.956043313 c 0
 132.887497271 807.422758926 133.117980885 807.833489482 133.269306378 808.092904613 c 0
 143.767192879 826.08928147 162.851313178 840 186 840 c 0
186 792 m 0
 183.20521685 792 178.500244341 790.067932661 174.951404834 784.277018429 c 0
 172.212956076 779.134398507 143.273065952 725.528641293 116.959114728 640.008299814 c 0
 95.4476916616 568.629486911 75 475.927415452 75 368 c 0
 75 260.072938785 95.447828747 167.370058214 116.959114728 95.9917001863 c 0
 143.137227939 10.9128322516 171.750967925 -42.26681628 174.951404834 -48.2770184288 c 0
 178.17072556 -53.5302315346 183.122403233 -56 186 -56 c 0
 188.704637396 -56 200 -49.6006155952 200 -32 c 0
 200 -26.8788256941 198.678538302 -21.441701248 195.840317784 -15.3517910519 c 0
 192.033228147 -8.68299645213 166.957940913 36.6036377081 143.040351294 116.010035242 c 0
 122.570738923 182.536275448 104 269.034599568 104 368 c 0
 104 466.964950347 122.570924317 553.464327083 143.040351294 619.989964758 c 0
 166.803363296 698.883164604 191.512899851 743.7715489 195.840317784 751.351791052 c 0
 198.190090534 756.393649124 200 762.948528206 200 768 c 0
 200 785.930503911 188.780721114 792 186 792 c 0
EndSplineSet
EndChar

StartChar: parenright
Encoding: 41 41 9
Width: 275
Flags: HW
LayerCount: 2
Back
SplineSet
64 768 m 0
 64 768 160 600 160 368 c 0
 160 136 64 -32 64 -32 c 1024
EndSplineSet
Fore
SplineSet
2 768 m 0
 2 802.399384405 24.7046373961 840 64 840 c 0
 87.6234956832 840 105.734321571 825.229542413 115.730693622 808.092904613 c 0
 115.921239971 807.766253728 116.118628173 807.405659825 116.284406782 807.089553003 c 0
 119.279594593 801.562904828 151.172533626 744.298088769 178.959114728 653.991700186 c 0
 201.504017074 579.18361513 222 481.930198091 222 368 c 0
 222 254.070163559 201.50387732 156.815921141 178.959114728 82.0082998137 c 0
 150.99230066 -8.88384590636 118.854940237 -66.3464667837 116.284307791 -71.0897356586 c 0
 116.060039697 -71.5174165098 115.857455741 -71.8755981226 115.730693622 -72.0929046126 c 0
 105.734321571 -89.2295424133 87.6234956832 -104 64 -104 c 0
 24.780721114 -104 2 -66.0694960893 2 -32 c 0
 2 -19.087026287 4.58459953888 -4.18153130393 12.4803096767 8.45160491659 c 2
 12.4803096767 8.45160491659 36.8838643611 49.7904281408 61.040351294 129.989964758 c 0
 80.5709243172 193.464327083 98 274.964950347 98 368 c 0
 98 461.034599568 80.5707389229 542.536275448 61.040351294 606.010035242 c 0
 36.9157706442 686.103642999 12.573671587 727.371224998 12.068683504 728.234573217 c 0
 3.97912386308 741.961946 2 755.173553159 2 768 c 0
50 768 m 0
 50 760.912973713 51.4154004611 755.818468696 53.5196903233 752.451604917 c 0
 54.6367522336 750.554787518 81.3086654791 705.151229071 106.959648706 619.989964758 c 0
 127.429261077 553.463724552 146 466.965400432 146 368 c 0
 146 269.035049653 127.429075683 182.535672917 106.959648706 116.010035242 c 0
 81.3055271299 30.8383516096 54.6433682038 -14.543553326 53.5196903233 -16.4516049166 c 0
 51.4154004611 -19.8184686961 50 -24.912973713 50 -32 c 0
 50 -49.9305039107 61.219278886 -56 64 -56 c 0
 66.3720301902 -56 69.9725736771 -54.9666599511 74.0655927371 -48.2515769981 c 0
 76.2456725783 -44.2289463535 106.425447824 9.49152848028 133.040885272 95.9917001863 c 0
 154.49612268 167.184078859 174 259.929836441 174 368 c 0
 174 476.069801909 154.495982926 568.81638487 133.040885272 640.008299814 c 0
 106.561046169 726.067776899 76.7058066519 779.379918079 74.0655927371 784.251576998 c 0
 70.3031752592 790.424268866 66.4162861831 792 64 792 c 0
 61.2953626039 792 50 785.600615595 50 768 c 0
EndSplineSet
EndChar

StartChar: asterisk
Encoding: 42 42 10
Width: 409
Flags: HW
LayerCount: 2
Back
SplineSet
262.400390625 684.708007812 m 0
 147.200195312 435.291992188 l 1024
147.200195312 684.708007812 m 0
 262.400390625 435.291992188 l 1024
89.599609375 560 m 0
 320 560 l 1024
EndSplineSet
Fore
SplineSet
262 757 m 0
 300.673299152 757 325 719.900860409 325 685 c 0
 325 672.193036878 322.343415314 661.541784219 317.889955638 651.150378309 c 2
 308.856758323 632 l 1
 320 632 l 2
 359.219278886 632 382 594.069496089 382 560 c 0
 382 525.600615595 359.295362604 488 320 488 c 2
 308.856758323 488 l 1
 317.889955638 468.849621691 l 2
 322.343415314 458.458215781 325 447.806963122 325 435 c 0
 325 399.786157474 300.684365192 363 262 363 c 0
 235.66350721 363 217.216452607 380.901463326 207.327417418 400.679533703 c 2
 204.555388867 406.801096754 l 1
 201.589134868 400.512638275 l 2
 191.854751173 381.043870887 173.312514474 363 147 363 c 0
 107.780721114 363 85 400.930503911 85 435 c 0
 85 447.712875851 87.7430142077 458.659884665 92.036543874 468.678120553 c 2
 100.78607419 488 l 1
 90 488 l 2
 51.3267008484 488 27 525.099139591 27 560 c 0
 27 595.213842526 51.3156348081 632 90 632 c 2
 100.78607419 632 l 1
 92.036543874 651.321879447 l 2
 87.7430142077 661.340115335 85 672.287124149 85 685 c 0
 85 719.399384405 107.704637396 757 147 757 c 0
 173.309061842 757 191.857196017 738.951239426 201.589134868 719.487361725 c 2
 204.555388867 713.198903246 l 1
 207.327417418 719.320466297 l 2
 217.219865644 739.105362748 235.659328337 757 262 757 c 0
262 709 m 0
 260.264823415 709 255.301018879 707.539927474 250.651904947 698.633870595 c 2
 226.862900325 646.099818721 l 2
 225.132921352 642.279448488 221.322852185 637.686152191 216.910304487 635.163861993 c 0
 213.234099639 633.062478374 209.202026214 632.073985038 205.208695503 632.073985038 c 0
 196.19189235 632.073985038 187.372615372 637.113727768 183.29364178 645.761151783 c 2
 158.406034974 698.522878211 l 2
 153.980272855 707.001072067 148.814365349 709 147 709 c 0
 144.295362604 709 133 702.600615595 133 685 c 0
 133 679.712875851 134.256985792 674.659884665 135.963456126 670.678120553 c 2
 159.862900325 617.900181279 l 2
 160.932051641 615.539138791 161.998331894 611.643551122 161.998331894 608.044917584 c 0
 161.998331894 595.067208887 151.177423954 584 138 584 c 2
 90 584 l 2
 86.6843651919 584 75 576.786157474 75 560 c 0
 75 542.900860409 86.6732991516 536 90 536 c 2
 138 536 l 2
 140.020328917 536 143.584337472 535.500685334 146.154364452 534.572247127 c 0
 155.897040159 531.052645025 161.946360691 521.595474109 161.946360691 511.78148473 c 0
 161.946360691 508.525609214 161.280549619 505.23046091 159.862900325 502.099818721 c 2
 135.963456126 449.321879447 l 2
 134.256985792 445.340115335 133 440.287124149 133 435 c 0
 133 417.069496089 144.219278886 411 147 411 c 0
 148.755017604 411 153.64677096 412.360056336 158.406034974 421.477121789 c 2
 183.29364178 474.238848217 l 2
 185.082800142 478.031863945 188.963812646 482.565376919 193.41503667 485.01876839 c 0
 197.007175428 486.998655842 200.91694167 487.929290022 204.787495519 487.929290022 c 0
 213.935300544 487.929290022 222.864071886 482.730927416 226.862900325 473.900181279 c 2
 250.651904947 421.366129405 l 2
 254.968360992 413.097327303 260.204853057 411 262 411 c 0
 265.315634808 411 277 418.213842526 277 435 c 0
 277 440.29745788 276.042610214 444.449410074 274.094565633 449.183193215 c 2
 249.29364178 501.761151783 l 2
 248.639434895 503.148070379 247.001668106 508.49949129 247.001668106 511.955082416 c 0
 247.001668106 524.932791113 257.822576046 536 271 536 c 2
 320 536 l 2
 322.704637396 536 334 542.399384405 334 560 c 0
 334 577.930503911 322.780721114 584 320 584 c 2
 271 584 l 2
 270.011950378 584 265.104092646 584.568850978 262.495730717 585.557241614 c 0
 252.931285186 589.181511811 247.057041831 598.5376476 247.057041831 608.219082267 c 0
 247.057041831 611.595901841 247.771683293 615.012296225 249.29364178 618.238848217 c 2
 274.094565633 670.816806785 l 2
 275.626773526 674.540099342 277 679.756487675 277 685 c 0
 277 702.099139591 265.326700848 709 262 709 c 0
EndSplineSet
EndChar

StartChar: plus
Encoding: 43 43 11
Width: 512
Flags: HW
LayerCount: 2
Back
SplineSet
428.799804688 368 m 0
 83.2001953125 368 l 1024
256 584 m 0
 256 152 l 1024
EndSplineSet
Fore
SplineSet
429 440 m 2
 468.219278886 440 491 402.069496089 491 368 c 0
 491 333.600615595 468.295362604 296 429 296 c 2
 318 296 l 1
 318 152 l 2
 318 117.600615595 295.295362604 80 256 80 c 0
 216.780721114 80 194 117.930503911 194 152 c 2
 194 296 l 1
 83 296 l 2
 43.780721114 296 21 333.930503911 21 368 c 0
 21 402.399384405 43.7046373961 440 83 440 c 2
 194 440 l 1
 194 584 l 2
 194 618.399384405 216.704637396 656 256 656 c 0
 295.219278886 656 318 618.069496089 318 584 c 2
 318 440 l 1
 429 440 l 2
429 392 m 2
 294 392 l 2
 283.699291841 392 270 401.472763659 270 416 c 2
 270 584 l 2
 270 601.930503911 258.780721114 608 256 608 c 0
 253.295362604 608 242 601.600615595 242 584 c 2
 242 416 l 2
 242 405.699291841 232.527236341 392 218 392 c 2
 83 392 l 2
 80.2953626039 392 69 385.600615595 69 368 c 0
 69 350.069496089 80.219278886 344 83 344 c 2
 218 344 l 2
 228.300708159 344 242 334.527236341 242 320 c 2
 242 152 l 2
 242 134.069496089 253.219278886 128 256 128 c 0
 258.704637396 128 270 134.399384405 270 152 c 2
 270 320 l 2
 270 330.300708159 279.472763659 344 294 344 c 2
 429 344 l 2
 431.704637396 344 443 350.399384405 443 368 c 0
 443 385.930503911 431.780721114 392 429 392 c 2
EndSplineSet
EndChar

StartChar: comma
Encoding: 44 44 12
Width: 236
Flags: HW
LayerCount: 2
Back
SplineSet
121.599609375 96 m 0
 128 96 134.400390625 88.0009765625 134.400390625 79.9990234375 c 0
 134.400390625 64 121.599609375 48 108.799804688 48 c 0
 102.400390625 48 96 56 96 64 c 0
 96 80 108.799804688 96 121.599609375 96 c 0
 128 96 140.799804688 88 140.799804688 64 c 0
 140.799804688 24 113.599609375 -56 113.599609375 -56 c 1024
EndSplineSet
Fore
SplineSet
203 64 m 0
 203 49.5257116752 201.969959803 36.833458088 199.609832401 22.6726936784 c 0
 196.469314912 6.97010623271 193.408842793 -8.43036889634 189.16145304 -23.2962330302 c 0
 182.107767352 -50.629265071 173.718262472 -76.0190591667 172.379332677 -80.4241381928 c 0
 172.134621912 -81.4553935784 171.786065626 -82.550506235 171.631768006 -82.9876828256 c 0
 163.444228711 -106.185710827 143.254102616 -128 114 -128 c 0
 75.3267008484 -128 51 -90.9008604088 51 -56 c 0
 51 -46.7042319514 52.4615364996 -37.7207266572 55.2316008468 -29.4105336156 c 0
 55.3460111917 -29.0673025808 55.5207737529 -28.5883356655 55.61741567 -28.3385960313 c 2
 55.61741567 -28.3385960313 59.1335304205 -19.1826396024 63.2741644935 -5.78991075046 c 1
 57.0715726953 0.0861190236879 53.9272465147 4.21069359765 50.4039709751 9.14327935303 c 0
 40.6383115358 23.0942214093 34 41.3846861737 34 64 c 0
 34 97.7895121625 48.1088588708 123.751542469 63.3028219406 140.211669128 c 0
 76.0522677639 154.236059534 96.1062541341 168 122 168 c 0
 133.757979756 168 143.036275281 164.234280962 147.913376232 162.283440581 c 0
 148.239709379 162.152907323 148.694484989 161.956425311 148.931270663 161.848795459 c 0
 181.443927809 147.070314938 203 110.137775418 203 64 c 0
155 64 m 0
 155 95.2258827399 141.38059057 112.129809432 129.516979536 117.944417097 c 0
 125.631023074 119.491280209 123.931393054 120 122 120 c 0
 113.893745866 120 105.947732236 115.763940466 98.6971780594 107.788330872 c 0
 89.8911411292 98.2484575307 82 84.2104878375 82 64 c 0
 82 50.6153138263 85.3616884642 42.9057785907 89.5960290249 36.856720647 c 0
 93.4694359443 31.4339509597 98.337985033 27.0022941235 100.747323185 25.9314771669 c 0
 108.976182736 22.2742062555 114.960446062 13.3125408007 114.960446062 3.70611424946 c 0
 114.960446062 1.79796739583 114.724338143 -0.1356183786 114.222814538 -2.05812553153 c 0
 108.547113666 -23.8149788725 102.378607218 -40.4023461735 100.620498815 -45.0416251088 c 0
 99.7624266523 -47.7601081161 99 -51.5344397748 99 -56 c 0
 99 -73.0991395912 110.673299152 -80 114 -80 c 0
 116.718712289 -80 122.00294689 -78.1877510466 126.009706083 -67.9827833709 c 0
 127.687881078 -62.0847314486 135.347191044 -39.7327711441 142.83854696 -10.7037669698 c 0
 146.704139294 2.82580620016 149.128562403 15.0224445178 152.391384326 31.333332123 c 0
 153.987048462 41.173859939 155 52.466791187 155 64 c 0
EndSplineSet
EndChar

StartChar: hyphen
Encoding: 45 45 13
Width: 332
Flags: HW
LayerCount: 2
Back
SplineSet
64 264 m 0
 268.799804688 264 l 1024
EndSplineSet
Fore
SplineSet
64 192 m 2
 24.780721114 192 2 229.930503911 2 264 c 0
 2 298.399384405 24.7046373961 336 64 336 c 2
 269 336 l 2
 308.219278886 336 331 298.069496089 331 264 c 0
 331 229.600615595 308.295362604 192 269 192 c 2
 64 192 l 2
64 240 m 2
 269 240 l 2
 271.704637396 240 283 246.399384405 283 264 c 0
 283 281.930503911 271.780721114 288 269 288 c 2
 64 288 l 2
 61.2953626039 288 50 281.600615595 50 264 c 0
 50 246.069496089 61.219278886 240 64 240 c 2
EndSplineSet
EndChar

StartChar: period
Encoding: 46 46 14
Width: 230
Flags: HW
LayerCount: 2
Back
SplineSet
133.374023438 72 m 1
 130.092773438 59.068359375 119.446289062 48 108.799804688 48 c 0
 102.400390625 48 96 56 96 64 c 0
 96 66.6923828125 96.3623046875 69.3837890625 97.0263671875 72 c 1025
97.0263671875 72 m 1
 100.307617188 84.931640625 110.954101562 96 121.599609375 96 c 0
 128 96 134.400390625 88 134.400390625 80 c 0
 134.400390625 77.3076171875 134.038085938 74.6162109375 133.374023438 72 c 1025
EndSplineSet
Fore
SplineSet
147.820653326 67.0235196201 m 0
 148.102411734 68.8329706759 149 76.6239079781 149 80 c 0
 149 92.5193012658 145.5532439 99.7871751745 140.182055277 107.460301779 c 0
 133.986485761 116.753656053 128.999838308 120 122 120 c 0
 114.739897713 120 107.308386215 116.82986887 101.658563117 111.807803894 c 0
 93.5148348406 105.021363664 88.3735698232 97.926743178 83.9984394311 83.7029542872 c 0
 83.9801591542 82.6395054267 83.870781604 81.238388897 83.673454172 80.0544243047 c 0
 82.7472840848 74.4974037819 82 68.7406504195 82 64 c 0
 82 47.9677098384 87.5364473691 38.4046781279 92.9705627485 32.9705627485 c 0
 99.2244224674 26.7167030296 104.649722016 24 109 24 c 0
 116.039989881 24 122.116118271 26.6585795622 128.341436883 32.1921961063 c 0
 136.882923965 39.3101020076 143.432007333 50.3466648464 147.820653326 67.0235196201 c 0
194.738628461 56.4454700379 m 0
 187.586031851 30.3414437891 174.702294474 8.65806921224 159.861018938 -4.02271194213 c 0
 145.811299054 -16.140872865 129.910162748 -24 109 -24 c 0
 85.350277984 -24 68.7755775326 -10.7167030296 59.0294372515 -0.970562748477 c 0
 44.4635526309 13.5953218721 34 36.0322901616 34 64 c 0
 34 72.3462435188 35.0447860378 79.8271059097 36 85.9614850888 c 0
 36 86.9614850888 36 86 36 87 c 0
 36 89.0068832674 36.3808021026 91.552084971 36.7902111057 93.1078391827 c 0
 42.7929240724 115.918148456 55.6463463525 135.639818797 69.6863717872 147.635990521 c 0
 85.2714812706 161.017348368 101.070426659 168 122 168 c 0
 151.000161692 168 170.013514239 149.246343947 179.817944723 134.539698221 c 0
 188.4467561 122.212824826 197 103.480698734 197 80 c 0
 197 70.7406504195 195.812458374 62.8884495151 194.738628461 56.4454700379 c 0
EndSplineSet
EndChar

StartChar: slash
Encoding: 47 47 15
Width: 460
Flags: HW
LayerCount: 2
Back
SplineSet
89.599609375 48 m 0
 371.200195312 688 l 1024
EndSplineSet
Fore
SplineSet
90 -24 m 0
 51.3267008484 -24 27 13.0991395912 27 48 c 0
 27 60.0508115439 29.8156711671 70.82941757 33.9884451425 80.5658901793 c 2
 316.142004808 720.914394386 l 2
 325.452479577 740.865411747 343.5715741 760 371 760 c 0
 409.673299152 760 434 722.900860409 434 688 c 0
 434 675.949188456 431.184328833 665.17058243 427.011554858 655.434109821 c 2
 145.292926364 16.0726834524 l 2
 135.367917563 -7.41795174249 116.424382863 -24 90 -24 c 0
90 24 m 0
 93.2118802976 24 97.2111892319 25.1499507654 100.870437416 34.298071226 c 2
 382.988445142 674.565890179 l 2
 384.815671167 678.82941757 386 684.050811544 386 688 c 0
 386 705.099139591 374.326700848 712 371 712 c 0
 368.340274133 712 365.013789041 711.719950063 359.87295096 701.119547783 c 2
 78.0115548575 61.4341098207 l 2
 76.1843288329 57.17058243 75 51.9491884561 75 48 c 0
 75 30.9008604088 86.6732991516 24 90 24 c 0
EndSplineSet
EndChar

StartChar: zero
Encoding: 48 48 16
Width: 537
Flags: HW
LayerCount: 2
Back
SplineSet
467.200195312 368 m 0
 467.200195312 186.850585938 378.373046875 40 268.799804688 40 c 0
 159.2265625 40 70.400390625 186.850585938 70.400390625 368 c 0
 70.400390625 549.149414062 159.2265625 696 268.799804688 696 c 0
 378.373046875 696 467.200195312 549.149414062 467.200195312 368 c 0
EndSplineSet
Fore
SplineSet
530 368 m 0
 530 230.111469469 485.005851795 103.888776078 408.722856422 29.7852948594 c 0
 370.483490758 -7.36151750059 322.6185976 -32 269 -32 c 0
 215.459004172 -32 166.676145064 -7.51659229912 128.277143578 29.7852948594 c 0
 51.9024387893 103.977865225 8 230.256607312 8 368 c 0
 8 505.743385294 51.9024369679 632.022133005 128.277143578 706.214705141 c 0
 166.67639926 743.516839232 215.458594199 768 269 768 c 0
 322.618374407 768 370.483617059 743.361394808 408.722856422 706.214705141 c 0
 485.005904902 632.111172332 530 505.888402538 530 368 c 0
482 368 m 0
 482 496.111597462 438.994095098 609.888827668 375.277143578 671.785294859 c 0
 343.516382941 702.638605192 307.381625593 720 269 720 c 0
 230.541405801 720 193.32360074 702.483160768 161.722856422 671.785294859 c 0
 98.0975630321 609.977866995 56 496.256614706 56 368 c 0
 56 239.743392688 98.0975612107 126.022134775 161.722856422 64.2147051406 c 0
 193.323854936 33.5165922991 230.540995828 16 269 16 c 0
 307.3814024 16 343.516509242 33.3615175006 375.277143578 64.2147051406 c 0
 438.994148205 126.111223922 482 239.888530532 482 368 c 0
405 368 m 0
 405 470.866351804 368.844400177 556.080936581 328.303117014 595.759639251 c 0
 307.40196884 615.789906251 288.355444526 624 269 624 c 0
 249.513883321 624 229.344390239 615.546833702 208.696882986 595.759639251 c 0
 168.291528632 556.213973288 133 471.04383022 133 368 c 0
 133 264.952532573 168.283188376 179.794189516 208.696882986 140.240360749 c 0
 229.343777648 120.453753365 249.514208954 112 269 112 c 0
 288.35569874 112 307.401386738 120.209535901 328.303117014 140.240360749 c 0
 368.835950378 179.910793403 405 265.137547946 405 368 c 0
453 368 m 0
 453 254.862452054 415.164049622 158.089206597 361.696882986 105.759639251 c 0
 334.598613262 79.790464099 303.64430126 64 269 64 c 0
 234.485791046 64 202.656222352 79.5462466351 175.303117014 105.759639251 c 0
 121.716811624 158.205810484 85 255.047467427 85 368 c 0
 85 480.95616978 121.708471368 577.786026712 175.303117014 630.240360749 c 0
 202.655609761 656.453166298 234.486116679 672 269 672 c 0
 303.644555474 672 334.59803116 656.210093749 361.696882986 630.240360749 c 0
 415.155599823 577.919063419 453 481.133648196 453 368 c 0
EndSplineSet
Substitution2: "(ss01) Slashed Zero subtable" zero.ss01
Substitution2: "(ss02) Dotted Zero subtable" zero.ss02
EndChar

StartChar: one
Encoding: 49 49 17
Width: 281
Flags: HW
LayerCount: 2
Back
SplineSet
140.799804688 688 m 0
 140.799804688 48 l 1024
EndSplineSet
Fore
SplineSet
78 688 m 2
 78 723.213842526 102.315634808 760 141 760 c 0
 180.219278886 760 203 722.069496089 203 688 c 2
 203 48 l 2
 203 13.6006155952 180.295362604 -24 141 -24 c 0
 102.326700848 -24 78 13.0991395912 78 48 c 2
 78 688 l 2
126 688 m 2
 126 48 l 2
 126 30.9008604088 137.673299152 24 141 24 c 0
 143.704637396 24 155 30.3993844048 155 48 c 2
 155 688 l 2
 155 705.930503911 143.780721114 712 141 712 c 0
 137.684365192 712 126 704.786157474 126 688 c 2
EndSplineSet
Substitution2: "(ss03) Serifed One subtable" one.ss03
Substitution2: "Tabular Figures subtable" one.tnum
EndChar

StartChar: two
Encoding: 50 50 18
Width: 537
Flags: HW
LayerCount: 2
Back
SplineSet
102.400390625 536 m 0
 102.400390625 642.828125 171.39453125 696 257.599609375 696 c 0
 347.200195312 696 412.799804688 624 412.799804688 528 c 0
 412.799804688 466.232421875 391.217773438 435.219726562 320 382 c 0
 172.799804688 272 108.799804688 232 108.799804688 48 c 0
 435.200195312 48 l 1024
EndSplineSet
Fore
SplineSet
165 536 m 0
 165 500.786157474 140.684365192 464 102 464 c 0
 62.780721114 464 40 501.930503911 40 536 c 0
 40 623.539744749 75.0685395355 687.107902757 122.286990675 723.961328036 c 0
 162.152190838 754.714482448 209.645269522 768 258 768 c 0
 297.131015923 768 334.723382031 757.832739152 367.656708683 737.391363989 c 0
 433.621119833 696.447936378 475 618.21037168 475 528 c 0
 475 491.24422172 468.566579601 454.032940042 449.996864664 420.375331718 c 0
 427.522199506 379.920934434 395.683203653 352.005148126 354.359987667 321.768648625 c 0
 312.746843685 290.063396067 263.162572596 253.405280713 238.418563171 230.494160874 c 0
 219.89762937 212.899273763 205.933971698 195.805828215 196.717381551 180.875051381 c 0
 187.045714088 163.440626348 180.628971941 145.805329175 176.22084165 120 c 1
 435 120 l 2
 473.673299152 120 498 82.9008604088 498 48 c 0
 498 12.786157474 473.684365192 -24 435 -24 c 2
 109 -24 l 2
 70.3267008484 -24 46 13.0991395912 46 48 c 0
 46 134.319907366 59.321772967 204.053583645 93.2952487177 262.137267993 c 0
 111.710643937 293.55176572 134.651321922 319.654686287 159.674590355 342.592682351 c 0
 194.19516436 375.021100356 241.934872692 409.451154519 285.519666678 442.139750009 c 0
 322.36481919 470.258419031 340.563832793 490.039412967 345.062689614 497.734358658 c 0
 348.813735535 504.799616465 350 508.386934672 350 528 c 0
 350 566.212112854 334.75745335 594.293938292 308.173654626 610.713343386 c 0
 295.305514951 619.039786705 278.174768144 624 258 624 c 0
 229.175521494 624 206.6899468 616.072143002 192.752845549 605.06916833 c 0
 182.745309964 597.371064034 175.929667778 588.460417445 171.436493481 576.47861932 c 0
 167.580854058 566.45395682 165 553.672630152 165 536 c 0
117 536 m 0
 117 558.327369848 120.419145942 577.54604318 126.563506519 593.52138068 c 0
 134.070332222 613.539582555 147.254690036 630.628935966 163.247154451 642.93083167 c 0
 187.3100532 661.927856998 220.824478506 672 258 672 c 0
 285.825231856 672 312.694485049 664.960213295 333.826345374 651.286656614 c 0
 375.24254665 625.706061708 398 579.787887146 398 528 c 0
 398 505.806778042 395.470352374 489.909123007 386.955718257 474.29896046 c 0
 375.324856871 453.944953035 353.684362295 433.779114208 314.480333322 403.860249991 c 0
 270.065127308 370.548845481 223.80483564 336.978899644 192.325409645 307.407317649 c 0
 169.348678078 286.345313713 150.289356063 264.44823428 134.704751282 237.862732007 c 0
 106.678227033 189.946416355 94 129.680092634 94 48 c 0
 94 30.9008604088 105.673299152 24 109 24 c 2
 435 24 l 2
 438.315634808 24 450 31.213842526 450 48 c 0
 450 65.0991395912 438.326700848 72 435 72 c 2
 149 72 l 2
 138.012320504 72 125.002512481 81.990328118 125.002512481 96.0683356726 c 0
 125.002512481 141.780317866 140.115540455 178.040203779 155.283043827 205.12503123 c 0
 168.146759913 226.174748461 184.078118554 245.077686764 205.581436829 265.505839126 c 0
 234.837427404 292.594719287 283.253156315 327.936603933 325.640012333 360.231351375 c 0
 366.330924254 390.005189367 390.45772201 412.042924294 408.020225373 443.655430348 c 0
 421.414365641 467.932309584 427 496.771587249 427 528 c 0
 427 603.78962832 392.378880167 665.552063622 342.343291317 696.608636011 c 0
 317.276617969 712.167260848 288.868984077 720 258 720 c 0
 218.354730478 720 181.847809162 709.285517552 151.713009325 686.038671964 c 0
 116.931460465 658.892097243 88 610.460255251 88 536 c 0
 88 518.069496089 99.219278886 512 102 512 c 0
 105.315634808 512 117 519.213842526 117 536 c 0
EndSplineSet
EndChar

StartChar: three
Encoding: 51 51 19
Width: 537
Flags: HW
LayerCount: 2
Back
SplineSet
195.200195312 422 m 0
 367.251953125 512.845703125 387.200195312 688 387.200195312 688 c 0
 92.7998046875 688 l 1024
108.354492188 153.767578125 m 0
 136.693359375 86.4765625 197.169921875 40 267.200195312 40 c 0
 364.40234375 40 444.799804688 129.54296875 444.799804688 240 c 0
 444.799804688 350.45703125 380.799804688 444 275.200195312 444 c 0
 249.411132812 444 217.270507812 433.32421875 195.200195312 422 c 1024
EndSplineSet
Fore
SplineSet
387 760 m 2
 426.724857254 760 450 722.403724112 450 688 c 0
 450 681.18616242 448.943425577 679.338450727 448.943425577 679.338450727 c 2
 448.835767699 677.968914997 448.765037835 677.55907357 448.582816224 676.537442993 c 0
 447.082694294 667.295931444 434.092979036 579.265948543 374.417535147 492.221205309 c 1
 409.279915136 474.207623963 437.556612968 447.723625486 459.189431632 413.97642837 c 0
 491.102581279 364.456023746 507 302.974662578 507 240 c 0
 507 88.1002135976 397.646475212 -32 267 -32 c 0
 171.974852276 -32 89.9236363762 30.3832726971 51.8927727037 121.657345511 c 0
 47.1485161688 132.727277426 46 144.135066873 46 154 c 0
 46 188.399384405 68.7046373961 226 108 226 c 0
 135.379132229 226 155.687437166 206.403384771 164.207133022 185.104145132 c 0
 181.966921423 142.818934652 221.285924675 112 267 112 c 0
 330.170620734 112 382 171.916717278 382 240 c 0
 382 274.876036779 373.065632815 304.38124821 358.721150887 327.163660684 c 0
 341.696904332 353.916048128 314.693613433 372 275 372 c 0
 263.75921775 372 235.612945133 363.973656837 220.733126292 356.533747416 c 0
 220.165249558 356.249809049 219.352428874 355.892180475 218.913376232 355.716559419 c 0
 214.106349608 353.793748769 206.354459336 350 195 350 c 0
 155.780721114 350 133 387.930503911 133 422 c 0
 133 445.708142304 142.898957623 466.297759574 157.944846441 479.83905951 c 0
 161.090603897 482.67024122 168.011879809 486.832670884 169.106439937 487.391119929 c 0
 234.04792659 522.487152908 270.811921048 567.9417116 292.87655227 608.393535506 c 0
 294.063115298 610.618341183 296.029096817 614.40975554 296.841202146 616 c 2
 93 616 l 2
 54.3267008484 616 30 653.099139591 30 688 c 0
 30 723.213842526 54.3156348081 760 93 760 c 2
 387 760 l 2
387 712 m 2
 93 712 l 2
 89.6843651919 712 78 704.786157474 78 688 c 0
 78 670.900860409 89.6732991516 664 93 664 c 2
 334 664 l 2
 334.681841081 664 338.730688884 663.630975567 340.831478738 663.007192316 c 0
 351.226638467 659.920578717 357.958820097 650.103847058 357.958820097 639.791027827 c 0
 357.958820097 636.983696276 357.459948903 634.139603416 356.400294549 631.384502097 c 0
 350.906688413 617.101126144 343.642301677 601.579315645 335.12344773 585.606464495 c 0
 309.179919304 538.043329046 264.935425133 484.312277295 191.341819425 444.849039451 c 0
 190.460529402 444.376463642 191.033853413 444.684110976 190.139426222 444.236897381 c 0
 190.129604692 444.228058004 190.080417369 444.183677919 190.055153559 444.16094049 c 0
 185.101042377 439.702240426 181 432.291857696 181 422 c 0
 181 404.77501824 191.712600755 398.169980173 194.725974988 398.006038921 c 0
 194.946546858 398.055054892 196.947223467 398.633884585 200.204866078 399.931150264 c 0
 219.649955081 409.482443185 250.490548974 420 275 420 c 0
 331.306386567 420 374.303095668 392.083951872 399.278849113 352.836339316 c 0
 418.934367185 321.61875179 430 283.123963221 430 240 c 0
 430 150.083282722 361.829379266 64 267 64 c 0
 198.714075325 64 144.033078577 109.181065348 119.792866978 166.895854868 c 0
 116.312562834 175.596615229 110.620867771 178 108 178 c 0
 105.295362604 178 94 171.600615595 94 154 c 0
 94 147.864933127 94.8514838312 143.272722574 96.1072272963 140.342654489 c 0
 128.076363624 63.6167273029 194.025147724 16 267 16 c 0
 366.353524788 16 459 109.899786402 459 240 c 0
 459 295.013483726 444.880244053 347.570626601 418.826295158 387.999167991 c 0
 396.458241937 422.893331015 366.008578623 447.032252511 329.410533616 459.231600847 c 0
 327.678253405 459.809027584 325.341082898 460.910946382 323.549689226 462.12315065 c 0
 316.736203646 466.733715277 313.100902529 474.402089034 313.100902529 482.12858754 c 0
 313.100902529 487.35865454 314.766574374 492.61535393 318.23969338 496.96832975 c 0
 386.052658001 581.960578742 399.425905854 672.97069012 401.084303169 683.482760052 c 2
 401.084303169 683.482760052 401.540899957 687.052108836 401.980189065 689.285161798 c 0
 401.14216663 705.959117345 391.395899526 712 387 712 c 2
EndSplineSet
EndChar

StartChar: four
Encoding: 52 52 20
Width: 537
Flags: HW
LayerCount: 2
Back
SplineSet
473.599609375 270 m 0
 89.599609375 270 l 0
 89.599609375 332 l 0
 334.400390625 686 l 0
 384 686 l 0
 384 46 l 1024
EndSplineSet
Fore
SplineSet
384 -26 m 0
 344.780721114 -26 322 11.9305039107 322 46 c 2
 322 198 l 1
 90 198 l 2
 51.3267008484 198 27 235.099139591 27 270 c 2
 27 332 l 2
 27 349.639094584 33.106730393 364.426710895 41.1338536342 376.467395757 c 2
 284.509690474 729.561847566 l 2
 297.783819896 749.305686851 314.277836135 758 334 758 c 2
 384 758 l 2
 423.219278886 758 446 720.069496089 446 686 c 2
 446 342 l 1
 474 342 l 2
 513.219278886 342 536 304.069496089 536 270 c 0
 536 235.600615595 513.295362604 198 474 198 c 2
 446 198 l 1
 446 46 l 2
 446 11.6006155952 423.295362604 -26 384 -26 c 0
384 22 m 0
 386.704637396 22 398 28.3993844048 398 46 c 2
 398 222 l 2
 398 232.300708159 407.472763659 246 422 246 c 2
 474 246 l 2
 476.704637396 246 488 252.399384405 488 270 c 0
 488 287.930503911 476.780721114 294 474 294 c 2
 422 294 l 2
 411.699291841 294 398 303.472763659 398 318 c 2
 398 686 l 2
 398 703.930503911 386.780721114 710 384 710 c 2
 334 710 l 2
 331.781545624 710 328.46629438 709.172503247 325.011048168 703.742830628 c 2
 80.8661463658 349.532604243 l 2
 76.893269607 343.573289105 75 338.360905416 75 332 c 2
 75 270 l 2
 75 252.900860409 86.6732991516 246 90 246 c 2
 346 246 l 2
 356.300708159 246 370 236.527236341 370 222 c 2
 370 46 l 2
 370 28.0694960893 381.219278886 22 384 22 c 0
322 342 m 1
 322 552.079218416 l 1
 176.768385982 342 l 1
 322 342 l 1
370 318 m 2
 370 307.699291841 360.527236341 294 346 294 c 2
 131 294 l 2
 127.12432271 294 122.595391866 295.126334685 118.943116699 297.248335848 c 0
 111.313471882 301.681220677 107.090491826 309.874128684 107.090491826 318.173016133 c 0
 107.090491826 322.848832397 108.431076208 327.55829182 111.258250944 331.647832949 c 2
 326.258250944 642.647832949 l 2
 329.86750988 647.868667969 336.802947618 652.350403884 344.117029949 652.926019807 c 0
 344.733288215 652.974519134 345.346287462 652.998331894 345.955082416 652.998331894 c 0
 358.932791113 652.998331894 370 642.177423954 370 629 c 2
 370 318 l 2
EndSplineSet
EndChar

StartChar: five
Encoding: 53 53 21
Width: 537
Flags: HW
LayerCount: 2
Back
SplineSet
102.400390625 155.704101562 m 0
 132.668945312 86.712890625 190.658203125 40 257.599609375 40 c 0
 355.685546875 40 435.200195312 140.288085938 435.200195312 264 c 0
 435.200195312 387.711914062 355.685546875 488 257.599609375 488 c 0
 199.830078125 488 147.200195312 456 108.799804688 400 c 0
 134.400390625 688 l 0
 390.400390625 688 l 1024
EndSplineSet
Fore
SplineSet
109 328 m 0
 73.8842921325 328 46 360.560095141 46 400 c 0
 46 404.270208584 46.8401503238 407.226139159 47.3230682976 409.761458521 c 2
 72.0863371694 695.034315924 l 2
 74.7442534119 726.929310834 97.1601468542 760 134 760 c 2
 390 760 l 2
 428.673299152 760 453 722.900860409 453 688 c 0
 453 652.786157474 428.684365192 616 390 616 c 2
 190.932076289 616 l 1
 184.708000683 547.016495364 l 1
 209.302896544 555.940753177 232.503382122 560 258 560 c 0
 395.942067144 560 498 422.439270205 498 264 c 0
 498 105.552733506 395.948568149 -32 258 -32 c 0
 163.972706298 -32 86.7447687064 33.1765475291 46.9878560342 123.435484407 c 0
 42.8163634037 133.168967211 40 143.9499417 40 156 c 0
 40 190.399384405 62.7046373961 228 102 228 c 0
 128.925338961 228 148.148336319 209.720806256 157.841785469 188.949129506 c 0
 179.297673675 140.673381042 218.064621565 112 258 112 c 0
 317.072683485 112 373 174.399087685 373 264 c 0
 373 353.599871715 317.07155072 416 258 416 c 0
 221.405926699 416 186.354434701 396.482722705 157.837410035 355.489499747 c 0
 149.242553087 342.597214325 132.52037807 328 109 328 c 0
94.2430783619 395.240507014 m 2
 95.4207380872 378.749779775 106.228273892 376 109 376 c 0
 111.47962193 376 114.757446913 377.402785675 118.162589965 382.510500253 c 0
 153.645565299 433.517277295 202.594073301 464 258 464 c 0
 352.92844928 464 421 370.400128285 421 264 c 0
 421 157.600912315 352.927316515 64 258 64 c 0
 193.935378435 64 140.702326325 109.326618958 114.158214531 169.050870494 c 0
 109.851663681 178.279193744 105.074661039 180 102 180 c 0
 99.2953626039 180 88 173.600615595 88 156 c 0
 88 152.0500583 89.1836365963 146.831032789 91.0121439658 142.564515593 c 0
 125.255231294 64.8234524709 188.027293702 16 258 16 c 0
 360.051431851 16 450 122.447266494 450 264 c 0
 450 405.560729795 360.057932856 512 258 512 c 0
 226.510262699 512 197.048549229 503.396735649 169.54148939 486.537569942 c 0
 165.718369671 484.194367534 161.225182117 482.950072691 156.725347082 483.001571598 c 0
 142.930662748 483.159446532 131.857416403 495.416877343 133.097095414 509.156653045 c 2
 145.097095414 642.156653045 l 2
 146.155866009 653.891360472 156.502841986 664 169 664 c 2
 390 664 l 2
 393.315634808 664 405 671.213842526 405 688 c 0
 405 705.099139591 393.326700848 712 390 712 c 2
 134 712 l 2
 130.840924332 712 121.252868659 707.03615402 119.917098198 691.006908484 c 2
 94.2430783619 395.240507014 l 2
EndSplineSet
EndChar

StartChar: six
Encoding: 54 54 22
Width: 537
Flags: HW
LayerCount: 2
Back
SplineSet
414.400390625 624 m 4
 414.400390625 624 376 696 286.400390625 696 c 4
 222.400390625 696 94.400390625 624.52734375 94.400390625 368 c 4
 94.400390625 101.782226562 217.596679688 40 286.400390625 40 c 4
 391.0625 40 449.599609375 131.782226562 449.599609375 222 c 4
 449.599609375 318 376 404 280 404 c 4
 184.310546875 404 118.965820312 340.1796875 118.965820312 204 c 1028
EndSplineSet
Fore
SplineSet
477 624 m 0
 477 588.786157474 452.684365192 552 414 552 c 0
 390.566614978 552 372.895621526 566.794782115 362.705856312 584.085745528 c 0
 360.285443747 587.559212172 354.767073826 596.494447697 342.21248607 606.095014804 c 0
 330.873410524 615.166275241 312.476402757 624 286 624 c 0
 271.236113306 624 233.016568821 612.640235889 203.028638044 566.77634176 c 0
 185.275600453 540.146785374 168.903274395 500.516911732 161.293978157 443.241790249 c 1
 198.4430866 467.010782513 238.533739829 476 280 476 c 0
 365.974552413 476 439.505474952 425.042566423 480.146809264 350.350384444 c 0
 500.100407961 312.660253571 512 268.235855084 512 222 c 0
 512 152.561974403 487.255147966 81.4346516895 439.307665014 32.3721109939 c 0
 401.089097781 -8.09460725299 347.213539798 -32 286 -32 c 0
 241.832937228 -32 185.45692251 -14.5008394271 136.859858396 35.2007034169 c 0
 75.0353993699 98.1291706396 32 206.005279017 32 368 c 0
 32 494.596489741 60.8288300406 588.431076752 103.940051216 654.175689044 c 0
 157.844318356 736.110175096 230.003931847 768 286 768 c 0
 408.397252082 768 462.912342464 670.840946532 467.466252584 661.733126292 c 0
 472.511592823 651.642445814 477 638.88381662 477 624 c 0
429 624 m 0
 429 629.198426091 427.873294411 633.409954214 424.60358467 640.132086521 c 0
 421.677609553 645.679632885 378.292391728 720 286 720 c 0
 247.992568857 720 190.164764767 697.903631251 144.050009974 627.809203965 c 0
 107.181893123 571.585325766 80 487.396243953 80 368 c 0
 80 214.003078155 120.984446536 119.850629063 171.120074356 68.8197221747 c 0
 210.559956097 28.4834794855 254.160964434 16 286 16 c 0
 334.786460202 16 374.910902219 34.094607253 404.692334986 65.6278890061 c 0
 442.744852034 104.565348311 464 163.438025597 464 222 c 0
 464 259.764144916 453.899592039 297.339746429 437.853190736 327.649615556 c 0
 404.494525048 388.957433577 346.025447587 428 280 428 c 0
 236.719683443 428 198.125261489 416.093063918 166.737286504 386.796291421 c 0
 161.257735992 381.313817703 155.897579013 375.765449337 152.529603309 371.050283351 c 0
 148.537136604 365.460829964 141.649489578 361.458079255 134.378958818 361.039647904 c 0
 133.927678507 361.013675958 133.478418293 361.000864668 133.031540509 361.000864668 c 0
 120.003358472 361.000864668 109.000108135 371.88973827 109.000108135 385.010506539 c 0
 109.000108135 482.713228437 134.807305921 550.977574187 162.971361956 593.22365824 c 0
 200.983431179 651.359764111 252.763886694 672 286 672 c 0
 323.523597243 672 353.126589476 658.833724759 371.78751393 643.904985196 c 0
 388.773427103 630.915757475 398.632672633 616.567093919 401.942392995 611.738895227 c 0
 402.61257104 610.860947596 403.510629462 609.531081492 404.131306398 608.378395753 c 0
 408.21745331 600.789837203 411.782830625 600 414 600 c 0
 417.315634808 600 429 607.213842526 429 624 c 0
181.001499937 205.515336842 m 1
 192.886837302 175.788110851 206.614979792 155.326145705 218.970562748 142.970562748 c 0
 243.341500917 118.59962458 269.078973124 112 286 112 c 0
 317.904523378 112 340.050017169 123.202518027 355.660248999 139.593261449 c 0
 375.763086553 160.500212505 387 191.527347657 387 222 c 0
 387 240.411586806 383.108800109 256.819437428 373.858645911 273.637899606 c 0
 356.254178517 307.170218453 322.026039322 332 280 332 c 0
 247.813947017 332 227.506704648 322.841082732 213.547702916 309.616765302 c 0
 196.437745215 293.250718804 181.45816002 265.258210043 181.001499937 205.515336842 c 1
133 204 m 2
 133 273.055906683 151.596116936 316.781671079 180.452297084 344.383234698 c 0
 204.493295352 367.158917268 238.186052983 380 280 380 c 0
 341.973960678 380 391.745821483 342.829781547 416.141354089 296.362100394 c 0
 428.891199891 273.180562572 435 247.588413194 435 222 c 0
 435 180.472652343 420.236913447 137.499787495 390.339751001 106.406738551 c 0
 365.949982831 80.7974819729 330.095476622 64 286 64 c 0
 256.921026876 64 218.658499083 75.4003754199 185.029437252 109.029437252 c 0
 165.901594837 128.157279666 148.515897102 155.988177833 134.582755964 192.42870081 c 0
 133.691814742 194.758854774 133 198.107679314 133 201 c 2
 133 204 l 2
EndSplineSet
EndChar

StartChar: seven
Encoding: 55 55 23
Width: 537
Flags: HW
LayerCount: 2
Back
SplineSet
83.2001953125 688 m 0
 441.599609375 688 l 0
 441.599609375 630 l 0
 441.599609375 630 224 480 224 80 c 0
 224 48 l 1024
EndSplineSet
Fore
SplineSet
442 760 m 2
 484.213697046 760 504 718.664214525 504 688 c 2
 504 630 l 2
 504 605.895172275 493.033234258 581.936159481 474.002567138 568.502936519 c 0
 471.993721364 567.093833106 459.783006808 558.549232328 435.781583563 531.880984278 c 0
 415.675547334 509.860087455 391.160955184 478.80179097 368.133226356 435.624799417 c 0
 325.760529875 357.620517259 286 244.078432627 286 80 c 2
 286 48 l 2
 286 13.6006155952 263.295362604 -24 224 -24 c 0
 184.780721114 -24 162 13.9305039107 162 48 c 2
 162 80 l 2
 162 357.381352278 259.495431905 528.407646295 331.672361586 616 c 1
 83 616 l 2
 43.780721114 616 21 653.930503911 21 688 c 0
 21 722.399384405 43.7046373961 760 83 760 c 2
 442 760 l 2
442 712 m 2
 83 712 l 2
 80.2953626039 712 69 705.600615595 69 688 c 0
 69 670.069496089 80.219278886 664 83 664 c 2
 386 664 l 2
 390.883917575 664 397.309932274 661.959379475 401.7235614 658.132005319 c 0
 407.14619414 653.429651811 409.889494476 646.704700005 409.889494476 639.971195384 c 0
 409.889494476 633.762569536 407.557207383 627.546672291 402.842488467 622.902322314 c 0
 339.420424138 560.42685596 210 394.941024745 210 80 c 2
 210 48 l 2
 210 30.0694960893 221.219278886 24 224 24 c 0
 226.704637396 24 238 30.3993844048 238 48 c 2
 238 80 l 2
 238 251.921567373 280.239470125 374.379482741 325.866773644 458.375200583 c 0
 350.839044816 505.19820903 378.324452666 540.139912545 400.218416437 564.119015722 c 0
 428.255474965 595.271302975 444.940335932 606.792894903 446.63959316 607.937472311 c 0
 450.204415663 610.314020646 456 619.770527536 456 630 c 2
 456 688 l 2
 456 705.335785475 445.786302954 712 442 712 c 2
EndSplineSet
EndChar

StartChar: eight
Encoding: 56 56 24
Width: 537
Flags: HW
LayerCount: 2
Back
SplineSet
336 380 m 0
 336 380 432 451.756835938 432 544 c 0
 432 628.595703125 357.1796875 696 268.799804688 696 c 0
 174.020507812 696 105.599609375 628.333007812 105.599609375 544 c 0
 105.599609375 456 176.149414062 386 276.799804688 386 c 0
 391.255859375 386 444.799804688 297.151367188 444.799804688 216 c 0
 444.799804688 125.171875 382.497070312 40 268.799804688 40 c 0
 163.200195312 40 92.7998046875 136 92.7998046875 228 c 0
 92.7998046875 352 195.200195312 400 195.200195312 400 c 1024
EndSplineSet
Fore
SplineSet
120 544 m 0
 120 557.791798354 122.360956716 572.524369476 127.673707639 585.806246783 c 0
 145.453711732 631.526257308 196.858677438 672 269 672 c 0
 326.439512238 672 374.753840602 641.851627256 399.069297682 604.162668782 c 0
 411.186118192 585.987438018 418 565.004070308 418 544 c 0
 418 513.897082633 403.210974761 482.281299681 383.261015854 455.681354472 c 0
 367.908113378 434.84527254 351.451113195 419.512292852 341.944732132 411.062176352 c 0
 336.152472753 405.913501348 327.427549792 404.239196376 321.293212757 405.466063783 c 0
 307.695024145 408.185701506 292.122511679 410 277 410 c 0
 200.198498781 410 145.417859735 452.01395764 127.462261205 500.750582221 c 0
 122.388116214 514.704480948 120 529.316742582 120 544 c 0
168 544 m 0
 168 534.683257417 169.611883786 525.295519052 172.537738795 517.249417779 c 0
 182.582140265 489.98604236 217.801501219 458 277 458 c 0
 291.369464787 458 305.023224518 456.781351289 318.489221099 454.700927489 c 1
 326.155901026 462.081928073 335.706693337 472.060536572 344.738984146 484.318645528 c 0
 360.789025239 505.718700319 370 530.102917367 370 544 c 0
 370 554.995929692 366.813881808 566.012561982 358.930702318 577.837331218 c 0
 343.246159398 602.148372744 309.560487762 624 269 624 c 0
 215.141322562 624 182.546288268 594.473742692 172.326292361 568.193753217 c 0
 169.639043284 561.475630524 168 552.208201646 168 544 c 0
430 216 m 0
 430 167.020691476 408.460964404 118.486159357 360.534972036 88.5324141266 c 0
 336.77806829 74.2782718788 306.542110852 64 269 64 c 0
 165.930503616 64 107 155.244047485 107 228 c 0
 107 290.938353481 140.48830368 333.898906758 169.647183065 357.450309338 c 0
 177.275080073 363.988506773 184.337674499 368.503255874 186.6 370.2 c 0
 193.005694416 375.004270812 201.9080909 375.995524315 208.589466384 373.768399153 c 0
 230.69644054 366.399407768 252.996392207 362 277 362 c 0
 326.767579273 362 362.42351127 344.301138431 386.575488831 321.356759748 c 0
 417.345671876 291.817384025 430 251.522727846 430 216 c 0
382 216 m 0
 382 240.477272154 372.654328124 268.182615975 353.424511169 286.643240252 c 0
 337.57648873 301.698861569 315.232420727 314 277 314 c 0
 251.454407038 314 228.467810755 317.846198874 205.266286136 324.535482974 c 0
 203.750454319 323.363448063 202.630625729 322.5020982 200.352816935 320.549690662 c 0
 177.51169632 302.101093242 155 273.061646519 155 228 c 0
 155 176.755952515 198.069496384 112 269 112 c 0
 297.438660009 112 318.007169343 119.129003856 335.489543416 129.481230121 c 0
 367.438074494 149.791362685 382 180.766604529 382 216 c 0
140.207878052 384.270118561 m 0
 108.568882682 351.727151896 78 300.816145178 78 228 c 0
 78 116.646793683 160.992297793 16 269 16 c 0
 320.233782797 16 363.447805613 33.8555375631 395.920843196 62.817976488 c 0
 436.042657033 99.4509369483 459 155.936360182 459 216 c 0
 459 270.361845806 439.02071642 324.922106956 400.126966 362.931908503 c 0
 398.659343296 364.399531207 394.847861509 367.211012994 390.029437252 372.029437252 c 0
 385.361145234 376.697729269 383.21416027 382.889767415 383.21416027 388.961714085 c 0
 383.21416027 394.483421601 384.989657107 399.905816808 388.259148573 403.992681141 c 0
 393.463262898 410.497824047 397.71129665 414.83356028 400.030792936 418.312804709 c 0
 400.265492253 418.664853685 400.611890046 419.149186729 400.8 419.4 c 0
 423.124012167 449.165349556 446 491.179970874 446 544 c 0
 446 579.152416054 435.378167872 611.863235812 418.773294876 638.081456332 c 0
 385.225488127 690.168840494 329.949550899 720 269 720 c 0
 193.839837745 720 129.777431982 679.721121989 103.411995972 609.413292629 c 0
 95.320208194 588.734279419 91 567.028825174 91 544 c 0
 91 519.940872895 95.4643574884 496.897339051 103.375249708 476.680614488 c 0
 112.358638713 453.323803076 124.501386658 434.311875848 140.422864414 417.50587155 c 0
 144.778863556 412.907872455 146.828841429 406.976392504 146.828841429 401.103874547 c 0
 146.828841429 394.871364734 144.519828268 388.705267355 140.207878052 384.270118561 c 0
91.1086638039 401.344771993 m 1
 78.1369328421 418.186734124 66.835710174 437.970889817 58.6247502915 459.319385512 c 0
 48.5356425116 485.102660949 43 514.059127105 43 544 c 0
 43 572.971174826 48.679791806 601.265720581 58.5880040281 626.586707371 c 0
 92.2225680183 716.278878011 176.160162255 768 269 768 c 0
 346.050449101 768 416.774511873 729.831159506 459.226705124 663.918543668 c 0
 480.621832128 630.136764188 494 588.847583946 494 544 c 0
 494 477.227110085 465.303458256 425.578566508 439.651854952 391.20381894 c 1
 484.201339057 344.148246834 507 279.270819828 507 216 c 0
 507 144.063639818 479.957342967 74.5490630517 428.079156804 27.182023512 c 0
 386.552194387 -9.85553756307 331.766217203 -32 269 -32 c 0
 129.007702207 -32 30 95.3532063173 30 228 c 0
 30 303.801856007 57.9177208987 360.983687865 91.1086638039 401.344771993 c 1
EndSplineSet
EndChar

StartChar: nine
Encoding: 57 57 25
Width: 537
Flags: HW
LayerCount: 2
Back
SplineSet
123.200195312 112 m 0
 123.200195312 112 161.599609375 40 251.200195312 40 c 0
 315.200195312 40 443.200195312 111.47265625 443.200195312 368 c 0
 443.200195312 634.217773438 320.002929688 696 251.200195312 696 c 0
 146.537109375 696 88 604.217773438 88 514 c 0
 88 418 161.599609375 332 257.599609375 332 c 0
 353.290039062 332 418.634765625 395.8203125 418.634765625 532 c 1024
EndSplineSet
Fore
SplineSet
61 112 m 0
 61 146.399384405 83.7046373961 184 123 184 c 0
 146.022112431 184 164.516732093 170.022703517 175.294867841 151.91321526 c 0
 177.713662974 148.442069748 183.233493385 139.505118553 195.78751393 129.904985196 c 0
 207.430902378 120.590274437 224.613595984 112 251 112 c 0
 265.916444155 112 305.113651354 123.558924378 334.971361956 169.22365824 c 0
 352.75519732 195.899411285 369.356548169 236.39131833 376.78834133 293.388732518 c 1
 339.45005741 269.053775532 299.840620598 260 258 260 c 0
 172.025447587 260 98.4945250484 310.957433577 57.8531907362 385.649615556 c 0
 37.8995920386 423.339746429 26 467.764144916 26 514 c 0
 26 583.438025597 50.7448520338 654.565348311 98.6923349863 703.627889006 c 0
 136.771980478 743.947513645 189.717234205 768 251 768 c 0
 295.089420244 768 352.41965081 750.627071259 401.140141604 700.799296583 c 0
 462.96460063 637.87082936 506 529.994720983 506 368 c 0
 506 241.403510259 477.171169959 147.568923248 434.059948784 81.8243109557 c 0
 380.066922715 -0.245088668697 306.903478986 -32 251 -32 c 0
 128.602747918 -32 74.0876575362 65.1590534677 69.533747416 74.266873708 c 0
 63.721270362 85.891827816 61 98.8024276655 61 112 c 0
109 112 m 0
 109 105.255438193 110.005888722 100.870696793 112.398373555 95.8642007528 c 0
 115.320655817 90.3236559136 158.708256648 16 251 16 c 0
 289.100020576 16 347.923994184 38.2312823557 393.949990026 108.190796035 c 0
 430.818106877 164.414674234 458 248.603756047 458 368 c 0
 458 521.996921845 417.015553464 616.149370937 366.879925644 667.180277825 c 0
 327.563710856 707.390042949 282.916518152 720 251 720 c 0
 202.282765795 720 163.228019522 702.052486355 133.307665014 670.372110994 c 0
 95.2551479662 631.434651689 74 572.561974403 74 514 c 0
 74 476.235855084 84.1004079614 438.660253571 100.146809264 408.350384444 c 0
 133.505474952 347.042566423 191.974552413 308 258 308 c 0
 301.210848129 308 338.776801533 319.806805594 370.227101717 349.170434208 c 0
 376.729580119 355.596878758 382.910412883 361.365739318 385.470396691 364.949716649 c 0
 389.462863396 370.539170036 396.350510422 374.541920745 403.621041182 374.960352096 c 0
 404.072321493 374.986324042 404.521581707 374.999135332 404.968459491 374.999135332 c 0
 417.996641528 374.999135332 428.999891865 364.11026173 428.999891865 350.989493461 c 0
 428.999891865 253.286771563 403.192694079 185.022425813 375.028638044 142.77634176 c 0
 336.886348646 84.4410756218 284.083555845 64 251 64 c 0
 213.386404017 64 184.569097622 77.4097255629 166.21248607 92.095014804 c 0
 149.226572897 105.084242525 139.367327367 119.432906081 136.057607005 124.261104773 c 0
 135.38742896 125.139052404 134.489370538 126.468918508 133.868693602 127.621604247 c 0
 130.251280314 134.339657496 125.702728925 136 123 136 c 0
 120.295362604 136 109 129.600615595 109 112 c 0
355.998625689 530.484348947 m 1
 344.113011677 560.212266878 330.385145268 580.673729235 318.029437252 593.029437252 c 0
 293.658499083 617.40037542 267.921026876 624 251 624 c 0
 219.095476622 624 196.949982831 612.797481973 181.339751001 596.406738551 c 0
 161.236913447 575.499787495 150 544.472652343 150 514 c 0
 150 496.359607951 154.564115334 479.775261766 164.141354089 462.362100394 c 0
 181.745821483 428.829781547 215.973960678 404 258 404 c 0
 290.186052983 404 310.493295352 413.158917268 324.452297084 426.383234698 c 0
 341.277039795 442.476466857 355.565977447 470.38224817 355.998625689 530.484348947 c 1
404 532 m 2
 404 463.302743388 386.685064352 419.487284936 357.547702916 391.616765302 c 0
 333.506704648 368.841082732 299.813947017 356 258 356 c 0
 196.026039322 356 146.254178517 393.170218453 121.858645911 439.637899606 c 0
 109.435884666 462.224738234 102 487.640392049 102 514 c 0
 102 555.527347657 116.763086553 598.500212505 146.660248999 629.593261449 c 0
 171.050017169 655.202518027 206.904523378 672 251 672 c 0
 280.078973124 672 318.341500917 660.59962458 351.970562748 626.970562748 c 0
 371.098405163 607.842720334 388.484102898 580.011822167 402.417244036 543.57129919 c 0
 403.308185258 541.241145226 404 537.892320686 404 535 c 2
 404 532 l 2
EndSplineSet
EndChar

StartChar: colon
Encoding: 58 58 26
Width: 230
Flags: HW
LayerCount: 2
Back
SplineSet
133.374023438 456 m 1
 130.092773438 443.068359375 119.446289062 432 108.799804688 432 c 0
 102.400390625 432 96 440 96 448 c 0
 96 450.692382812 96.3623046875 453.383789062 97.0263671875 456 c 1025
97.0263671875 456 m 1
 100.307617188 468.931640625 110.954101562 480 121.599609375 480 c 0
 128 480 134.400390625 472 134.400390625 464 c 0
 134.400390625 461.307617188 134.038085938 458.616210938 133.374023438 456 c 1025
133.374023438 72 m 1
 130.092773438 59.068359375 119.446289062 48 108.799804688 48 c 0
 102.400390625 48 96 56 96 64 c 0
 96 66.6923828125 96.3623046875 69.3837890625 97.0263671875 72 c 1025
97.0263671875 72 m 1
 100.307617188 84.931640625 110.954101562 96 121.599609375 96 c 0
 128 96 134.400390625 88 134.400390625 80 c 0
 134.400390625 77.3076171875 134.038085938 74.6162109375 133.374023438 72 c 1025
EndSplineSet
Fore
SplineSet
147.820653326 67.0235196201 m 0
 148.102411734 68.8329706759 149 76.6239079781 149 80 c 0
 149 92.5193012658 145.5532439 99.7871751745 140.182055277 107.460301779 c 0
 133.986485761 116.753656053 128.999838308 120 122 120 c 0
 114.739897713 120 107.308386215 116.82986887 101.658563117 111.807803894 c 0
 93.5148348406 105.021363664 88.3735698232 97.926743178 83.9984394311 83.7029542872 c 0
 83.9801591542 82.6395054267 83.870781604 81.238388897 83.673454172 80.0544243047 c 0
 82.7472840848 74.4974037819 82 68.7406504195 82 64 c 0
 82 47.9677098384 87.5364473691 38.4046781279 92.9705627485 32.9705627485 c 0
 99.2244224674 26.7167030296 104.649722016 24 109 24 c 0
 116.039989881 24 122.116118271 26.6585795622 128.341436883 32.1921961063 c 0
 136.882923965 39.3101020076 143.432007333 50.3466648464 147.820653326 67.0235196201 c 0
194.738628461 56.4454700379 m 0
 187.586031851 30.3414437891 174.702294474 8.65806921224 159.861018938 -4.02271194213 c 0
 145.811299054 -16.140872865 129.910162748 -24 109 -24 c 0
 85.350277984 -24 68.7755775326 -10.7167030296 59.0294372515 -0.970562748477 c 0
 44.4635526309 13.5953218721 34 36.0322901616 34 64 c 0
 34 72.3462435188 35.0447860378 79.8271059097 36 85.9614850888 c 0
 36 86.9614850888 36 86 36 87 c 0
 36 89.0068832674 36.3808021026 91.552084971 36.7902111057 93.1078391827 c 0
 42.7929240724 115.918148456 55.6463463525 135.639818797 69.6863717872 147.635990521 c 0
 85.2714812706 161.017348368 101.070426659 168 122 168 c 0
 151.000161692 168 170.013514239 149.246343947 179.817944723 134.539698221 c 0
 188.4467561 122.212824826 197 103.480698734 197 80 c 0
 197 70.7406504195 195.812458374 62.8884495151 194.738628461 56.4454700379 c 0
147.820653326 451.02351962 m 0
 148.102411734 452.832970676 149 460.623907978 149 464 c 0
 149 476.519301266 145.5532439 483.787175174 140.182055277 491.460301779 c 0
 133.986485761 500.753656053 128.999838308 504 122 504 c 0
 114.739897713 504 107.308386215 500.82986887 101.658563117 495.807803894 c 0
 93.5148348406 489.021363664 88.3735698232 481.926743178 83.9984394311 467.702954287 c 0
 83.9801591542 466.639505427 83.870781604 465.238388897 83.673454172 464.054424305 c 0
 82.7472840848 458.497403782 82 452.74065042 82 448 c 0
 82 434.460997777 85.1191499361 427.252262202 89.8179447227 420.539698221 c 0
 95.5166544232 411.991633671 101.660896418 408 109 408 c 0
 116.039989881 408 122.116118271 410.658579562 128.341436883 416.192196106 c 0
 136.882923965 423.310102008 143.432007333 434.346664846 147.820653326 451.02351962 c 0
194.738628461 440.445470038 m 0
 187.586031851 414.341443789 174.702294474 392.658069212 159.861018938 379.977288058 c 0
 145.811299054 367.859127135 129.910162748 360 109 360 c 0
 80.3391035818 360 60.4833455768 378.008366329 50.1820552773 393.460301779 c 0
 40.8808500639 406.747737798 34 425.539002223 34 448 c 0
 34 456.346243519 35.0447860378 463.82710591 36 469.961485089 c 0
 36 470.961485089 36 470 36 471 c 0
 36 473.006883267 36.3808021026 475.552084971 36.7902111057 477.107839183 c 0
 42.7929240724 499.918148456 55.6463463525 519.639818797 69.6863717872 531.635990521 c 0
 85.2714812706 545.017348368 101.070426659 552 122 552 c 0
 151.000161692 552 170.013514239 533.246343947 179.817944723 518.539698221 c 0
 188.4467561 506.212824826 197 487.480698734 197 464 c 0
 197 454.74065042 195.812458374 446.888449515 194.738628461 440.445470038 c 0
EndSplineSet
EndChar

StartChar: semicolon
Encoding: 59 59 27
Width: 236
Flags: HW
LayerCount: 2
Back
SplineSet
121.599609375 96 m 0
 128 96 134.400390625 88.0009765625 134.400390625 79.9990234375 c 0
 134.400390625 64 121.599609375 48 108.799804688 48 c 0
 102.400390625 48 96 56 96 64 c 0
 96 80 108.799804688 96 121.599609375 96 c 0
 128 96 140.799804688 88 140.799804688 64 c 0
 140.799804688 24 113.599609375 -56 113.599609375 -56 c 1024
133.374023438 456 m 1
 130.092773438 443.068359375 119.446289062 432 108.799804688 432 c 0
 102.400390625 432 96 440 96 448 c 0
 96 450.692382812 96.3623046875 453.383789062 97.0263671875 456 c 1025
97.0263671875 456 m 1
 100.307617188 468.931640625 110.954101562 480 121.599609375 480 c 0
 128 480 134.400390625 472 134.400390625 464 c 0
 134.400390625 461.307617188 134.038085938 458.616210938 133.374023438 456 c 1025
EndSplineSet
Fore
SplineSet
147.820653326 451.02351962 m 0
 148.102411734 452.832970676 149 460.623907978 149 464 c 0
 149 476.519301266 145.5532439 483.787175174 140.182055277 491.460301779 c 0
 133.986485761 500.753656053 128.999838308 504 122 504 c 0
 114.739897713 504 107.308386215 500.82986887 101.658563117 495.807803894 c 0
 93.5148348406 489.021363664 88.3735698232 481.926743178 83.9984394311 467.702954287 c 0
 83.9801591542 466.639505427 83.870781604 465.238388897 83.673454172 464.054424305 c 0
 82.7472840848 458.497403782 82 452.74065042 82 448 c 0
 82 434.460997777 85.1191499361 427.252262202 89.8179447227 420.539698221 c 0
 95.5166544232 411.991633671 101.660896418 408 109 408 c 0
 116.039989881 408 122.116118271 410.658579562 128.341436883 416.192196106 c 0
 136.882923965 423.310102008 143.432007333 434.346664846 147.820653326 451.02351962 c 0
194.738628461 440.445470038 m 0
 187.586031851 414.341443789 174.702294474 392.658069212 159.861018938 379.977288058 c 0
 145.811299054 367.859127135 129.910162748 360 109 360 c 0
 80.3391035818 360 60.4833455768 378.008366329 50.1820552773 393.460301779 c 0
 40.8808500639 406.747737798 34 425.539002223 34 448 c 0
 34 456.346243519 35.0447860378 463.82710591 36 469.961485089 c 0
 36 470.961485089 36 470 36 471 c 0
 36 473.006883267 36.3808021026 475.552084971 36.7902111057 477.107839183 c 0
 42.7929240724 499.918148456 55.6463463525 519.639818797 69.6863717872 531.635990521 c 0
 85.2714812706 545.017348368 101.070426659 552 122 552 c 0
 151.000161692 552 170.013514239 533.246343947 179.817944723 518.539698221 c 0
 188.4467561 506.212824826 197 487.480698734 197 464 c 0
 197 454.74065042 195.812458374 446.888449515 194.738628461 440.445470038 c 0
203 64 m 0
 203 49.5257116752 201.969959803 36.833458088 199.609832401 22.6726936784 c 0
 196.469314912 6.97010623271 193.408842793 -8.43036889634 189.16145304 -23.2962330302 c 0
 182.107767352 -50.629265071 173.718262472 -76.0190591667 172.379332677 -80.4241381928 c 0
 172.134621912 -81.4553935784 171.786065626 -82.550506235 171.631768006 -82.9876828256 c 0
 163.444228711 -106.185710827 143.254102616 -128 114 -128 c 0
 75.3267008484 -128 51 -90.9008604088 51 -56 c 0
 51 -46.7042319514 52.4615364996 -37.7207266572 55.2316008468 -29.4105336156 c 0
 55.3460111917 -29.0673025808 55.5207737529 -28.5883356655 55.61741567 -28.3385960313 c 2
 55.61741567 -28.3385960313 59.1335304205 -19.1826396024 63.2741644935 -5.78991075046 c 1
 57.0715726953 0.0861190236879 53.9272465147 4.21069359765 50.4039709751 9.14327935303 c 0
 40.6383115358 23.0942214093 34 41.3846861737 34 64 c 0
 34 97.7895121625 48.1088588708 123.751542469 63.3028219406 140.211669128 c 0
 76.0522677639 154.236059534 96.1062541341 168 122 168 c 0
 133.757979756 168 143.036275281 164.234280962 147.913376232 162.283440581 c 0
 148.239709379 162.152907323 148.694484989 161.956425311 148.931270663 161.848795459 c 0
 181.443927809 147.070314938 203 110.137775418 203 64 c 0
155 64 m 0
 155 95.2258827399 141.38059057 112.129809432 129.516979536 117.944417097 c 0
 125.631023074 119.491280209 123.931393054 120 122 120 c 0
 113.893745866 120 105.947732236 115.763940466 98.6971780594 107.788330872 c 0
 89.8911411292 98.2484575307 82 84.2104878375 82 64 c 0
 82 50.6153138263 85.3616884642 42.9057785907 89.5960290249 36.856720647 c 0
 93.4694359443 31.4339509597 98.337985033 27.0022941235 100.747323185 25.9314771669 c 0
 108.976182736 22.2742062555 114.960446062 13.3125408007 114.960446062 3.70611424946 c 0
 114.960446062 1.79796739583 114.724338143 -0.1356183786 114.222814538 -2.05812553153 c 0
 108.547113666 -23.8149788725 102.378607218 -40.4023461735 100.620498815 -45.0416251088 c 0
 99.7624266523 -47.7601081161 99 -51.5344397748 99 -56 c 0
 99 -73.0991395912 110.673299152 -80 114 -80 c 0
 116.718712289 -80 122.00294689 -78.1877510466 126.009706083 -67.9827833709 c 0
 127.687881078 -62.0847314486 135.347191044 -39.7327711441 142.83854696 -10.7037669698 c 0
 146.704139294 2.82580620016 149.128562403 15.0224445178 152.391384326 31.333332123 c 0
 153.987048462 41.173859939 155 52.466791187 155 64 c 0
EndSplineSet
EndChar

StartChar: less
Encoding: 60 60 28
Width: 512
Flags: HW
LayerCount: 2
Back
SplineSet
428.799804688 152 m 0
 83.2001953125 368 l 1024
428.799804688 584 m 0
 83.2001953125 368 l 1024
EndSplineSet
Fore
SplineSet
491 152 m 0
 491 117.600615595 468.295362604 80 429 80 c 0
 417.596078916 80 407.985251798 83.420279826 399.470376581 88.529204956 c 2
 56.8328680767 302.430077317 l 2
 54.5661497125 303.284833187 52.5260214699 304.471575483 51.6871952906 305.030792936 c 0
 31.494866863 318.492345221 21 342.595040472 21 368 c 0
 21 394.903325497 33.9308406248 421.067948573 56.117793751 432.875564491 c 2
 399.465027964 647.467585873 l 2
 407.991094835 652.583225996 417.593479268 656 429 656 c 0
 468.219278886 656 491 618.069496089 491 584 c 0
 491 558.584357267 480.185362988 533.856831028 458.645991776 520.601833359 c 2
 214.306640097 368 l 1
 458.645991776 215.398166641 l 2
 480.18023378 202.146325408 491 177.412083888 491 152 c 0
443 152 m 0
 443 164.587916112 437.81976622 171.853674592 433.354008224 174.601833359 c 2
 156.286631744 347.643913255 l 2
 154.767619196 348.592610622 151.456476286 351.359408503 149.704114876 353.728741567 c 0
 146.582786411 357.949027799 145.095719341 362.912930122 145.095719341 367.846132457 c 0
 145.095719341 375.878174032 149.037791735 383.828832877 156.286631744 388.356086745 c 2
 433.354008224 561.398166641 l 2
 437.814637012 564.143168972 443 571.415642733 443 584 c 0
 443 601.930503911 431.780721114 608 429 608 c 0
 428.406520732 608 426.008905165 607.416774004 424.534972036 606.532414127 c 2
 80.7199745601 391.648040704 l 2
 80.2603230425 391.360758505 79.3822514554 390.858309998 78.733126292 390.533747416 c 0
 75.196567886 388.765468213 69 381.417794905 69 368 c 0
 69 357.738612756 72.713016182 350.265207988 76.2192000459 346.717636823 c 0
 76.5339064717 346.564778755 77.9505081538 345.832323649 78.709394902 345.35856776 c 2
 424.529623419 129.470795044 l 2
 426.014748202 128.579720174 428.403921084 128 429 128 c 0
 431.704637396 128 443 134.399384405 443 152 c 0
EndSplineSet
EndChar

StartChar: equal
Encoding: 61 61 29
Width: 512
Flags: HW
AnchorPoint: "middle" 256 368 basechar 0
LayerCount: 2
Back
SplineSet
83.2001953125 248 m 0
 428.799804688 248 l 1024
83.2001953125 488 m 0
 428.799804688 488 l 1024
EndSplineSet
Fore
SplineSet
83 416 m 2
 43.780721114 416 21 453.930503911 21 488 c 0
 21 522.399384405 43.7046373961 560 83 560 c 2
 429 560 l 2
 468.219278886 560 491 522.069496089 491 488 c 0
 491 453.600615595 468.295362604 416 429 416 c 2
 83 416 l 2
83 464 m 2
 429 464 l 2
 431.704637396 464 443 470.399384405 443 488 c 0
 443 505.930503911 431.780721114 512 429 512 c 2
 83 512 l 2
 80.2953626039 512 69 505.600615595 69 488 c 0
 69 470.069496089 80.219278886 464 83 464 c 2
83 176 m 2
 43.780721114 176 21 213.930503911 21 248 c 0
 21 282.399384405 43.7046373961 320 83 320 c 2
 429 320 l 2
 468.219278886 320 491 282.069496089 491 248 c 0
 491 213.600615595 468.295362604 176 429 176 c 2
 83 176 l 2
83 224 m 2
 429 224 l 2
 431.704637396 224 443 230.399384405 443 248 c 0
 443 265.930503911 431.780721114 272 429 272 c 2
 83 272 l 2
 80.2953626039 272 69 265.600615595 69 248 c 0
 69 230.069496089 80.219278886 224 83 224 c 2
EndSplineSet
EndChar

StartChar: greater
Encoding: 62 62 30
Width: 512
Flags: HW
LayerCount: 2
Back
SplineSet
83.2001953125 152 m 0
 428.799804688 368 l 1024
83.2001953125 584 m 0
 428.799804688 368 l 1024
EndSplineSet
Fore
SplineSet
83 80 m 0
 43.780721114 80 21 117.930503911 21 152 c 0
 21 177.415642733 31.8146370123 202.143168972 53.3540082236 215.398166641 c 2
 297.693359903 368 l 1
 53.3540082236 520.601833359 l 2
 31.8197662201 533.853674592 21 558.587916112 21 584 c 0
 21 618.399384405 43.7046373961 656 83 656 c 0
 94.4039210844 656 104.014748202 652.579720174 112.529623419 647.470795044 c 2
 455.167131923 433.569922683 l 2
 457.433850287 432.715166813 459.47397853 431.528424517 460.312804709 430.969207064 c 0
 480.505133137 417.507654779 491 393.404959528 491 368 c 0
 491 341.096674503 478.069159375 314.932051427 455.882206249 303.124435509 c 2
 112.534972036 88.5324141266 l 2
 104.008905165 83.416774004 94.4065207321 80 83 80 c 0
83 128 m 0
 83.5934792679 128 85.9910948346 128.583225996 87.4650279635 129.467585873 c 2
 431.28002544 344.351959296 l 2
 431.739676958 344.639241495 432.617748545 345.141690002 433.266873708 345.466252584 c 0
 436.803432114 347.234531787 443 354.582205095 443 368 c 0
 443 378.261387244 439.286983818 385.734792012 435.780799954 389.282363177 c 0
 435.466093528 389.435221245 434.049491846 390.167676351 433.290605098 390.64143224 c 2
 87.4703765812 606.529204956 l 2
 85.985251798 607.420279826 83.5960789156 608 83 608 c 0
 80.2953626039 608 69 601.600615595 69 584 c 0
 69 571.412083888 74.1802337799 564.146325408 78.6459917764 561.398166641 c 2
 355.713368256 388.356086745 l 2
 357.232380804 387.407389378 360.543523714 384.640591497 362.295885124 382.271258433 c 0
 365.417213589 378.050972201 366.904280659 373.087069878 366.904280659 368.153867543 c 0
 366.904280659 360.121825968 362.962208265 352.171167123 355.713368256 347.643913255 c 2
 78.6459917764 174.601833359 l 2
 74.1853629877 171.856831028 69 164.584357267 69 152 c 0
 69 134.069496089 80.219278886 128 83 128 c 0
EndSplineSet
EndChar

StartChar: question
Encoding: 63 63 31
Width: 512
Flags: HW
LayerCount: 2
Back
SplineSet
261.374023438 72 m 1
 258.092773438 59.068359375 247.446289062 48 236.799804688 48 c 0
 230.400390625 48 224 56 224 64 c 0
 224 66.6923828125 224.362304688 69.3837890625 225.026367188 72 c 1025
225.026367188 72 m 1
 228.307617188 84.931640625 238.954101562 96 249.599609375 96 c 0
 256 96 262.400390625 88 262.400390625 80 c 0
 262.400390625 77.3076171875 262.038085938 74.6162109375 261.374023438 72 c 1025
89.599609375 536 m 0
 89.599609375 642.828125 156.994140625 696 243.200195312 696 c 0
 332.799804688 696 396.799804688 648 396.799804688 560 c 0
 396.799804688 490.232421875 368.745117188 459.178710938 320 424 c 0
 259.603515625 380.413085938 243.200195312 344 243.200195312 240 c 1024
EndSplineSet
Fore
SplineSet
275.820653326 67.0235196201 m 0
 276.102411734 68.8329706759 277 76.6239079781 277 80 c 0
 277 96.0322901616 271.463552631 105.595321872 266.029437252 111.029437252 c 0
 259.775577533 117.28329697 254.350277984 120 250 120 c 0
 242.739897713 120 235.308386215 116.82986887 229.658563117 111.807803894 c 0
 221.514834841 105.021363664 216.373569823 97.926743178 211.998439431 83.7029542872 c 0
 211.980159154 82.6395054267 211.870781604 81.238388897 211.673454172 80.0544243047 c 0
 210.747284085 74.4974037819 210 68.7406504195 210 64 c 0
 210 47.9677098384 215.536447369 38.4046781279 220.970562748 32.9705627485 c 0
 227.224422467 26.7167030296 232.649722016 24 237 24 c 0
 244.039989881 24 250.116118271 26.6585795622 256.341436883 32.1921961063 c 0
 264.882923965 39.3101020076 271.432007333 50.3466648464 275.820653326 67.0235196201 c 0
322.738628461 56.4454700379 m 0
 315.586031851 30.3414437891 302.702294474 8.65806921223 287.861018938 -4.02271194213 c 0
 273.811299054 -16.140872865 257.910162748 -24 237 -24 c 0
 213.350277984 -24 196.775577533 -10.7167030296 187.029437252 -0.970562748477 c 0
 172.463552631 13.5953218721 162 36.0322901616 162 64 c 0
 162 72.3462435188 163.044786038 79.8271059097 164 85.9614850888 c 0
 164 86.9614850888 164 86 164 87 c 0
 164 89.0068832674 164.380802103 91.552084971 164.790211106 93.1078391827 c 0
 170.792924072 115.918148456 183.646346353 135.639818797 197.686371787 147.635990521 c 0
 213.271481271 161.017348368 229.070426659 168 250 168 c 0
 273.649722016 168 290.224422467 154.71670303 299.970562748 144.970562748 c 0
 314.536447369 130.404678128 325 107.967709838 325 80 c 0
 325 70.7406504195 323.812458374 62.8884495151 322.738628461 56.4454700379 c 0
152 536 m 0
 152 501.600615595 129.295362604 464 90 464 c 0
 51.3267008484 464 27 501.099139591 27 536 c 0
 27 623.257265934 60.9808096951 687.039430686 108.153901234 723.857453351 c 0
 146.945399586 754.662466748 194.740602544 768 243 768 c 0
 316.806797108 768 380.963457354 740.485721404 420.327041935 687.229106971 c 0
 445.82292207 652.461997697 459 608.338598659 459 560 c 0
 459 519.111191775 451.649741337 480.322567271 434.124162526 447.60815349 c 0
 412.417198768 407.621641306 381.728246135 383.026489181 352.91985494 362.449066899 c 0
 324.038934947 341.952930129 318.929328828 332.384898026 313.496255441 317.637984548 c 0
 309.45224047 306.853944625 306 283.054470932 306 240 c 0
 306 204.786157474 281.684365192 168 243 168 c 0
 203.780721114 168 181 205.930503911 181 240 c 0
 181 301.060419902 185.769417247 353.33858174 209.651755742 399.966004515 c 0
 228.889361897 437.309592933 256.369085493 463.312808871 286.881616808 485.408090168 c 0
 312.237627491 503.937482591 323.645872006 515.957375471 327.725349307 524.116330075 c 0
 331.907114907 531.782900341 334 537.494467178 334 560 c 0
 334 577.227054938 330.470615904 586.039178795 324.710562456 593.719250058 c 0
 312.154843055 610.900760818 282.818893799 624 243 624 c 0
 214.234476748 624 192.930273067 616.261874265 178.752845549 605.06916833 c 0
 169.307138839 597.803240091 163.256345748 589.3315587 158.436493481 576.47861932 c 0
 154.580854058 566.45395682 152 553.672630152 152 536 c 0
104 536 m 0
 104 558.327369848 107.419145942 577.54604318 113.563506519 593.52138068 c 0
 120.743654252 612.6684413 132.692861161 630.196759909 149.247154451 642.93083167 c 0
 173.069726933 661.738125735 205.765523252 672 243 672 c 0
 291.181106201 672 337.845156945 657.099239182 363.289437544 622.280749942 c 0
 375.529384096 605.960821205 382 584.772945062 382 560 c 0
 382 534.56688425 378.836968239 517.972633991 370.282925228 501.897434115 c 0
 360.022867177 482.044885674 341.918973637 466.176956695 315.118383192 446.591909832 c 0
 287.620049428 426.679323313 267.125478675 406.719215235 252.335389354 378.009041848 c 0
 234.243061231 342.685925035 229 298.929363919 229 240 c 0
 229 222.069496089 240.219278886 216 243 216 c 0
 246.315634808 216 258 223.213842526 258 240 c 0
 258 284.945529068 260.54775953 313.146055375 268.503744559 334.362015452 c 0
 277.076762695 357.631636107 291.927375398 378.023161083 325.110071857 401.572171474 c 0
 352.241502256 420.951764616 375.589637914 440.390952582 391.875837474 470.39184651 c 0
 404.350258663 493.677432729 411 524.888808225 411 560 c 0
 411 599.678193063 400.205477048 633.499276234 381.646280099 658.807272073 c 0
 353.060335917 697.482373026 305.184212397 720 243 720 c 0
 203.259397456 720 167.054600414 709.337533252 137.846098766 686.142546649 c 0
 103.019190305 658.960569314 75 610.742734066 75 536 c 0
 75 518.900860409 86.6732991516 512 90 512 c 0
 92.7046373961 512 104 518.399384405 104 536 c 0
EndSplineSet
EndChar

StartChar: at
Encoding: 64 64 32
Width: 704
Flags: HW
LayerCount: 2
Back
SplineSet
445.294921875 444.380859375 m 0
 427.336914062 504.428710938 388.862304688 545.881835938 344.282226562 545.881835938 c 0
 282.530273438 545.881835938 232.470703125 466.2421875 232.470703125 368 c 0
 232.470703125 269.7578125 282.530273438 190.118164062 344.282226562 190.118164062 c 0
 388.849609375 190.118164062 427.326171875 231.599609375 445.291015625 291.619140625 c 1024
462.596679688 70.470703125 m 0
 428.98828125 50.9169921875 391.513671875 40 352 40 c 0
 207.080078125 40 89.599609375 186.850585938 89.599609375 368 c 0
 89.599609375 549.149414062 207.080078125 696 352 696 c 0
 496.919921875 696 614.400390625 549.149414062 614.400390625 368 c 0
 614.400390625 325.0078125 612.564453125 282.721679688 595.752929688 246.32421875 c 0
 582.411132812 217.439453125 550.400390625 200 524.799804688 200 c 0
 485.998046875 200 445.9296875 231.52734375 445.9296875 272 c 0
 445.9296875 539.529296875 l 1024
EndSplineSet
Fore
SplineSet
384 429.038000239 m 1
 370.968988115 465.08450634 351.265828779 474 344 474 c 0
 339.462143126 474 335.849373951 473.15528087 327.144147056 465.241438238 c 0
 312.275278643 451.724285136 295 414.962907378 295 368 c 0
 295 321.037072266 312.275485586 284.275526734 327.144147056 270.758561762 c 0
 335.849373951 262.84471913 339.462143126 262 344 262 c 0
 351.452742741 262 371.382089345 272.058218119 384 306.961999761 c 1
 384 429.038000239 l 1
430.820914356 440.430065139 m 0
 431.458401968 438.472067472 432 435.475745023 432 433 c 2
 432 303 l 2
 432 300.940838685 431.587370472 297.924050075 430.820914356 295.569934861 c 0
 415.20434172 247.604747481 382.508510684 214 344 214 c 0
 324.537856874 214 308.150626049 223.15528087 294.855852944 235.241438238 c 0
 265.724514414 261.724473266 247 310.962927734 247 368 c 0
 247 425.037092622 265.724721357 474.275714864 294.855852944 500.758561762 c 0
 308.150626049 512.84471913 324.537856874 522 344 522 c 0
 382.510082584 522 415.202609846 488.400571848 430.820914356 440.430065139 c 0
463 95 m 0
 462.264562575 95 460.327974057 94.608215339 458.24290173 93.3571719425 c 0
 425.742763979 74.3053670545 390.37126294 64 352 64 c 0
 210.255367088 64 104 204.350184236 104 368 c 0
 104 531.649814837 210.255375272 672 352 672 c 0
 409.16602693 672 461.481216792 648.397927503 502.632421824 609.922201706 c 0
 562.660679051 553.796730694 600 465.987234722 600 368 c 0
 600 325.577134239 597.479921986 290.439969564 584.264067842 260.98582268 c 0
 580.615101068 252.184379674 573.051462089 243.971643434 564.176774364 237.632580773 c 0
 552.205973192 228.654479894 538.079175245 224 525 224 c 0
 511.167677074 224 499.289709512 228.522329514 489.266873708 233.533747416 c 0
 488.624813218 233.854777661 487.48015559 234.502152736 486.687195291 235.030792936 c 0
 478.083057821 240.766884583 471.877613804 246.416963988 467.030792936 253.687195291 c 0
 464.793226506 257.043544936 463.704653558 259.02697291 462.70227771 260.931487023 c 0
 461.153912228 264.01171392 460 268.141745969 460 272 c 2
 460 540 l 2
 460 548.132437635 457.077440123 555.246740576 453.621509732 559.394268857 c 0
 450.380411897 563.283972471 447.689954631 564 446 564 c 0
 443.623495683 564 439.734321571 562.770457587 435.730693622 555.907095387 c 0
 431.551105291 548.74208682 423.159267744 544.187044618 414.549451247 544.187044618 c 0
 409.680167774 544.187044618 404.741164379 545.643961351 400.454962834 548.909638719 c 0
 382.551811729 562.550134799 363.671903192 570 344 570 c 0
 321.171952981 570 300.210802597 560.431606859 281.474046199 542.546521206 c 0
 242.706711239 506.363675244 218 442.143918255 218 368 c 0
 218 293.854431636 242.704760465 229.638145479 281.474046199 193.453478794 c 0
 300.210049134 175.569112355 321.172590074 166 344 166 c 0
 371.753968427 166 397.459995514 180.841193061 419.56268929 207.364425592 c 0
 423.523895081 212.117872542 430.971661581 215.559653679 438.677168548 215.559653679 c 0
 444.768397743 215.559653679 451.020687815 213.408899886 455.83905951 208.055153559 c 0
 463.219317643 199.854866744 471.254376755 193.435943042 479.431554594 188.529636339 c 0
 485.175217539 185.019620095 490.518849383 182.518587124 496.21218777 180.561639018 c 0
 505.123787048 177.498491153 514.462195138 176 525 176 c 0
 541.786119745 176 557.565923923 180.991880224 574.319862453 192.719637195 c 0
 587.372989616 201.693662119 599.025167292 214.053988715 607.211943985 232.064897441 c 0
 627.620465318 275.54392115 629 324.176380317 629 368 c 0
 629 567.298155157 500.264562123 720 352 720 c 0
 203.735342454 720 75 567.298264727 75 368 c 0
 75 168.701844843 203.735437877 16 352 16 c 0
 392.189249227 16 430.294922781 27.2365991225 466.730915385 47.6345268245 c 0
 471.043866658 50.5752177802 477 59.3357333496 477 71 c 0
 477 88.9305039107 465.780721114 95 463 95 c 0
508 528.240515388 m 1
 508 279.282405652 l 2
 509.468153974 277.868756604 511.56731217 276.206069511 512.168038571 275.766937787 c 0
 518.751351608 272.763731516 522.802884484 272 525 272 c 0
 525.920824755 272 531.794026808 273.345520106 535.823225636 276.367419227 c 0
 538.450698403 278.244185489 539.669260519 279.504674996 540.230614412 280.101213464 c 0
 548.829528569 299.265595718 552 327.06317866 552 368 c 0
 552 428.745061078 535.223408468 484.617149203 508 528.240515388 c 1
497.871348027 130.542340123 m 1
 515.296958995 116.666666121 525 94.4470804183 525 71 c 0
 525 44.7623341273 513.449764133 20.0195394247 491.189434555 6.32087506949 c 0
 448.316519212 -17.8638464064 401.881151295 -32 352 -32 c 0
 168.264562123 -32 27 151.298155157 27 368 c 0
 27 584.701735273 168.264657546 768 352 768 c 0
 535.735437877 768 677 584.701844843 677 368 c 0
 677 323.823619683 676.379534682 266.45607885 650.788056015 211.935102559 c 0
 638.974832708 185.946011285 620.627010384 166.306337881 601.680137547 153.280362805 c 0
 578.434076077 137.008119776 552.213880255 128 525 128 c 0
 516.197636786 128 506.774710943 128.882303453 497.871348027 130.542340123 c 1
423.453487501 607.189929977 m 1
 401.137383123 618.089157641 377.105294439 624 352 624 c 0
 245.744624728 624 152 514.350185163 152 368 c 0
 152 221.649815764 245.744632912 112 352 112 c 0
 381.62873706 112 408.257236021 119.694632946 433.75709827 134.642828058 c 0
 441.235118943 139.129640461 451.47845688 142.613192413 462.431852929 143.013445176 c 1
 459.806111312 144.403860922 456.829343671 146.08870361 454.568445406 147.470363661 c 0
 449.749037391 150.36200847 442.671366035 155.362855609 439.062241697 158.205773112 c 1
 412.43376739 133.613819928 381.088368951 118 344 118 c 0
 306.827409926 118 273.789950866 134.430887645 248.525953801 158.546521206 c 0
 197.295239535 206.361854521 170 284.145568364 170 368 c 0
 170 451.856081745 197.293288761 529.636324756 248.525953801 577.453478794 c 0
 273.789197403 601.568393141 306.828047019 618 344 618 c 0
 368.43292828 618 391.589230061 610.413624151 410.856927751 599.511380296 c 1
 416.199553751 603.582610073 418.66992307 604.932364332 423.453487501 607.189929977 c 1
EndSplineSet
EndChar

StartChar: A
Encoding: 65 65 33
Width: 550
Flags: HW
HStem: -0 21G<66.2082 85.2224 465.178 484.192> 144 96<170.213 380.187> 716 20G<252.758 305.763>
LayerCount: 2
Back
SplineSet
118.400390625 192 m 4
 432 192 l 1028
76.7998046875 48 m 0
 252.799804688 688 l 0
 297.599609375 688 l 0
 473.599609375 48 l 1024
EndSplineSet
Fore
SplineSet
201.486988086 264 m 1
 348.513011914 264 l 1
 275 531.447338582 l 1
 201.486988086 264 l 1
170 216 m 2
 168.608094187 216 166.960593992 216.145177988 165.474298779 216.430570044 c 0
 154.026115796 218.628801219 146.022278855 228.985015914 146.022278855 240.168572251 c 0
 146.022278855 242.219938689 146.29157173 244.299141427 146.858296329 246.360939491 c 2
 251.858296329 628.360939491 l 2
 253.761343616 635.284406762 259.443185114 641.89710285 266.843037534 644.57130841 c 0
 269.460218211 645.517121748 272.146312383 645.963022353 274.79703448 645.963022353 c 0
 285.286942577 645.963022353 295.222894385 638.979845656 298.141703671 628.360939491 c 2
 403.141703671 246.360939491 l 2
 403.662839738 244.464996847 403.998331894 242.3685065 403.998331894 240.044917584 c 0
 403.998331894 227.067208887 393.177423954 216 380 216 c 2
 170 216 l 2
77 -24 m 0
 38.3267008484 -24 14 13.0991395912 14 48 c 0
 14 56.0614926014 15.335856975 63.055753201 16.4660637834 68.7067872433 c 0
 16.5722661845 69.2377992487 16.7523933868 69.975838553 16.8590705727 70.3637555925 c 2
 192.823934343 710.235987485 l 2
 200.120491476 737.962904592 224.059316499 760 253 760 c 2
 298 760 l 2
 327.474168237 760 350.098190442 737.131913301 357.176065657 710.235987485 c 2
 533.140929427 70.3637555925 l 2
 533.284519118 69.8416112632 533.455035195 69.1012923514 533.533936217 68.7067872433 c 0
 534.664143025 63.055753201 536 56.0614926014 536 48 c 0
 536 13.6006155952 513.295362604 -24 474 -24 c 0
 444.03435102 -24 420.985798166 -1.45107001104 413.803617185 25.8412177157 c 2
 388.582514787 120 l 1
 162.259503208 120 l 1
 136.170997788 25.744754613 l 2
 129.260018125 -0.516968104408 107.495079207 -24 77 -24 c 0
77 24 m 0
 80.5049207928 24 86.7399818746 26.5169681044 89.8290022121 38.255245387 c 2
 120.869662478 150.402146993 l 2
 123.706957055 160.653017723 133.323896018 168 144 168 c 2
 407 168 l 2
 416.233718203 168 427.238632315 161.201050818 430.182753236 150.209666045 c 2
 460.196382815 38.1587822843 l 2
 463.014201834 27.451070011 469.96564898 24 474 24 c 0
 476.704637396 24 488 30.3993844048 488 48 c 0
 488 49.8128610198 487.434964392 54.3273126253 486.625597006 58.4852391943 c 2
 310.823934343 697.764012515 l 2
 307.901809558 708.868086699 300.525831763 712 298 712 c 2
 253 712 l 2
 249.940683501 712 241.879508524 708.037095408 239.176065657 697.764012515 c 2
 63.3744029937 58.4852391943 l 2
 62.8833461398 55.9625549644 62 49.4440330778 62 48 c 0
 62 30.9008604088 73.6732991516 24 77 24 c 0
EndSplineSet
EndChar

StartChar: B
Encoding: 66 66 34
Width: 556
Flags: HW
AnchorPoint: "above" 278 784 basechar 0
LayerCount: 2
Back
SplineSet
128 388 m 0
 320 388 l 0
 396.799804688 388 448 458 448 538 c 0
 448 618 396.799804688 688 320 688 c 0
 115.200195312 688 l 0
 115.200195312 48 l 0
 332.799804688 48 l 0
 416 48 460.799804688 138 460.799804688 218 c 0
 460.799804688 298 416 388 332.799804688 388 c 1024
EndSplineSet
Fore
SplineSet
154 664 m 2
 320 664 l 2
 352.568176368 664 378.90348769 651.037637806 398.199852813 631.741272684 c 0
 421.324056508 607.332391006 434 573.855281866 434 538 c 0
 434 502.146374382 421.321914601 468.665348092 398.199852813 444.258727316 c 0
 378.84974342 424.908617923 352.631157939 412 320 412 c 2
 154 412 l 2
 139.472763659 412 130 425.699291841 130 436 c 2
 130 640 l 2
 130 654.527236341 143.699291841 664 154 664 c 2
178 616 m 1
 178 460 l 1
 320 460 l 2
 339.320940698 460 352.270487968 466.429866811 363.799144981 477.740072702 c 0
 376.593024858 491.514671412 386 513.719013648 386 538 c 0
 386 562.066308079 377.349192726 583.671196438 363.799144981 598.259927298 c 0
 352.950919943 608.9025944 339.54034707 616 320 616 c 2
 178 616 l 1
130 96 m 2
 130 340 l 2
 130 354.527236341 143.699291841 364 154 364 c 2
 320 364 l 1
 329 364 l 1
 333 364 l 2
 361.975141727 364 385.434107396 351.507018101 401.970562748 334.970562748 c 0
 414.992526461 321.948599036 426.441706038 305.359525068 433.577060416 285.142687664 c 0
 441.39622059 263.919252906 446 240.220802569 446 218 c 0
 446 195.748047405 441.410077873 172.11835972 433.577060416 150.857312336 c 0
 426.442570507 130.642924261 414.991282012 114.050156515 401.970562748 101.029437252 c 0
 385.431631818 84.490506321 361.990112781 72 333 72 c 2
 154 72 l 2
 139.472763659 72 130 85.6992918406 130 96 c 2
178 120 m 1
 333 120 l 2
 348.009887219 120 358.568368182 125.509493679 368.029437252 134.970562748 c 0
 377.008717988 143.949843485 383.557429493 153.357075739 388.422939584 167.142687664 c 0
 394.589922127 183.88164028 398 202.251952595 398 218 c 0
 398 233.779197431 394.60377941 252.080747094 388.422939584 268.857312336 c 0
 383.558293962 282.640474932 377.007473539 292.051400964 368.029437252 301.029437252 c 0
 358.565892604 310.492981899 348.024858273 316 333 316 c 2
 329 316 l 1
 320 316 l 1
 178 316 l 1
 178 120 l 1
475 218 m 0
 475 287.093900868 448.987864817 343.071009686 417.029437252 375.029437252 c 0
 412.356060038 379.702814465 410.2329484 385.849296767 410.2329484 391.884365541 c 0
 410.2329484 397.873865255 412.32411908 403.753627592 416.088909573 407.974756327 c 0
 444.5946414 439.935728375 462 487.296121353 462 538 c 0
 462 591.460883909 442.816965018 640.383471734 411.771382829 672.291431206 c 0
 386.758790205 698.166527024 356.394394621 712 320 712 c 2
 115 712 l 2
 112.216311521 712 101 707.023655641 101 688 c 2
 101 48 l 2
 101 30.3993844048 112.295362604 24 115 24 c 2
 333 24 l 2
 365.286132453 24 394.157359026 37.0984845225 416.029437252 58.9705627485 c 0
 434.009096226 76.9502217234 448.700927287 101.42029036 458.593675243 126.60183061 c 0
 469.409376374 155.443700294 475 186.92055432 475 218 c 0
523 218 m 0
 523 181.07944568 516.590623626 144.556299706 503.406324757 109.39816939 c 0
 491.299072713 78.57970964 473.990903774 49.0497782766 449.970562748 25.0294372515 c 0
 419.842640974 -5.09848452248 378.713867547 -24 333 -24 c 2
 115 -24 l 2
 75.7046373961 -24 53 13.6006155952 53 48 c 2
 53 688 l 2
 53 724.976344359 77.7836884787 760 115 760 c 2
 320 760 l 2
 369.616558604 760 413.214563795 739.861037804 446.255721025 705.680530324 c 0
 487.156095756 663.644034073 510 602.527833187 510 538 c 0
 510 484.458863393 494.483146515 433.464394879 465.414281575 392.893527679 c 1
 499.193369945 350.907534005 523 289.552063829 523 218 c 0
EndSplineSet
EndChar

StartChar: C
Encoding: 67 67 35
Width: 547
Flags: HW
AnchorPoint: "bottom" 294 40 basechar 0
AnchorPoint: "above" 294 784 basechar 0
LayerCount: 2
Back
SplineSet
451.200195312 200 m 0
 451.200195312 176 403.200195312 40 294.400390625 40 c 0
 185.599609375 40 96 186.850585938 96 368 c 0
 96 549.149414062 184.826171875 696 294.400390625 696 c 0
 403.200195312 696 438.400390625 576 438.400390625 576 c 1024
EndSplineSet
Fore
SplineSet
451 272 m 0
 489.673299152 272 514 234.900860409 514 200 c 0
 514 186.185355869 510.878395991 175.457307101 509.373661242 169.540854042 c 0
 506.689068038 157.753812009 503.91811617 148.796620002 499.514034021 136.685394094 c 0
 489.565485458 110.155931258 473.793696394 79.6430236463 450.86663193 50.165369335 c 0
 416.874052001 7.40051071512 363.693566636 -32 294 -32 c 0
 240.381625593 -32 192.516382941 -7.36139480811 154.277143578 29.7852948594 c 0
 77.9024387893 103.977865225 34 230.256607312 34 368 c 0
 34 505.743385294 77.9024369679 632.022133005 154.277143578 706.214705141 c 0
 192.516509242 743.361517501 240.3814024 768 294 768 c 0
 343.983831618 768 385.782433126 749.490486479 416.464263697 723.354112289 c 0
 443.177845995 701.092793707 462.016123966 674.407973344 473.984969725 652.646435601 c 0
 488.335138314 627.021134549 495.450824375 604.672817044 496.575026788 601.186243816 c 0
 500.177024054 591.399935067 501 584.576124457 501 576 c 0
 501 540.786157474 476.684365192 504 438 504 c 0
 408.710341635 504 386.167961179 526.323939634 378.875570169 552.576547269 c 0
 378.785367451 552.901277052 378.612752861 553.610441144 378.610817394 553.618677653 c 0
 377.264598495 557.635786638 372.002140838 570.730173437 364.091859562 582.595595351 c 0
 348.993797454 604.798627863 330.125577746 624 294 624 c 0
 274.64430126 624 255.598613262 615.790464099 234.696882986 595.759639251 c 0
 194.164049622 556.089206597 158 470.862452054 158 368 c 0
 158 265.133648196 194.155599823 179.919063419 234.696882986 140.240360749 c 0
 255.59803116 120.210093749 274.644555474 112 294 112 c 0
 327.456287257 112 352.114083511 135.143313109 370.447609421 165.39363086 c 0
 379.886914543 181.125806063 387.312847463 199.897491244 389.214084604 206.055229445 c 0
 392.050665516 239.52621757 414.278037658 272 451 272 c 0
433.74943098 187.824316059 m 2
 429.690288151 175.990309311 422.286478125 158.496515049 411.552390579 140.60636914 c 0
 389.885916489 104.856686891 352.543712743 64 294 64 c 0
 259.355444526 64 228.40196884 79.7899062513 201.303117014 105.759639251 c 0
 147.844400177 158.080936581 110 254.866351804 110 368 c 0
 110 481.137547946 147.835950378 577.910793403 201.303117014 630.240360749 c 0
 228.401386738 656.209535901 259.35569874 672 294 672 c 0
 351.874422254 672 385.006202546 637.201372137 403.908140438 609.404404649 c 0
 417.5250957 588.978971755 422.999102293 573.774021471 425.377065932 564.574717693 c 0
 428.210571653 555.836395173 435.228035285 552 438 552 c 0
 441.315634808 552 453 559.213842526 453 576 c 0
 453 579.367235973 452.300588825 582.626550251 451.716559419 584.086623768 c 0
 451.593206506 584.39500605 451.373276053 584.985507996 451.231600847 585.410533616 c 0
 450.077281733 588.873490956 445.043563602 606.088326316 432.015030275 629.353564399 c 0
 421.983876034 647.592026656 406.822154005 668.907206293 385.535736303 686.645887711 c 0
 362.217566874 706.509513521 332.016168382 720 294 720 c 0
 255.6185976 720 219.483490758 702.638482499 187.722856422 671.785294859 c 0
 124.097563032 609.977866995 82 496.256614706 82 368 c 0
 82 239.743392688 124.097561211 126.022134775 187.722856422 64.2147051406 c 0
 219.483617059 33.3613948081 255.618374407 16 294 16 c 0
 344.306433364 16 385.125947999 44.5994892849 413.13336807 79.834630665 c 0
 432.206303606 104.356976354 446.434514542 131.844068742 454.485965979 153.314605906 c 0
 458.181007748 163.47597077 460.783895163 172.16206172 462.640003055 180.514547233 c 0
 465.126606856 190.460962438 466 191.857475799 466 200 c 0
 466 217.099139591 454.326700848 224 451 224 c 0
 448.295362604 224 437 217.600615595 437 200 c 0
 437 199 433.74943098 187.824316059 433.74943098 187.824316059 c 2
EndSplineSet
EndChar

StartChar: D
Encoding: 68 68 36
Width: 556
Flags: HW
AnchorPoint: "above" 278 784 basechar 0
LayerCount: 2
Back
SplineSet
115.200195312 48 m 0
 115.200195312 688 l 0
 281.599609375 688 l 0
 332.799804688 688 460.799804688 624 460.799804688 368 c 0
 460.799804688 111.98046875 332.799804688 48 281.599609375 48 c 0
 115.200195312 48 l 0
EndSplineSet
Fore
SplineSet
53 688 m 2
 53 725.158077991 77.6863864131 760 115 760 c 2
 282 760 l 2
 310.509844337 760 342.822795849 750.18734541 375.780726136 729.313989561 c 0
 403.312027985 712.106925905 429.489455902 685.532431453 452.995310502 650.273649552 c 0
 495.271856463 586.316823611 523 494.452356538 523 368 c 0
 523 241.547724204 495.271775934 149.683054562 452.995310502 85.726350448 c 0
 429.488493447 50.4661248647 403.313611537 23.8940638146 375.780726136 6.68601043886 c 0
 342.823949297 -14.1866148927 310.508954672 -24 282 -24 c 2
 115 -24 l 2
 75.780721114 -24 53 13.9305039107 53 48 c 2
 53 688 l 2
101 688 m 2
 101 48 l 2
 101 30.0694960893 112.219278886 24 115 24 c 2
 282 24 l 2
 299.491045328 24 323.176050703 30.1866148927 350.219273864 47.3139895611 c 0
 370.706386251 60.1184348031 392.480772407 81.4877739166 413.030792936 112.312804709 c 0
 448.700256649 166.274301096 475 248.471209686 475 368 c 0
 475 487.566508609 448.756300992 569.640579213 412.978739808 623.76560767 c 0
 392.541021743 654.422184768 370.668334415 675.905347594 350.219273864 688.686010439 c 0
 323.177204151 705.81265459 299.490155663 712 282 712 c 2
 115 712 l 2
 112.313613587 712 101 706.841922009 101 688 c 2
178 616 m 1
 178 120 l 1
 282 120 l 2
 283.615450966 120 298.270207267 122.422851962 313.566903228 132.889012356 c 0
 326.118771108 141.256924276 339.816896556 153.93473454 353.10012858 173.416808175 c 0
 375.7680384 207.418672905 398 266.483205892 398 368 c 0
 398 469.51706513 375.76827607 528.58097059 353.10012858 562.583191825 c 0
 339.839562432 582.032022174 326.084342097 594.766028398 313.566903228 603.110987644 c 0
 298.268833733 613.578087825 283.616011492 616 282 616 c 2
 178 616 l 1
130 640 m 2
 130 650.300708159 139.472763659 664 154 664 c 2
 282 664 l 2
 296.383988508 664 317.731166267 658.421912175 340.433096772 642.889012356 c 0
 357.915657903 631.233971602 376.160437568 613.967977826 392.89987142 589.416808175 c 0
 422.23172393 545.41902941 446 476.48293487 446 368 c 0
 446 259.516794108 422.2319616 190.581327095 392.89987142 146.583191825 c 0
 376.183103444 122.06526546 357.881228892 104.743075724 340.433096772 93.1109876445 c 0
 317.729792733 77.5771480384 296.384549034 72 282 72 c 2
 154 72 l 2
 143.699291841 72 130 81.4727636587 130 96 c 2
 130 640 l 2
EndSplineSet
EndChar

StartChar: E
Encoding: 69 69 37
Width: 556
Flags: HW
AnchorPoint: "above" 278 784 basechar 0
AnchorPoint: "bottom" 278 48 basechar 0
LayerCount: 2
Back
SplineSet
116.799804688 388 m 0
 345.599609375 388 l 1024
448 688 m 0
 115.200195312 688 l 0
 115.200195312 48 l 0
 460.799804688 48 l 1024
EndSplineSet
Fore
SplineSet
53 688 m 2
 53 725.158077991 77.6863864131 760 115 760 c 2
 448 760 l 2
 487.219278886 760 510 722.069496089 510 688 c 0
 510 653.600615595 487.295362604 616 448 616 c 2
 178 616 l 1
 178 460 l 1
 346 460 l 2
 385.219278886 460 408 422.069496089 408 388 c 0
 408 353.600615595 385.295362604 316 346 316 c 2
 178 316 l 1
 178 120 l 1
 461 120 l 2
 500.219278886 120 523 82.0694960893 523 48 c 0
 523 13.6006155952 500.295362604 -24 461 -24 c 2
 115 -24 l 2
 75.780721114 -24 53 13.9305039107 53 48 c 2
 53 688 l 2
101 688 m 2
 101 48 l 2
 101 30.0694960893 112.219278886 24 115 24 c 2
 461 24 l 2
 463.704637396 24 475 30.3993844048 475 48 c 0
 475 65.9305039107 463.780721114 72 461 72 c 2
 154 72 l 2
 143.699291841 72 130 81.4727636587 130 96 c 2
 130 340 l 2
 130 350.300708159 139.472763659 364 154 364 c 2
 346 364 l 2
 348.704637396 364 360 370.399384405 360 388 c 0
 360 405.930503911 348.780721114 412 346 412 c 2
 154 412 l 2
 143.699291841 412 130 421.472763659 130 436 c 2
 130 640 l 2
 130 650.300708159 139.472763659 664 154 664 c 2
 448 664 l 2
 450.704637396 664 462 670.399384405 462 688 c 0
 462 705.930503911 450.780721114 712 448 712 c 2
 115 712 l 2
 112.313613587 712 101 706.841922009 101 688 c 2
EndSplineSet
EndChar

StartChar: F
Encoding: 70 70 38
Width: 531
Flags: HW
AnchorPoint: "above" 266 784 basechar 0
LayerCount: 2
Back
SplineSet
115.200195312 48 m 0
 115.200195312 688 l 0
 435.200195312 688 l 1024
116.799804688 388 m 0
 352 388 l 1024
EndSplineSet
Fore
SplineSet
53 688 m 2
 53 725.158077991 77.6863864131 760 115 760 c 2
 435 760 l 2
 473.673299152 760 498 722.900860409 498 688 c 0
 498 652.786157474 473.684365192 616 435 616 c 2
 178 616 l 1
 178 460 l 1
 352 460 l 2
 391.219278886 460 414 422.069496089 414 388 c 0
 414 353.600615595 391.295362604 316 352 316 c 2
 178 316 l 1
 178 48 l 2
 178 12.786157474 153.684365192 -24 115 -24 c 0
 75.780721114 -24 53 13.9305039107 53 48 c 2
 53 688 l 2
101 688 m 2
 101 48 l 2
 101 30.0694960893 112.219278886 24 115 24 c 0
 118.315634808 24 130 31.213842526 130 48 c 2
 130 340 l 2
 130 350.300708159 139.472763659 364 154 364 c 2
 352 364 l 2
 354.704637396 364 366 370.399384405 366 388 c 0
 366 405.930503911 354.780721114 412 352 412 c 2
 154 412 l 2
 143.699291841 412 130 421.472763659 130 436 c 2
 130 640 l 2
 130 650.300708159 139.472763659 664 154 664 c 2
 435 664 l 2
 438.315634808 664 450 671.213842526 450 688 c 0
 450 705.099139591 438.326700848 712 435 712 c 2
 115 712 l 2
 112.313613587 712 101 706.841922009 101 688 c 2
EndSplineSet
EndChar

StartChar: G
Encoding: 71 71 39
Width: 537
Flags: HW
AnchorPoint: "above" 294 784 basechar 0
LayerCount: 2
Back
SplineSet
438.400390625 576 m 0
 438.400390625 576 403.200195312 696 294.400390625 696 c 0
 184.826171875 696 96 549.149414062 96 368 c 0
 96 186.850585938 185.599609375 40 294.400390625 40 c 0
 396.799804688 40 441.599609375 152 441.599609375 152 c 0
 441.599609375 344 l 0
 307.200195312 344 l 1024
EndSplineSet
Fore
SplineSet
442 416 m 2
 484.213697046 416 504 374.664214525 504 344 c 2
 504 152 l 2
 504 142.736359987 502.607276425 132.157460144 498.05948072 121.545936834 c 0
 497.935362191 121.256326933 497.741351923 120.833575079 497.646972959 120.636182331 c 0
 494.17343912 112.780210018 470.239574522 52.7147080936 412.399747162 8.79928361687 c 0
 382.184874602 -13.5821034649 342.355318561 -32 294 -32 c 0
 240.381625593 -32 192.516382941 -7.36139480811 154.277143578 29.7852948594 c 0
 77.9024387893 103.977865225 34 230.256607312 34 368 c 0
 34 505.743385294 77.9024369679 632.022133005 154.277143578 706.214705141 c 0
 192.516509242 743.361517501 240.3814024 768 294 768 c 0
 343.983831618 768 385.782433126 749.490486479 416.464263697 723.354112289 c 0
 443.177845995 701.092793707 462.016123966 674.407973344 473.984969725 652.646435601 c 0
 488.335138314 627.021134549 495.450824375 604.672817044 496.575026788 601.186243816 c 0
 500.177024054 591.399935067 501 584.576124457 501 576 c 0
 501 540.786157474 476.684365192 504 438 504 c 0
 408.710341635 504 386.167961179 526.323939634 378.875570169 552.576547269 c 0
 378.785367451 552.901277052 378.612752861 553.610441144 378.610817394 553.618677653 c 0
 377.264598495 557.635786638 372.002140838 570.730173437 364.091859562 582.595595351 c 0
 348.993797454 604.798627863 330.125577746 624 294 624 c 0
 274.64430126 624 255.598613262 615.790464099 234.696882986 595.759639251 c 0
 194.164049622 556.089206597 158 470.862452054 158 368 c 0
 158 265.133648196 194.155599823 179.919063419 234.696882986 140.240360749 c 0
 255.59803116 120.210093749 274.644555474 112 294 112 c 0
 327.912911676 112 349.983947526 130.274419716 367.072701279 152.759622023 c 0
 372.650527661 159.731905001 375.990750211 165.304209966 379 170.834723091 c 2
 379 272 l 1
 307 272 l 2
 267.780721114 272 245 309.930503911 245 344 c 0
 245 378.399384405 267.704637396 416 307 416 c 2
 442 416 l 2
442 368 m 2
 307 368 l 2
 304.295362604 368 293 361.600615595 293 344 c 0
 293 326.069496089 304.219278886 320 307 320 c 2
 403 320 l 2
 413.300708159 320 427 310.527236341 427 296 c 2
 427 165 l 2
 427 161.536462103 426.124330371 157.583029281 424.466252584 154.266873708 c 0
 420.183414985 145.701198511 413.843108859 134.385140649 404.927298721 123.240377977 c 0
 384.016052474 95.7255802838 348.087088324 64 294 64 c 0
 259.355444526 64 228.40196884 79.7899062513 201.303117014 105.759639251 c 0
 147.844400177 158.080936581 110 254.866351804 110 368 c 0
 110 481.137547946 147.835950378 577.910793403 201.303117014 630.240360749 c 0
 228.401386738 656.209535901 259.35569874 672 294 672 c 0
 351.874422254 672 385.006202546 637.201372137 403.908140438 609.404404649 c 0
 417.5250957 588.978971755 422.999102293 573.774021471 425.377065932 564.574717693 c 0
 428.210571653 555.836395173 435.228035285 552 438 552 c 0
 441.315634808 552 453 559.213842526 453 576 c 0
 453 579.367235973 452.300588825 582.626550251 451.716559419 584.086623768 c 0
 451.593206506 584.39500605 451.373276053 584.985507996 451.231600847 585.410533616 c 0
 450.077281733 588.873490956 445.043563602 606.088326316 432.015030275 629.353564399 c 0
 421.983876034 647.592026656 406.822154005 668.907206293 385.535736303 686.645887711 c 0
 362.217566874 706.509513521 332.016168382 720 294 720 c 0
 255.6185976 720 219.483490758 702.638482499 187.722856422 671.785294859 c 0
 124.097563032 609.977866995 82 496.256614706 82 368 c 0
 82 239.743392688 124.097561211 126.022134775 187.722856422 64.2147051406 c 0
 219.483617059 33.3613948081 255.618374407 16 294 16 c 0
 329.644681439 16 359.815125398 29.5821034649 383.600252838 47.2007163831 c 0
 430.609161095 82.8926652448 450.769645873 133.500094037 454.089653212 140.808933723 c 0
 455.160959822 143.475968809 456 147.42028634 456 152 c 2
 456 344 l 2
 456 361.335785475 445.786302954 368 442 368 c 2
EndSplineSet
EndChar

StartChar: H
Encoding: 72 72 40
Width: 569
Flags: HW
AnchorPoint: "above" 285 784 basechar 0
LayerCount: 2
Back
SplineSet
116.799804688 388 m 0
 452.799804688 388 l 1024
454.400390625 688 m 0
 454.400390625 48 l 1024
115.200195312 48 m 0
 115.200195312 688 l 1024
EndSplineSet
Fore
SplineSet
392 688 m 2
 392 722.399384405 414.704637396 760 454 760 c 0
 492.673299152 760 517 722.900860409 517 688 c 2
 517 48 l 2
 517 12.786157474 492.684365192 -24 454 -24 c 0
 414.780721114 -24 392 13.9305039107 392 48 c 2
 392 316 l 1
 178 316 l 1
 178 48 l 2
 178 12.786157474 153.684365192 -24 115 -24 c 0
 75.780721114 -24 53 13.9305039107 53 48 c 2
 53 688 l 2
 53 722.399384405 75.7046373961 760 115 760 c 0
 153.673299152 760 178 722.900860409 178 688 c 2
 178 460 l 1
 392 460 l 1
 392 688 l 2
440 688 m 2
 440 436 l 2
 440 425.699291841 430.527236341 412 416 412 c 2
 154 412 l 2
 143.699291841 412 130 421.472763659 130 436 c 2
 130 688 l 2
 130 705.099139591 118.326700848 712 115 712 c 0
 112.295362604 712 101 705.600615595 101 688 c 2
 101 48 l 2
 101 30.0694960893 112.219278886 24 115 24 c 0
 118.315634808 24 130 31.213842526 130 48 c 2
 130 340 l 2
 130 350.300708159 139.472763659 364 154 364 c 2
 416 364 l 2
 426.300708159 364 440 354.527236341 440 340 c 2
 440 48 l 2
 440 30.0694960893 451.219278886 24 454 24 c 0
 457.315634808 24 469 31.213842526 469 48 c 2
 469 688 l 2
 469 705.099139591 457.326700848 712 454 712 c 0
 451.295362604 712 440 705.600615595 440 688 c 2
EndSplineSet
EndChar

StartChar: I
Encoding: 73 73 41
Width: 268
Flags: HW
HStem: 0 21G<123.803 144.997> 716 20G<123.803 144.997>
VStem: 96 77<7.56638 728.434>
AnchorPoint: "above" 134 784 basechar 0
LayerCount: 2
Back
SplineSet
134.400390625 688 m 0
 134.400390625 48 l 1024
EndSplineSet
Fore
SplineSet
72 688 m 2
 72 722.399384405 94.7046373961 760 134 760 c 0
 172.673299152 760 197 722.900860409 197 688 c 2
 197 48 l 2
 197 12.786157474 172.684365192 -24 134 -24 c 0
 94.780721114 -24 72 13.9305039107 72 48 c 2
 72 688 l 2
120 688 m 2
 120 48 l 2
 120 30.0694960893 131.219278886 24 134 24 c 0
 137.315634808 24 149 31.213842526 149 48 c 2
 149 688 l 2
 149 705.099139591 137.326700848 712 134 712 c 0
 131.295362604 712 120 705.600615595 120 688 c 2
EndSplineSet
EndChar

StartChar: J
Encoding: 74 74 42
Width: 435
Flags: HW
AnchorPoint: "above" 218 784 basechar 0
LayerCount: 2
Back
SplineSet
76.7998046875 280 m 0
 76.7998046875 216 l 0
 76.7998046875 216 l 0
 76.7998046875 118.797851562 131.2421875 40 198.400390625 40 c 0
 265.557617188 40 320 129.54296875 320 240 c 0
 320 688 l 1024
EndSplineSet
Fore
SplineSet
14 280 m 2
 14 315.213842526 38.3156348081 352 77 352 c 0
 116.219278886 352 139 314.069496089 139 280 c 2
 139 216 l 2
 139 172.10353054 157.340600132 137.607315443 174.610587667 122.231021745 c 0
 184.315532035 114.321408851 191.132946909 112 198 112 c 0
 204.583907928 112 210.755007664 113.696133161 219.202588232 122.143713729 c 0
 238.027156138 140.215298918 258 184.037540931 258 240 c 2
 258 688 l 2
 258 722.399384405 280.704637396 760 320 760 c 0
 359.219278886 760 382 722.069496089 382 688 c 2
 382 240 l 2
 382 149.438182511 354.133842993 63.9283925913 299.605728718 11.6722830772 c 0
 272.207109588 -14.5847269218 237.297032114 -32 198 -32 c 0
 160.487173881 -32 127.791633732 -17.0673601473 100.635574408 5.56268928966 c 0
 45.6565412786 51.3785502309 14 130.387009229 14 216 c 2
 14 280 l 2
62 280 m 2
 62 216 l 2
 62 141.612990771 90.3434587214 76.6214497691 131.364425592 42.4373107103 c 0
 152.208366268 25.0673601473 173.512826119 16 198 16 c 0
 222.702967886 16 245.792890412 26.5847269218 266.394271282 46.3277169228 c 0
 307.866157007 86.0716074087 334 158.561817489 334 240 c 2
 334 688 l 2
 334 705.930503911 322.780721114 712 320 712 c 0
 317.295362604 712 306 705.600615595 306 688 c 2
 306 240 l 2
 306 173.962459069 283.972843862 117.784701082 252.797411768 87.8562862711 c 0
 237.244992336 72.3038668389 217.416092072 64 198 64 c 0
 176.739644666 64 158.670834246 73.0333060916 143.41347037 85.7477759879 c 0
 112.715591966 112.608419591 91 159.74172801 91 216 c 2
 91 280 l 2
 91 297.930503911 79.780721114 304 77 304 c 0
 73.6843651919 304 62 296.786157474 62 280 c 2
EndSplineSet
EndChar

StartChar: K
Encoding: 75 75 43
Width: 537
Flags: HW
AnchorPoint: "above" 269 784 basechar 0
LayerCount: 2
Back
SplineSet
460.799804688 48 m 0
 241.599609375 434 l 1024
448 688 m 0
 116.799804688 282 l 1024
115.200195312 688 m 0
 115.200195312 48 l 1024
EndSplineSet
Fore
SplineSet
523 48 m 0
 523 13.6006155952 500.295362604 -24 461 -24 c 0
 437.354331743 -24 419.32433289 -9.33009291795 409.20385129 8.01930411128 c 2
 232.501739138 318.614253822 l 1
 178 251.484062933 l 1
 178 48 l 2
 178 12.786157474 153.684365192 -24 115 -24 c 0
 75.780721114 -24 53 13.9305039107 53 48 c 2
 53 688 l 2
 53 722.399384405 75.7046373961 760 115 760 c 0
 153.673299152 760 178 722.900860409 178 688 c 2
 178 461.499667503 l 1
 402.656848785 737.482612827 l 2
 413.347847474 749.700897043 428.336336663 760 448 760 c 0
 487.219278886 760 510 722.069496089 510 688 c 0
 510 670.03584041 504.733563467 653.137138455 493.784023148 639.059158045 c 2
 320.960479762 426.571194865 l 1
 512.881378176 87.8308091646 l 2
 513.076129738 87.4870726568 513.335403899 86.9948236625 513.466252584 86.733126292 c 0
 518.849939025 75.9657534104 523 62.7601268237 523 48 c 0
475 48 m 0
 475 53.0757297508 473.313444919 59.5200733962 470.778468617 64.7695612463 c 2
 271.118621824 417.169190835 l 2
 266.517799792 425.289641723 267.103737979 436.425794162 273.38086003 444.143567175 c 2
 456.204574966 668.926823243 l 2
 459.221879178 672.969559581 462 679.888808718 462 688 c 0
 462 705.930503911 450.780721114 712 448 712 c 0
 447.55167338 712 443.300285278 710.847021502 439.300831457 706.465398857 c 2
 172.612841967 378.848692667 l 2
 168.773626447 374.132353002 162.452914147 370.591032677 155.882970051 370.073980193 c 0
 155.266711785 370.025480866 154.653712538 370.001668106 154.044917584 370.001668106 c 0
 141.067208887 370.001668106 130 380.822576046 130 394 c 2
 130 688 l 2
 130 705.099139591 118.326700848 712 115 712 c 0
 112.295362604 712 101 705.600615595 101 688 c 2
 101 48 l 2
 101 30.0694960893 112.219278886 24 115 24 c 0
 118.315634808 24 130 31.213842526 130 48 c 2
 130 260 l 2
 130 265.036423305 131.887717634 270.841052689 135.367622405 275.127276859 c 2
 217.367622405 376.127276859 l 2
 217.955690253 376.85160433 220.673477166 379.604845796 222.532152327 380.864971157 c 0
 226.582037321 383.610670295 231.219246431 384.911103131 235.822076346 384.911103131 c 0
 244.196988562 384.911103131 252.458083979 380.605850906 256.860385299 372.867785185 c 2
 450.79614871 31.9806958887 l 2
 454.67566711 25.330092918 458.645668257 24 461 24 c 0
 463.704637396 24 475 30.3993844048 475 48 c 0
EndSplineSet
EndChar

StartChar: L
Encoding: 76 76 44
Width: 524
Flags: HW
AnchorPoint: "above" 262 784 basechar 0
LayerCount: 2
Back
SplineSet
115.200195312 688 m 0
 115.200195312 48 l 0
 448 48 l 1024
EndSplineSet
Fore
SplineSet
53 688 m 2
 53 722.399384405 75.7046373961 760 115 760 c 0
 153.673299152 760 178 722.900860409 178 688 c 2
 178 120 l 1
 448 120 l 2
 487.219278886 120 510 82.0694960893 510 48 c 0
 510 13.6006155952 487.295362604 -24 448 -24 c 2
 115 -24 l 2
 75.780721114 -24 53 13.9305039107 53 48 c 2
 53 688 l 2
101 688 m 2
 101 48 l 2
 101 30.0694960893 112.219278886 24 115 24 c 2
 448 24 l 2
 450.704637396 24 462 30.3993844048 462 48 c 0
 462 65.9305039107 450.780721114 72 448 72 c 2
 154 72 l 2
 143.699291841 72 130 81.4727636587 130 96 c 2
 130 688 l 2
 130 705.099139591 118.326700848 712 115 712 c 0
 112.295362604 712 101 705.600615595 101 688 c 2
EndSplineSet
EndChar

StartChar: M
Encoding: 77 77 45
Width: 664
Flags: HW
AnchorPoint: "above" 332 784 basechar 0
LayerCount: 2
Back
SplineSet
115.200195312 48 m 0
 115.200195312 688 l 0
 147.200195312 688 l 0
 332.799804688 48 l 0
 518.400390625 688 l 0
 550.400390625 688 l 0
 550.400390625 48 l 1024
EndSplineSet
Fore
SplineSet
53 688 m 2
 53 725.158077991 77.6863864131 760 115 760 c 2
 147 760 l 2
 176.462027276 760 199.13467247 736.993281596 206.130084587 710.410715549 c 2
 332.922914671 275.088665597 l 1
 458.864445477 710.389929793 l 2
 465.866830061 736.998991212 488.53590785 760 518 760 c 2
 550 760 l 2
 567.641215263 760 585.208317994 751.82389144 596.944453217 736.734574724 c 0
 607.936610572 722.601800982 613 705.044764509 613 688 c 2
 613 48 l 2
 613 12.786157474 588.684365192 -24 550 -24 c 0
 510.780721114 -24 488 13.9305039107 488 48 c 2
 488 356.107038443 l 1
 392.087922702 25.4451216025 l 2
 385.228004967 0.749417757947 364.22509874 -24 333 -24 c 0
 303.537079368 -24 280.868011953 -1.00348240072 273.866532032 25.6021412992 c 2
 178 356.107038443 l 1
 178 48 l 2
 178 12.786157474 153.684365192 -24 115 -24 c 0
 75.780721114 -24 53 13.9305039107 53 48 c 2
 53 688 l 2
101 688 m 2
 101 48 l 2
 101 30.0694960893 112.219278886 24 115 24 c 0
 118.315634808 24 130 31.213842526 130 48 c 2
 130 525 l 2
 130 534.812366342 136.260964335 543.957810963 145.5262988 547.454317802 c 0
 148.238946006 548.478003407 151.034026386 548.960135947 153.792748817 548.960135947 c 0
 164.160362513 548.960135947 174.01447559 542.15074851 177.049924086 531.685880617 c 2
 320.133467968 38.3978587008 l 2
 323.131988047 27.0034824007 330.462920632 24 333 24 c 0
 335.77490126 24 342.771995033 27.2505822421 345.912077298 38.5548783975 c 2
 488.950075914 531.685880617 l 2
 491.683588828 541.109809754 500.244426477 548.149049094 510.117029949 548.926019807 c 0
 510.733288215 548.974519134 511.346287462 548.998331894 511.955082416 548.998331894 c 0
 524.932791113 548.998331894 536 538.177423954 536 525 c 2
 536 48 l 2
 536 30.0694960893 547.219278886 24 550 24 c 0
 553.315634808 24 565 31.213842526 565 48 c 2
 565 688 l 2
 565 694.955235491 562.063389428 703.398199018 559.055546783 707.265425276 c 0
 556.791682006 710.17610856 552.358784737 712 550 712 c 2
 518 712 l 2
 515.46409215 712 508.133169939 709.001008788 505.135554523 697.610070207 c 2
 356.054486063 182.329867139 l 2
 354.071273673 175.475139752 348.583633936 169.237779311 341.498568662 166.555082297 c 0
 338.778463083 165.525138488 335.974797332 165.040093798 333.207561994 165.040093798 c 0
 322.849555429 165.040093798 313.00196484 171.835914751 309.957496009 182.288591071 c 2
 159.869915413 697.589284451 l 2
 156.86532753 709.006718404 149.537972724 712 147 712 c 2
 115 712 l 2
 112.313613587 712 101 706.841922009 101 688 c 2
EndSplineSet
EndChar

StartChar: N
Encoding: 78 78 46
Width: 576
Flags: HW
AnchorPoint: "above" 288 784 basechar 0
LayerCount: 2
Back
SplineSet
115.200195312 48 m 0
 115.200195312 688 l 0
 147.200195312 688 l 0
 435.200195312 48 l 0
 460.799804688 48 l 0
 460.799804688 688 l 1024
EndSplineSet
Fore
SplineSet
53 688 m 2
 53 725.158077991 77.6863864131 760 115 760 c 2
 147 760 l 2
 172.966880373 760 192.870796017 742.315535475 202.823401126 720.988524526 c 2
 398 286.092949442 l 1
 398 688 l 2
 398 723.213842526 422.315634808 760 461 760 c 0
 500.219278886 760 523 722.069496089 523 688 c 2
 523 48 l 2
 523 13.6006155952 500.295362604 -24 461 -24 c 2
 435 -24 l 2
 408.534275163 -24 389.722477743 -5.44397924588 380.182092482 14.9997034565 c 2
 178 464.202658931 l 1
 178 48 l 2
 178 12.786157474 153.684365192 -24 115 -24 c 0
 75.780721114 -24 53 13.9305039107 53 48 c 2
 53 688 l 2
101 688 m 2
 101 48 l 2
 101 30.0694960893 112.219278886 24 115 24 c 0
 118.315634808 24 130 31.213842526 130 48 c 2
 130 576 l 2
 130 584.0611424 134.668097509 592.771896851 142.462897619 597.045077064 c 0
 146.042515953 599.007456346 149.934397338 599.92977416 153.787009909 599.92977416 c 0
 162.954011053 599.92977416 171.898685469 594.70792295 175.885372872 585.850403761 c 2
 423.817907518 35.0002965435 l 2
 428.277522257 25.4439792459 433.465724837 24 435 24 c 2
 461 24 l 2
 463.704637396 24 475 30.3993844048 475 48 c 2
 475 688 l 2
 475 705.930503911 463.780721114 712 461 712 c 0
 457.684365192 712 446 704.786157474 446 688 c 2
 446 174 l 2
 446 165.804802863 441.285322389 157.191649704 433.514314134 152.942446248 c 0
 429.940670672 150.98837058 426.057295374 150.069995155 422.213214614 150.069995155 c 0
 413.037080098 150.069995155 404.084852095 155.303044024 400.103976799 164.173293126 c 2
 159.176598874 701.011475474 l 2
 155.129203983 709.684464525 149.033119627 712 147 712 c 2
 115 712 l 2
 112.313613587 712 101 706.841922009 101 688 c 2
EndSplineSet
EndChar

StartChar: O
Encoding: 79 79 47
Width: 588
Flags: HW
HStem: -8 96<232.434 356.366> 648 96<232.434 356.366>
VStem: 58 77<242.362 493.638> 454 77<242.362 493.638>
AnchorPoint: "above" 294 784 basechar 0
AnchorPoint: "middle" 294 368 basechar 0
LayerCount: 2
Back
SplineSet
492.799804688 368 m 0
 492.799804688 186.850585938 403.973632812 40 294.400390625 40 c 0
 184.826171875 40 96 186.850585938 96 368 c 0
 96 549.149414062 184.826171875 696 294.400390625 696 c 0
 403.973632812 696 492.799804688 549.149414062 492.799804688 368 c 0
EndSplineSet
Fore
SplineSet
555 368 m 0
 555 230.256614706 511.097563032 103.977866995 434.722856422 29.7852948594 c 0
 396.32360074 -7.51683923246 347.541405801 -32 294 -32 c 0
 240.381625593 -32 192.516382941 -7.36139480811 154.277143578 29.7852948594 c 0
 77.9024387893 103.977865225 34 230.256607312 34 368 c 0
 34 505.743385294 77.9024369679 632.022133005 154.277143578 706.214705141 c 0
 192.516509242 743.361517501 240.3814024 768 294 768 c 0
 347.540995828 768 396.323854936 743.516592299 434.722856422 706.214705141 c 0
 511.097561211 632.022134775 555 505.743392688 555 368 c 0
507 368 m 0
 507 496.256607312 464.902438789 609.977865225 401.277143578 671.785294859 c 0
 369.676145064 702.483407701 332.459004172 720 294 720 c 0
 255.6185976 720 219.483490758 702.638482499 187.722856422 671.785294859 c 0
 124.097563032 609.977866995 82 496.256614706 82 368 c 0
 82 239.743392688 124.097561211 126.022134775 187.722856422 64.2147051406 c 0
 219.483617059 33.3613948081 255.618374407 16 294 16 c 0
 332.458594199 16 369.67639926 33.5168392325 401.277143578 64.2147051406 c 0
 464.902436968 126.022133005 507 239.743385294 507 368 c 0
430 368 m 0
 430 471.047467427 394.716811624 556.205810484 354.303117014 595.759639251 c 0
 333.656222352 615.546246635 313.485791046 624 294 624 c 0
 274.64430126 624 255.598613262 615.790464099 234.696882986 595.759639251 c 0
 194.164049622 556.089206597 158 470.862452054 158 368 c 0
 158 265.133648196 194.155599823 179.919063419 234.696882986 140.240360749 c 0
 255.59803116 120.210093749 274.644555474 112 294 112 c 0
 313.486116679 112 333.655609761 120.453166298 354.303117014 140.240360749 c 0
 394.708471368 179.786026712 430 264.95616978 430 368 c 0
478 368 m 0
 478 255.04383022 441.291528632 158.213973288 387.696882986 105.759639251 c 0
 360.344390239 79.5468337016 328.513883321 64 294 64 c 0
 259.355444526 64 228.40196884 79.7899062513 201.303117014 105.759639251 c 0
 147.844400177 158.080936581 110 254.866351804 110 368 c 0
 110 481.137547946 147.835950378 577.910793403 201.303117014 630.240360749 c 0
 228.401386738 656.209535901 259.35569874 672 294 672 c 0
 328.514208954 672 360.343777648 656.453753365 387.696882986 630.240360749 c 0
 441.283188376 577.794189516 478 480.952532573 478 368 c 0
EndSplineSet
EndChar

StartChar: P
Encoding: 80 80 48
Width: 544
Flags: HW
AnchorPoint: "above" 272 784 basechar 0
LayerCount: 2
Back
SplineSet
115.200195312 48 m 0
 115.200195312 688 l 0
 307.200195312 688 l 0
 384 688 448 632 448 520 c 0
 448 408 384 352 307.200195312 352 c 0
 116 352 l 1024
EndSplineSet
Fore
SplineSet
154 664 m 2
 307 664 l 2
 340.244888791 664 369.191442202 653.132117724 390.991040225 633.897178292 c 0
 418.065731137 609.401029371 434 571.795333529 434 520 c 0
 434 468.208335863 418.062647453 430.596180629 390.991040225 406.102821708 c 0
 369.161901382 386.841816847 340.286179717 376 307 376 c 2
 154 376 l 2
 139.472763659 376 130 389.699291841 130 400 c 2
 130 640 l 2
 130 654.527236341 143.699291841 664 154 664 c 2
178 616 m 1
 178 424 l 1
 307 424 l 2
 329.713820283 424 346.838098618 431.158183153 359.008959775 441.897178292 c 0
 373.937352547 455.403819371 386 477.791664137 386 520 c 0
 386 562.204666471 373.934268863 584.598970629 359.008959775 598.102821708 c 0
 346.808557798 608.867882276 329.755111209 616 307 616 c 2
 178 616 l 1
115 712 m 2
 112.216311521 712 101 707.023655641 101 688 c 2
 101 48 l 2
 101 30.3993844048 112.295362604 24 115 24 c 0
 118.326700848 24 130 30.9008604088 130 48 c 2
 130 304 l 2
 130 318.527236341 143.699291841 328 154 328 c 2
 307 328 l 2
 342.971550456 328 376.718561254 339.165430459 403.926755061 363.822856097 c 0
 437.101922906 393.595442624 462 444.289358306 462 520 c 0
 462 595.701858836 437.088502373 646.416601444 403.926755061 676.177143903 c 0
 376.718185759 700.834909833 342.971846844 712 307 712 c 2
 115 712 l 2
115 760 m 2
 307 760 l 2
 353.028153156 760 399.281814241 745.165090167 436.073244939 711.822856097 c 0
 480.911497627 671.583398556 510 606.298141164 510 520 c 0
 510 433.710641694 480.898077094 368.404557376 436.073244939 328.177143903 c 0
 399.281438746 294.834569541 353.028449544 280 307 280 c 2
 178 280 l 1
 178 48 l 2
 178 13.0991395912 153.673299152 -24 115 -24 c 0
 75.7046373961 -24 53 13.6006155952 53 48 c 2
 53 688 l 2
 53 724.976344359 77.7836884787 760 115 760 c 2
EndSplineSet
EndChar

StartChar: Q
Encoding: 81 81 49
Width: 588
Flags: HW
AnchorPoint: "above" 294 784 basechar 0
LayerCount: 2
Back
SplineSet
336.923828125 170.032226562 m 0
 387.200195312 136 371.200195312 16 456 3 c 1024
492.799804688 368 m 0
 492.799804688 186.850585938 403.973632812 40 294.400390625 40 c 0
 184.826171875 40 96 186.850585938 96 368 c 0
 96 549.149414062 184.826171875 696 294.400390625 696 c 0
 403.973632812 696 492.799804688 549.149414062 492.799804688 368 c 0
EndSplineSet
Fore
SplineSet
362.25297736 -18.2624725106 m 1
 339.997385401 -27.4196688658 318.004694445 -32 294 -32 c 0
 240.381625593 -32 192.516382941 -7.36139480811 154.277143578 29.7852948594 c 0
 77.9024387893 103.977865225 34 230.256607312 34 368 c 0
 34 505.743385294 77.9024369679 632.022133005 154.277143578 706.214705141 c 0
 192.516509242 743.361517501 240.3814024 768 294 768 c 0
 347.540995828 768 396.323854936 743.516592299 434.722856422 706.214705141 c 0
 511.097561211 632.022134775 555 505.743392688 555 368 c 0
 555 253.813144874 524.851115059 148.581030712 471.712657722 73.1277602241 c 1
 502.544098341 63.839519232 518 32.741274539 518 3 c 0
 518 -31.3993844048 495.295362604 -69 456 -69 c 2
 451 -69 l 2
 449.728504355 -69 448.013549339 -68.8333083443 447.054424305 -68.673454172 c 0
 411.227112181 -62.7022354847 381.62036172 -42.5584971715 362.25297736 -18.2624725106 c 1
358.569204435 33.1030071969 m 0
 362.031991516 34.9786835326 365.914180489 35.8956810377 369.807154012 35.8956810377 c 0
 377.145393438 35.8956810377 384.521952633 32.6373964888 389.2 26.4 c 0
 392.779208055 21.6277225932 396.982280793 15.3569589428 399.096408239 12.538122348 c 0
 412.282759981 -4.52656814164 429.526623228 -16.4254110531 453.091469014 -21 c 1
 456 -21 l 2
 458.704637396 -21 470 -14.6006155952 470 3 c 0
 470 19.4535769262 460.102553643 26.8443748205 457.431199925 27.2661675129 c 0
 438.507061034 29.9696159259 424.69109388 40.1488793102 416.777841543 49.3810070371 c 0
 413.091327234 53.6819403982 411.141591412 59.3448611994 411.141591412 65.0662178016 c 0
 411.141591412 70.5863406579 412.956585535 76.1608609531 416.777841543 80.6189929629 c 0
 471.852127311 144.872326358 507 250.459432661 507 368 c 0
 507 496.256607312 464.902438789 609.977865225 401.277143578 671.785294859 c 0
 369.676145064 702.483407701 332.459004172 720 294 720 c 0
 255.6185976 720 219.483490758 702.638482499 187.722856422 671.785294859 c 0
 124.097563032 609.977866995 82 496.256614706 82 368 c 0
 82 239.743392688 124.097561211 126.022134775 187.722856422 64.2147051406 c 0
 219.483617059 33.3613948081 255.618374407 16 294 16 c 0
 316.73630712 16 337.561724571 21.7239556038 358.569204435 33.1030071969 c 0
275 170 m 0
 275 204.399384405 297.704637396 242 337 242 c 0
 348.795780445 242 360.472811997 237.849523958 369.740748863 230.970230614 c 0
 380.775310555 223.070923937 390.25504425 213.259419314 397.199865674 204.4130298 c 1
 417.457287266 249.424392747 430 305.047264886 430 368 c 0
 430 471.047467427 394.716811624 556.205810484 354.303117014 595.759639251 c 0
 333.656222352 615.546246635 313.485791046 624 294 624 c 0
 274.64430126 624 255.598613262 615.790464099 234.696882986 595.759639251 c 0
 194.164049622 556.089206597 158 470.862452054 158 368 c 0
 158 265.133648196 194.155599823 179.919063419 234.696882986 140.240360749 c 0
 255.59803116 120.210093749 274.644555474 112 294 112 c 0
 295.847999182 112 299.395085637 112.194146243 300.093294695 112.251290992 c 1
 283.639671775 126.252038233 275 147.547659369 275 170 c 0
379.761395675 140.297478828 m 0
 377.653935398 143.338316254 374.525039355 148.156447148 373.880750997 149.686631999 c 0
 367.094769629 165.803337747 356.387535925 181.732991375 341.236903735 192.338433908 c 0
 340.94010971 192.546189725 340.388582091 192.954137988 340.007318859 193.259148573 c 0
 339.444431514 193.709458449 339.350267119 194 337 194 c 0
 334.295362604 194 323 187.600615595 323 170 c 0
 323 158.733940558 328.392104549 150.583007171 332.312804709 147.969207064 c 0
 341.900099315 141.577677327 346.172973833 133.319683794 351.466252584 122.733126292 c 0
 355.610189371 114.445252718 356.300789105 108.992296529 357.768399153 104.589466384 c 0
 358.518205725 102.34004667 358.885520452 99.9394215312 358.885520452 97.5045018787 c 0
 358.885520452 88.6546055508 354.033245092 79.3516742332 345.057396259 75.208974772 c 0
 328.864909943 67.7355195492 311.426262395 64 294 64 c 0
 259.355444526 64 228.40196884 79.7899062513 201.303117014 105.759639251 c 0
 147.844400177 158.080936581 110 254.866351804 110 368 c 0
 110 481.137547946 147.835950378 577.910793403 201.303117014 630.240360749 c 0
 228.401386738 656.209535901 259.35569874 672 294 672 c 0
 328.514208954 672 360.343777648 656.453753365 387.696882986 630.240360749 c 0
 441.283188376 577.794189516 478 480.952532573 478 368 c 0
 478 277.814543448 454.231807728 197.630062714 418.030625757 142.779787 c 0
 414.46227554 137.373195762 406.159793014 133.065712709 397.351896121 133.065712709 c 0
 391.264473341 133.065712709 384.935632327 135.123242176 379.761395675 140.297478828 c 0
EndSplineSet
EndChar

StartChar: R
Encoding: 82 82 50
Width: 563
Flags: HW
AnchorPoint: "above" 282 784 basechar 0
LayerCount: 2
Back
SplineSet
115.200195312 48 m 0
 115.200195312 688 l 0
 326.400390625 688 l 0
 403.200195312 688 467.200195312 648 467.200195312 536 c 0
 467.200195312 424 403.200195312 384 326.400390625 384 c 0
 116 384 l 1024
457.599609375 48 m 0
 342.400390625 383 l 1024
EndSplineSet
Fore
SplineSet
178 616 m 1
 178 456 l 1
 326 456 l 2
 351.919320777 456 371.832020276 463.124015207 382.741168839 471.305876629 c 0
 389.018938747 475.871527471 393.700050841 482.616754604 398.459473988 494.274638789 c 0
 402.169949368 505.717533405 405 517.326098698 405 536 c 0
 405 554.693801593 401.760901418 567.543947161 398.459473988 577.725361211 c 0
 393.17796534 590.662058421 389.165648303 596.021774669 382.741168839 600.694123371 c 0
 371.7884153 608.908688525 351.984026091 616 326 616 c 2
 178 616 l 1
130 640 m 2
 130 650.300708159 139.472763659 664 154 664 c 2
 326 664 l 2
 360.015973909 664 390.2115847 655.091311475 411.258831161 639.305876629 c 0
 426.797801873 628.00480702 436.485227986 611.90890772 443.283440581 594.913376232 c 0
 443.406793494 594.60499395 443.626723947 594.014492004 443.768399153 593.589466384 c 0
 448.297795309 580.001277916 453 560.915441129 453 536 c 0
 453 511.084539416 448.297806 491.998754156 443.768399153 478.410533616 c 0
 443.663367932 478.095439953 443.449829673 477.502596497 443.283440581 477.086623768 c 0
 436.486406983 460.094039773 426.794499502 443.992791255 411.258831161 432.694123371 c 0
 390.167979724 416.875984793 360.080679223 408 326 408 c 2
 154 408 l 2
 143.699291841 408 130 417.472763659 130 432 c 2
 130 640 l 2
115 760 m 2
 326 760 l 2
 368.066920328 760 413.104768987 751.211889984 451.379487552 722.215891071 c 0
 478.738468555 701.994035547 500.341751159 670.538383778 513.479571559 634.409377677 c 0
 524.627734306 605.424154535 530 571.280921375 530 536 c 0
 530 500.715336591 524.629651616 466.580830471 513.479571559 437.590622323 c 0
 500.355018302 401.498100867 478.66463737 369.951393577 451.450551839 349.836634707 c 0
 443.578160628 343.78094916 432.997160446 337.751702199 426.079249883 334.414771832 c 1
 515.728030793 74.7105714642 l 2
 518.587546792 66.1320234682 520 57.3658420243 520 48 c 0
 520 13.6006155952 497.295362604 -24 458 -24 c 0
 429.250814055 -24 407.891429242 -3.13674169447 399.329311913 21.1225907382 c 2
 299.843553045 312 l 1
 178 312 l 1
 178 48 l 2
 178 12.786157474 153.684365192 -24 115 -24 c 0
 75.780721114 -24 53 13.9305039107 53 48 c 2
 53 688 l 2
 53 725.158077991 77.6863864131 760 115 760 c 2
115 712 m 2
 112.313613587 712 101 706.841922009 101 688 c 2
 101 48 l 2
 101 30.0694960893 112.219278886 24 115 24 c 0
 118.315634808 24 130 31.213842526 130 48 c 2
 130 336 l 2
 130 346.300708159 139.472763659 360 154 360 c 2
 317 360 l 2
 325.892787597 360 336.262827819 353.84134357 339.708531728 343.766761666 c 2
 444.670688087 36.8774092618 l 2
 448.108570758 27.1367416945 454.749185945 24 458 24 c 0
 460.704637396 24 472 30.3993844048 472 48 c 0
 472 52.6341579756 471.412453208 55.8679765318 470.271969207 59.2894285358 c 2
 373.313623562 340.168759735 l 2
 372.527712438 342.44547134 372.142739816 344.894593083 372.142739816 347.387155671 c 0
 372.142739816 356.854037922 377.69604641 366.947562999 387.927926472 370.601805878 c 0
 401.144240315 375.321917965 412.098122806 380.123884251 422.549448161 388.163365293 c 0
 441.33536263 402.048606423 457.644981698 424.501899133 468.520428441 454.409377677 c 0
 477.370348384 477.419169529 482 505.284663409 482 536 c 0
 482 566.719078625 477.372265694 594.575845465 468.520428441 617.590622323 c 0
 457.658248841 647.461616222 441.261531445 670.005964453 422.620512448 683.784108929 c 0
 394.895231013 704.788110016 361.933079672 712 326 712 c 2
 115 712 l 2
EndSplineSet
EndChar

StartChar: S
Encoding: 83 83 51
Width: 537
Flags: HW
AnchorPoint: "above" 269 784 basechar 0
AnchorPoint: "bottom" 269 40 basechar 0
LayerCount: 2
Back
SplineSet
428.799804688 576 m 0
 428.799804688 576 396.799804688 696 268.799804688 696 c 0
 179.200195312 696 108.799804688 640 108.799804688 544 c 0
 108.799804688 483.973632812 140.606445312 410.435546875 281.599609375 384 c 0
 409.599609375 360 441.599609375 283.774414062 441.599609375 216 c 0
 441.599609375 120 377.599609375 40 268.799804688 40 c 0
 140.799804688 40 96 168 96 168 c 1024
EndSplineSet
Fore
SplineSet
491 576 m 0
 491 541.600615595 468.295362604 504 429 504 c 0
 399.031025642 504 375.996116336 526.509720941 368.790211106 553.892160817 c 0
 368.636906213 554.474719408 368.423116375 555.509949898 368.372080113 555.788873748 c 0
 367.686772819 557.923824181 365.849148067 562.507630296 363.789537249 566.759533717 c 0
 358.848066165 575.620695276 352.769602334 585.415529609 345.441394238 593.638173466 c 0
 330.234491482 609.525856251 309.808437887 624 269 624 c 0
 229.360186201 624 197.905999809 608.890303835 183.559525342 588.087915857 c 0
 175.516181463 577.119719658 171 564.130782051 171 544 c 0
 171 535.710740064 171.997071079 529.151614519 173.662429086 523.907334531 c 0
 176.657032263 515.913751417 181.67400196 507.44319612 191.70381546 497.235521626 c 0
 207.179936018 482.730883153 236.138057563 464.896293411 291.479704726 454.578359194 c 0
 356.793517156 441.936976143 407.044491726 418.158080131 443.524789942 379.397763276 c 0
 488.92936957 330.587840177 504 268.374914964 504 216 c 0
 504 141.100056297 475.794663802 71.276218409 423.974756327 25.0889095728 c 0
 382.532773712 -11.8728587051 329.357107147 -32 269 -32 c 0
 100.277948345 -32 41.381326461 133.124388572 38.683030444 140.170764144 c 0
 38.493639647 140.652424399 38.3321739717 141.108814241 38.2316008468 141.410533616 c 0
 35.4615364996 149.720726657 34 158.704231951 34 168 c 0
 34 202.399384405 56.7046373961 240 96 240 c 0
 124.571544863 240 144.736953292 219.821932958 153.626482065 196.040817485 c 0
 159.523984583 181.160837965 172.515990262 159.425135235 184.970562748 146.970562748 c 0
 203.827961368 128.113164129 229.385891751 112 269 112 c 0
 305.56581381 112 330.285737834 123.766644155 346.976364012 138.867686888 c 0
 368.501524172 158.001162585 379 183.51087375 379 216 c 0
 379 239.47414651 374.511569181 256.800665447 358.595452861 273.474692068 c 0
 345.731214146 287.095650708 319.772745296 304.142406283 271.448098519 313.435607587 c 0
 201.744609253 326.960165205 148.774134935 350.424562678 111.351383763 386.713291087 c 0
 85.6451626007 411.301850459 67.368178998 440.8699791 57.1404983224 472.689430091 c 0
 49.3151767758 497.283297809 46 521.593618034 46 544 c 0
 46 595.369697938 60.2137748477 642.41894343 86.4909714496 678.978521311 c 0
 126.202005688 734.573969245 192.030710528 768 269 768 c 0
 353.752837798 768 415.237291861 724.698437169 452.703856762 670.702505399 c 0
 477.953816062 634.474302926 486.760646078 602.911950704 488.283420003 596.820855001 c 0
 488.371371835 596.469047676 488.48129669 595.969984875 488.533936217 595.706787243 c 0
 489.52851251 590.733905778 491 584.195601044 491 576 c 0
443 576 m 0
 443 577.878497751 442.639033041 580.405115404 441.597515982 585.635948846 c 0
 440.661020757 589.129840756 433.166128747 614.788384957 413.310443998 643.276976119 c 0
 382.749697061 687.320405527 336.252154305 720 269 720 c 0
 205.976910577 720 155.778913169 693.399317155 125.529603309 651.050283351 c 0
 105.764277429 623.550699518 94 586.643467737 94 544 c 0
 94 526.385764182 96.6714060309 506.758870513 102.87021872 487.276887775 c 0
 110.619624819 463.167624358 124.366229245 440.687252992 144.648616237 421.286708913 c 0
 173.231669546 393.569808735 216.234063922 373.043972835 280.571459241 360.560597624 c 0
 336.210782394 349.860727787 372.272213002 328.900720548 393.404547139 306.525307932 c 0
 419.488430819 279.199334553 427 246.52585349 427 216 c 0
 427 172.48912625 411.498475828 131.998837415 379.023635988 103.132313112 c 0
 353.714262166 80.2333558452 316.43418619 64 269 64 c 0
 214.614108249 64 176.172038632 87.8868358708 151.029437252 113.029437252 c 0
 131.535156723 132.52371778 117.001297653 157.779950325 108.49444259 179.654720486 c 0
 104.717128307 190.357110954 99.7975775317 192 96 192 c 0
 93.2953626039 192 82 185.600615595 82 168 c 0
 82 163.469506947 82.4505540656 160.748160595 83.6168941142 157.053045265 c 0
 87.7095285054 146.299599467 138.103279355 16 269 16 c 0
 318.642892853 16 359.467226288 31.8728587051 392.025243673 60.9110904272 c 0
 432.205336198 96.723781591 456 152.899943703 456 216 c 0
 456 259.625085036 443.07063043 309.412159823 408.475210058 346.602236724 c 0
 380.955508274 375.841919869 341.206482844 396.063023857 282.520295274 407.421640806 c 0
 220.081010736 419.062863347 181.724735877 440.569191708 158.258727316 462.800147187 c 0
 142.463751075 478.595123429 133.822678737 493.009434009 128.334142481 508.102908713 c 0
 124.073909689 520.883607089 123 532.259429065 123 544 c 0
 123 571.873133706 129.497457579 595.06528648 144.465818341 615.951694869 c 0
 170.547305371 652.929186536 218.291419111 672 269 672 c 0
 324.016605222 672 358.930281559 649.192486785 380.592572657 626.326735071 c 0
 393.248778899 612.404908205 400.341818636 599.803751132 406.233033916 589.199563627 c 0
 412.176989631 577.311652198 413.459255352 573.921461031 415.568200024 564.862787295 c 0
 418.292842539 555.951375394 424.929531492 552 429 552 c 0
 431.704637396 552 443 558.399384405 443 576 c 0
EndSplineSet
EndChar

StartChar: T
Encoding: 84 84 52
Width: 550
Flags: HW
AnchorPoint: "above" 275 784 basechar 0
AnchorPoint: "bottom" 275 48 basechar 0
LayerCount: 2
Back
SplineSet
275.200195312 686 m 0
 275.200195312 48 l 1024
76.7998046875 688 m 0
 473.599609375 688 l 1024
EndSplineSet
Fore
SplineSet
77 616 m 2
 38.3267008484 616 14 653.099139591 14 688 c 0
 14 723.213842526 38.3156348081 760 77 760 c 2
 474 760 l 2
 513.219278886 760 536 722.069496089 536 688 c 0
 536 653.600615595 513.295362604 616 474 616 c 2
 338 616 l 1
 338 48 l 2
 338 12.786157474 313.684365192 -24 275 -24 c 0
 235.780721114 -24 213 13.9305039107 213 48 c 2
 213 616 l 1
 77 616 l 2
77 664 m 2
 237 664 l 2
 247.300708159 664 261 654.527236341 261 640 c 2
 261 48 l 2
 261 30.0694960893 272.219278886 24 275 24 c 0
 278.315634808 24 290 31.213842526 290 48 c 2
 290 640 l 2
 290 650.300708159 299.472763659 664 314 664 c 2
 474 664 l 2
 476.704637396 664 488 670.399384405 488 688 c 0
 488 705.930503911 476.780721114 712 474 712 c 2
 77 712 l 2
 73.6843651919 712 62 704.786157474 62 688 c 0
 62 670.900860409 73.6732991516 664 77 664 c 2
EndSplineSet
EndChar

StartChar: U
Encoding: 85 85 53
Width: 569
Flags: HW
AnchorPoint: "above" 285 784 basechar 0
LayerCount: 2
Back
SplineSet
454.400390625 688 m 0
 454.400390625 216 l 0
 454.400390625 118.797851562 378.466796875 40 284.799804688 40 c 0
 191.1328125 40 115.200195312 118.797851562 115.200195312 216 c 0
 115.200195312 216 l 0
 115.200195312 688 l 1024
EndSplineSet
Fore
SplineSet
392 688 m 2
 392 722.399384405 414.704637396 760 454 760 c 0
 492.673299152 760 517 722.900860409 517 688 c 2
 517 216 l 2
 517 168.945606325 504.934815274 124.734533227 483.837726111 88.0922204719 c 0
 442.081898414 14.4701032161 368.219042966 -32 285 -32 c 0
 201.781817544 -32 127.920112442 14.4665577599 86.1622738888 88.0922204719 c 0
 65.0654024285 124.734155114 53 168.945911007 53 216 c 2
 53 688 l 2
 53 722.399384405 75.7046373961 760 115 760 c 0
 153.673299152 760 178 722.900860409 178 688 c 2
 178 216 l 2
 178 197.597433459 181.779518814 182.554282194 190.89008911 166.817842592 c 0
 208.053152615 135.760870536 243.217325768 112 285 112 c 0
 326.779025545 112 361.952879015 135.771784914 379.10991089 166.817842592 c 0
 388.231289063 182.572950345 392 197.583579344 392 216 c 2
 392 688 l 2
440 688 m 2
 440 216 l 2
 440 190.416420656 433.768710937 165.427049655 420.89008911 143.182157408 c 0
 396.047120985 98.2282150857 345.220974455 64 285 64 c 0
 224.782674232 64 173.946847385 98.2391294642 149.10991089 143.182157408 c 0
 136.220481186 165.445717806 130 190.402566541 130 216 c 2
 130 688 l 2
 130 705.099139591 118.326700848 712 115 712 c 0
 112.295362604 712 101 705.600615595 101 688 c 2
 101 216 l 2
 101 177.054088993 110.934597572 141.265844886 127.837726111 111.907779528 c 0
 162.079887558 51.5334422401 220.218182456 16 285 16 c 0
 349.780957034 16 407.918101586 51.5298967839 442.162273889 111.907779528 c 0
 459.065184726 141.265466773 469 177.054393675 469 216 c 2
 469 688 l 2
 469 705.099139591 457.326700848 712 454 712 c 0
 451.295362604 712 440 705.600615595 440 688 c 2
EndSplineSet
EndChar

StartChar: V
Encoding: 86 86 54
Width: 550
Flags: HW
AnchorPoint: "above" 275 784 basechar 0
LayerCount: 2
Back
SplineSet
76.7998046875 688 m 0
 268.799804688 48 l 0
 281.599609375 48 l 0
 473.599609375 688 l 1024
EndSplineSet
Fore
SplineSet
14 688 m 0
 14 723.213842526 38.3156348081 760 77 760 c 0
 106.271335584 760 128.884271276 737.488023528 136.061818363 711.648854016 c 2
 275.070735408 246.569637729 l 1
 414.943619168 711.668429126 l 2
 422.110122476 737.467841037 444.730781191 760 474 760 c 0
 513.219278886 760 536 722.069496089 536 688 c 0
 536 682.540501013 535.849914505 672.233405827 532.691657168 663.116405154 c 2
 340.938100144 23.9378817407 l 2
 332.637841142 -2.34627176417 311.127498337 -24 282 -24 c 2
 269 -24 l 2
 239.874556383 -24 218.360897874 -2.34227864798 210.061899856 23.9378817407 c 2
 18.2852653149 663.193330212 l 2
 14.9896307554 672.147278519 14 679.636970787 14 688 c 0
62 688 m 0
 62 684.632764027 62.6994111748 681.373449749 63.2834405812 679.913376232 c 0
 63.471878498 679.44228144 63.7923425052 678.547977054 63.9878308453 677.896349254 c 2
 255.938100144 38.0621182593 l 2
 259.639102126 26.342278648 266.125443617 24 269 24 c 2
 282 24 l 2
 284.872501663 24 291.362158858 26.3462717642 295.061899856 38.0621182593 c 2
 487.012169155 677.896349254 l 2
 487.138662898 678.317995063 487.414128779 679.139969879 487.640349439 679.720439365 c 0
 487.66531712 679.83604416 488 683.058652707 488 688 c 0
 488 705.930503911 476.780721114 712 474 712 c 0
 471.269218809 712 463.889877524 708.532158963 461.056380832 698.331570874 c 2
 297.98315721 156.088091097 l 2
 296.133335598 149.937150524 290.70315761 143.340381174 283.655912905 140.615291564 c 0
 280.888744644 139.545258977 278.03065625 139.041557489 275.209439733 139.041557489 c 0
 264.912244524 139.041557489 255.106251498 145.751801141 252.005174909 156.127007999 c 2
 89.9381816369 698.351145984 l 2
 87.1157287236 708.511976472 79.7286644162 712 77 712 c 0
 73.6843651919 712 62 704.786157474 62 688 c 0
EndSplineSet
EndChar

StartChar: W
Encoding: 87 87 55
Width: 697
Flags: HW
AnchorPoint: "above" 349 784 basechar 0
LayerCount: 2
Back
SplineSet
76.7998046875 688 m 0
 211.200195312 48 l 0
 224 48 l 0
 345.599609375 688 l 0
 352 688 l 0
 473.599609375 48 l 0
 486.400390625 48 l 0
 620.799804688 688 l 1024
EndSplineSet
Fore
SplineSet
14 688 m 0
 14 723.213842526 38.3156348081 760 77 760 c 0
 109.586013709 760 132.093829693 733.27274407 137.534243203 704.710573142 c 2
 214.81097428 336.509678013 l 1
 284.403457899 703.383097093 l 2
 289.934562341 733.804171524 313.733885934 760 346 760 c 2
 352 760 l 2
 384.795907087 760 407.221458863 732.946054901 412.592271337 703.406586298 c 2
 483.061872222 335.903828992 l 1
 560.465756797 704.710573142 l 2
 565.905599297 733.269746268 588.413553924 760 621 760 c 0
 660.219278886 760 683 722.069496089 683 688 c 0
 683 684.330699384 683.064607235 677.303893927 681.395733208 670.628397816 c 2
 547.53532203 31.2950906963 l 2
 541.827264141 1.32778678392 517.019653822 -24 486 -24 c 2
 474 -24 l 2
 441.738561374 -24 417.935552176 2.19038437976 412.402296812 32.6232888828 c 2
 348.865272798 368.566174474 l 1
 284.593199491 32.5985185508 l 2
 279.220910507 3.05092913673 256.799708348 -24 224 -24 c 2
 211 -24 l 2
 179.441041396 -24 156.016247809 2.14934904571 150.46467797 31.2950906963 c 2
 16.6064768578 670.617842279 l 2
 15.30656573 675.853847941 14 680.318367627 14 688 c 0
62 688 m 0
 62 687.726365062 62.1324291876 686.424818264 63.3957332076 681.371602184 c 2
 197.53532203 40.7049093037 l 2
 199.983752191 27.8506509543 208.558958604 24 211 24 c 2
 224 24 l 2
 227.200291652 24 234.779089493 26.9490708633 237.406800509 41.4014814492 c 2
 325.427470178 501.509527444 l 2
 327.110114 510.305165607 333.903257726 517.766737393 342.703515618 520.15932392 c 0
 344.745008653 520.714358646 346.802728584 520.978188387 348.832934157 520.978188387 c 0
 360.041477794 520.978188387 370.411377267 512.936595297 372.58193893 501.460062363 c 2
 459.597703188 41.3767111172 l 2
 462.064447824 27.8096156202 470.261438626 24 474 24 c 2
 486 24 l 2
 488.980346178 24 498.172735859 28.6722132161 500.46467797 40.7049093037 c 2
 634.604266792 681.371602184 l 2
 634.935392765 682.696106073 635 683.669300616 635 688 c 0
 635 705.930503911 623.780721114 712 621 712 c 0
 617.586446076 712 610.094400703 708.730253732 607.534243203 695.289426858 c 2
 505.488266989 209.070363718 l 2
 503.688473037 200.494874891 496.992208032 193.228408629 488.355065819 190.85668264 c 0
 486.295117196 190.291028681 484.217872876 190.022236087 482.168435639 190.022236087 c 0
 470.982602734 190.022236087 460.625136924 198.029510406 458.42942216 209.48028095 c 2
 365.407728663 694.593413702 l 2
 362.778541137 709.053945099 355.204092913 712 352 712 c 2
 346 712 l 2
 342.266114066 712 334.065437659 708.195828476 331.596542101 694.616902907 c 2
 239.579523114 209.527183244 l 2
 238.015504032 201.282082651 231.508394309 193.538682084 222.757261608 190.970900678 c 0
 220.571116214 190.329435889 218.359418034 190.02525012 216.177468313 190.02525012 c 0
 205.147325257 190.02525012 194.87739871 197.798662446 192.511733011 209.070363718 c 2
 90.4657567968 695.289426858 l 2
 87.906170307 708.72725593 80.4139862912 712 77 712 c 0
 73.6843651919 712 62 704.786157474 62 688 c 0
EndSplineSet
EndChar

StartChar: X
Encoding: 88 88 56
Width: 505
Flags: HW
AnchorPoint: "above" 253 784 basechar 0
LayerCount: 2
Back
SplineSet
76.7998046875 48 m 0
 428.799804688 688 l 1024
76.7998046875 688 m 0
 428.799804688 48 l 1024
EndSplineSet
Fore
SplineSet
77 -24 m 0
 38.3267008484 -24 14 13.0991395912 14 48 c 0
 14 63.1026007772 18.24999243 75.16561632 23.7420094455 86.149650351 c 2
 178.615409765 368 l 1
 23.7420094455 649.850349649 l 2
 18.24999243 660.83438368 14 672.897399223 14 688 c 0
 14 723.213842526 38.3156348081 760 77 760 c 0
 100.76055593 760 119.27711455 744.679037756 129.065678839 726.500275506 c 2
 252.92728147 502.695172821 l 1
 375.917670837 726.469353474 l 2
 386.207445605 745.578935188 405.717556878 760 429 760 c 0
 468.219278886 760 491 722.069496089 491 688 c 0
 491 672.897399223 486.75000757 660.83438368 481.257990554 649.850349649 c 2
 326.384590235 368 l 1
 481.257990554 86.149650351 l 2
 486.75000757 75.16561632 491 63.1026007772 491 48 c 0
 491 13.6006155952 468.295362604 -24 429 -24 c 0
 404.567412432 -24 386.394382005 -8.45017711466 376.114966411 9.17167818845 c 2
 252.92728147 233.304827179 l 1
 128.867335591 9.1413387634 l 2
 119.143474023 -7.52813821006 101.89925206 -24 77 -24 c 0
77 24 m 0
 78.187202333 24 82.3354628634 24.955627396 87.1268981757 32.8482422493 c 2
 232.001350247 294.62139013 l 2
 233.415254196 297.1761683 236.587261135 300.934090851 239.825593047 303.060782672 c 0
 243.809123218 305.67686443 248.329636643 306.913773652 252.814676289 306.913773652 c 0
 261.312635347 306.913773652 269.683242884 302.473246566 274.03257072 294.559886197 c 2
 417.874465229 32.8475503555 l 2
 421.762858245 26.4775802859 427.32016493 24 429 24 c 0
 431.704637396 24 443 30.3993844048 443 48 c 0
 443 53.0608535205 441.727914925 57.7088370543 438.729942237 63.8723104687 c 2
 277.966272818 356.44221817 l 2
 274.187314556 363.31945277 274.006992416 372.352383335 277.966272818 379.55778183 c 2
 438.729942237 672.127689531 l 2
 441.216944364 677.240668562 443 683.053631335 443 688 c 0
 443 705.930503911 431.780721114 712 429 712 c 0
 426.282443122 712 421.792554395 710.421064812 418.082329163 703.530646526 c 2
 274.03257072 441.440113803 l 2
 272.626149581 438.881208675 269.465154076 435.114019095 266.233059959 432.977859153 c 0
 262.236102861 430.336184951 257.692370884 429.086766642 253.183904241 429.086766642 c 0
 244.710453194 429.086766642 236.36157142 433.500141268 232.001350247 441.37860987 c 2
 86.9343211611 703.499724494 l 2
 82.7228854496 711.320962244 79.23944407 712 77 712 c 0
 73.6843651919 712 62 704.786157474 62 688 c 0
 62 682.939146479 63.2720850746 678.291162946 66.2700577626 672.127689531 c 2
 227.033727182 379.55778183 l 2
 230.812685444 372.68054723 230.993007584 363.647616665 227.033727182 356.44221817 c 2
 66.2700577626 63.8723104687 l 2
 63.783055636 58.7593314378 62 52.9463686648 62 48 c 0
 62 30.9008604088 73.6732991516 24 77 24 c 0
EndSplineSet
EndChar

StartChar: Y
Encoding: 89 89 57
Width: 524
Flags: HW
AnchorPoint: "above" 262 784 basechar 0
AnchorPoint: "middle" 262 368 basechar 0
LayerCount: 2
Back
SplineSet
262.400390625 384 m 0
 262.400390625 48 l 1024
76.7998046875 688 m 0
 262.400390625 384 l 0
 448 688 l 1024
EndSplineSet
Fore
SplineSet
14 688 m 0
 14 723.213842526 38.3156348081 760 77 760 c 0
 98.8366056635 760 117.42117997 746.766356586 127.610741938 729.298536069 c 2
 262 509.073558343 l 1
 396.630891684 729.694503424 l 2
 407.30687542 746.471049296 425.382299136 760 448 760 c 0
 487.219278886 760 510 722.069496089 510 688 c 0
 510 674.297543158 507.571593255 659.431439775 499.41322562 646.378051559 c 2
 325 361.241823157 l 1
 325 48 l 2
 325 12.786157474 300.684365192 -24 262 -24 c 0
 222.780721114 -24 200 13.9305039107 200 48 c 2
 200 361.241823157 l 1
 25.5867743795 646.378051559 l 2
 18.2448563623 658.125120386 14 672.682058971 14 688 c 0
62 688 m 0
 62 681.317941029 63.7551436377 675.874879614 66.4132256205 671.621948441 c 2
 244.47354483 380.5233367 l 2
 246.239978228 377.635515807 248 372.421846434 248 368 c 2
 248 48 l 2
 248 30.0694960893 259.219278886 24 262 24 c 0
 265.315634808 24 277 31.213842526 277 48 c 2
 277 368 l 2
 277 371.385232113 278.219110515 376.751217066 280.52645517 380.5233367 c 2
 458.58677438 671.621948441 l 2
 460.428406745 674.568560225 462 679.702456842 462 688 c 0
 462 705.930503911 450.780721114 712 448 712 c 0
 446.617700864 712 440.69312458 709.528950704 437.369108316 704.305496576 c 2
 282.486734868 450.498252344 l 2
 280.918213861 447.92790179 278.636511756 445.414237895 276.070540426 443.557266341 c 0
 271.891181309 440.532699815 267.009930031 439.094090804 262.160394588 439.094090804 c 0
 254.041818416 439.094090804 246.012128707 443.125921066 241.513265132 450.498252344 c 2
 86.3892580616 704.701463931 l 2
 82.5788200297 711.233643414 79.1633943365 712 77 712 c 0
 73.6843651919 712 62 704.786157474 62 688 c 0
EndSplineSet
EndChar

StartChar: Z
Encoding: 90 90 58
Width: 505
Flags: HW
AnchorPoint: "above" 253 784 basechar 0
LayerCount: 2
Back
SplineSet
83.2001953125 688 m 0
 422.400390625 688 l 0
 76.7998046875 48 l 0
 428.799804688 48 l 1024
EndSplineSet
Fore
SplineSet
422 760 m 2
 463.677763202 760 485 719.490090622 485 688 c 0
 485 672.69185384 480.5103206 659.019514561 474.981622829 649.344293461 c 2
 189.229393616 120 l 1
 429 120 l 2
 468.219278886 120 491 82.0694960893 491 48 c 0
 491 13.6006155952 468.295362604 -24 429 -24 c 2
 77 -24 l 2
 35.322236798 -24 14 16.5099093783 14 48 c 0
 14 63.3081461597 18.4896793996 76.9804854391 24.018377171 86.6557065391 c 2
 309.770606384 616 l 1
 83 616 l 2
 43.780721114 616 21 653.930503911 21 688 c 0
 21 722.399384405 43.7046373961 760 83 760 c 2
 422 760 l 2
422 712 m 2
 83 712 l 2
 80.2953626039 712 69 705.600615595 69 688 c 0
 69 670.069496089 80.219278886 664 83 664 c 2
 350 664 l 2
 352.34457709 664 356.690065775 663.283838946 359.708579024 661.948655844 c 0
 368.64213602 657.997063332 373.931156633 649.007346336 373.931156633 639.785730028 c 0
 373.931156633 635.984091778 373.032274516 632.143041667 371.119292121 628.599320182 c 2
 65.981622829 63.3442934609 l 2
 63.5103206004 59.0195145609 62 54.6918538403 62 48 c 0
 62 31.4900906217 72.677763202 24 77 24 c 2
 429 24 l 2
 431.704637396 24 443 30.3993844048 443 48 c 0
 443 65.9305039107 431.780721114 72 429 72 c 2
 149 72 l 2
 146.65542291 72 142.309934225 72.7161610535 139.291420976 74.0513441564 c 0
 130.35786398 78.0029366677 125.068843367 86.9926536643 125.068843367 96.2142699719 c 0
 125.068843367 100.015908222 125.967725484 103.856958333 127.880707879 107.400679818 c 2
 433.018377171 672.655706539 l 2
 435.4896794 676.980485439 437 681.30814616 437 688 c 0
 437 704.509909378 426.322236798 712 422 712 c 2
EndSplineSet
EndChar

StartChar: bracketleft
Encoding: 91 91 59
Width: 249
Flags: HW
LayerCount: 2
Back
SplineSet
185.599609375 768 m 0
 89.599609375 768 l 0
 89.599609375 -32 l 0
 185.599609375 -32 l 1024
EndSplineSet
Fore
SplineSet
27 768 m 2
 27 804.332250084 51.7125457481 840 90 840 c 2
 186 840 l 2
 225.219278886 840 248 802.069496089 248 768 c 0
 248 733.600615595 225.295362604 696 186 696 c 2
 152 696 l 1
 152 40 l 1
 186 40 l 2
 225.219278886 40 248 2.06949608928 248 -32 c 0
 248 -66.3993844048 225.295362604 -104 186 -104 c 2
 90 -104 l 2
 51.3267008484 -104 27 -66.9008604088 27 -32 c 2
 27 768 l 2
75 768 m 2
 75 -32 l 2
 75 -49.0991395912 86.6732991516 -56 90 -56 c 2
 186 -56 l 2
 188.704637396 -56 200 -49.6006155952 200 -32 c 0
 200 -14.0694960893 188.780721114 -8 186 -8 c 2
 128 -8 l 2
 117.699291841 -8 104 1.4727636587 104 16 c 2
 104 720 l 2
 104 730.300708159 113.472763659 744 128 744 c 2
 186 744 l 2
 188.704637396 744 200 750.399384405 200 768 c 0
 200 785.930503911 188.780721114 792 186 792 c 2
 90 792 l 2
 86.2874542519 792 75 785.667749916 75 768 c 2
EndSplineSet
EndChar

StartChar: backslash
Encoding: 92 92 60
Width: 460
Flags: HW
LayerCount: 2
Back
SplineSet
371.200195312 48 m 0
 89.599609375 688 l 1024
EndSplineSet
Fore
SplineSet
434 48 m 0
 434 12.786157474 409.684365192 -24 371 -24 c 0
 343.575424404 -24 325.450443838 -4.86104944974 316.142004808 15.0856056143 c 2
 33.9884451425 655.434109821 l 2
 29.8156711671 665.17058243 27 675.949188456 27 688 c 0
 27 723.213842526 51.3156348081 760 90 760 c 0
 117.155112541 760 136.223848319 741.392124102 145.292926364 719.927316548 c 2
 427.011554858 80.5658901793 l 2
 431.184328833 70.82941757 434 60.0508115439 434 48 c 0
386 48 m 0
 386 51.9491884561 384.815671167 57.17058243 382.988445142 61.4341098207 c 2
 100.870437416 701.701928774 l 2
 97.2141613497 710.84261894 93.2118428626 712 90 712 c 0
 86.6843651919 712 75 704.786157474 75 688 c 0
 75 684.050811544 76.1843288329 678.82941757 78.0115548575 674.565890179 c 2
 359.87295096 34.8804522166 l 2
 364.702755065 24.9214016398 368.304740906 24 371 24 c 0
 374.315634808 24 386 31.213842526 386 48 c 0
EndSplineSet
EndChar

StartChar: bracketright
Encoding: 93 93 61
Width: 249
Flags: HW
LayerCount: 2
Back
SplineSet
64 768 m 0
 160 768 l 0
 160 -32 l 0
 64 -32 l 1024
EndSplineSet
Fore
SplineSet
160 840 m 2
 202.213697046 840 222 798.664214525 222 768 c 2
 222 -32 l 2
 222 -66.3993844048 199.295362604 -104 160 -104 c 2
 64 -104 l 2
 24.780721114 -104 2 -66.0694960893 2 -32 c 0
 2 2.39938440484 24.7046373961 40 64 40 c 2
 98 40 l 1
 98 696 l 1
 64 696 l 2
 24.780721114 696 2 733.930503911 2 768 c 0
 2 802.399384405 24.7046373961 840 64 840 c 2
 160 840 l 2
160 792 m 2
 64 792 l 2
 61.2953626039 792 50 785.600615595 50 768 c 0
 50 750.069496089 61.219278886 744 64 744 c 2
 122 744 l 2
 132.300708159 744 146 734.527236341 146 720 c 2
 146 16 l 2
 146 5.69929184064 136.527236341 -8 122 -8 c 2
 64 -8 l 2
 61.2953626039 -8 50 -14.3993844048 50 -32 c 0
 50 -49.9305039107 61.219278886 -56 64 -56 c 2
 160 -56 l 2
 162.704637396 -56 174 -49.6006155952 174 -32 c 2
 174 768 l 2
 174 785.335785475 163.786302954 792 160 792 c 2
EndSplineSet
EndChar

StartChar: asciicircum
Encoding: 94 94 62
Width: 409
Flags: HW
LayerCount: 2
Back
SplineSet
89.599609375 448 m 0
 204.799804688 688 l 0
 320 448 l 1024
EndSplineSet
Fore
SplineSet
90 376 m 0
 51.3267008484 376 27 413.099139591 27 448 c 0
 27 462.507241761 31.0870241584 473.46257455 35.1388505664 482.916836168 c 2
 150.443559446 723.552750351 l 2
 160.536823398 743.739278255 179.834207257 760 205 760 c 0
 230.160852326 760 249.466351981 743.732927498 259.556440554 723.552750351 c 2
 374.861149434 482.916836168 l 2
 379.667211303 471.702691807 382 460.77267939 382 448 c 0
 382 413.600615595 359.295362604 376 320 376 c 0
 294.835743461 376 275.542891568 392.248585404 265.432975771 412.468416997 c 2
 205 539.230268615 l 1
 144.567024229 412.468416997 l 2
 134.453682847 392.241734234 115.169384541 376 90 376 c 0
90 424 m 0
 92.8306154589 424 97.5463171532 425.758265766 101.432975771 433.531583003 c 2
 183.336006074 605.328183151 l 2
 185.091355737 609.010136101 188.781475352 613.350115253 193.003959735 615.786895342 c 0
 196.702005898 617.921024077 200.766528243 618.925157568 204.792456728 618.925157568 c 0
 213.774581984 618.925157568 222.564599744 613.926912409 226.663993926 605.328183151 c 2
 308.567024229 433.531583003 l 2
 312.457108432 425.751414596 317.164256539 424 320 424 c 0
 322.704637396 424 334 430.399384405 334 448 c 0
 334 453.29236419 332.727047618 459.176305341 331.105680153 463.152389043 c 2
 216.443559446 702.447249649 l 2
 212.533648019 710.267072502 207.839147674 712 205 712 c 0
 202.165792743 712 197.463176602 710.260721745 193.556440554 702.447249649 c 2
 78.8721323178 463.106084633 l 2
 76.9348234679 458.481417482 75 451.527124483 75 448 c 0
 75 430.900860409 86.6732991516 424 90 424 c 0
EndSplineSet
EndChar

StartChar: underscore
Encoding: 95 95 63
Width: 460
Flags: HW
LayerCount: 2
Back
SplineSet
38.400390625 -96 m 0
 422.400390625 -96 l 1024
EndSplineSet
Fore
SplineSet
38 -168 m 2
 -1.21927888601 -168 -24 -130.069496089 -24 -96 c 0
 -24 -61.6006155952 -1.29536260389 -24 38 -24 c 2
 422 -24 l 2
 460.673299152 -24 485 -61.0991395912 485 -96 c 0
 485 -131.213842526 460.684365192 -168 422 -168 c 2
 38 -168 l 2
38 -120 m 2
 422 -120 l 2
 425.315634808 -120 437 -112.786157474 437 -96 c 0
 437 -78.9008604088 425.326700848 -72 422 -72 c 2
 38 -72 l 2
 35.2953626039 -72 24 -78.3993844048 24 -96 c 0
 24 -113.930503911 35.219278886 -120 38 -120 c 2
EndSplineSet
EndChar

StartChar: grave
Encoding: 96 96 64
Width: 307
Flags: HW
LayerCount: 2
Back
SplineSet
89.599609375 688 m 0
 217.599609375 480 l 1024
EndSplineSet
Fore
SplineSet
27 688 m 0
 27 723.213842526 51.3156348081 760 90 760 c 0
 113.082809316 760 130.258084201 745.583255606 140.344993393 729.732398304 c 2
 268.396125342 521.649308887 l 2
 275.77382408 509.844990905 280 495.331237553 280 480 c 0
 280 445.600615595 257.295362604 408 218 408 c 0
 195.390654431 408 177.285017333 421.563299127 166.655006607 438.267601696 c 2
 38.603874658 646.350691113 l 2
 31.2261759197 658.155009095 27 672.668762447 27 688 c 0
75 688 m 0
 75 681.331237553 76.7738240803 675.844990905 79.396125342 671.649308887 c 2
 207.344993393 463.732398304 l 2
 210.714982667 458.436700873 216.609345569 456 218 456 c 0
 220.704637396 456 232 462.399384405 232 480 c 0
 232 486.668762447 230.22617592 492.155009095 227.603874658 496.350691113 c 2
 99.6550066074 704.267601696 l 2
 95.7419157992 710.416744394 90.917190684 712 90 712 c 0
 86.6843651919 712 75 704.786157474 75 688 c 0
EndSplineSet
EndChar

StartChar: a
Encoding: 97 97 65
Width: 470
Flags: HW
AnchorPoint: "above" 235 576 basechar 0
LayerCount: 2
Back
SplineSet
354.400390625 360.18359375 m 0
 331.787109375 435.798828125 283.337890625 488 227.200195312 488 c 0
 149.438476562 488 86.400390625 387.711914062 86.400390625 264 c 0
 86.400390625 140.288085938 149.438476562 40 227.200195312 40 c 0
 283.322265625 40 331.774414062 92.2373046875 354.395507812 167.81640625 c 1024
355.200195312 480 m 0
 355.200195312 48 l 1024
354.400390625 360.18359375 m 0
 331.787109375 435.798828125 283.337890625 488 227.200195312 488 c 0
 149.438476562 488 86.400390625 387.711914062 86.400390625 264 c 0
 86.400390625 140.288085938 149.438476562 40 227.200195312 40 c 0
 283.322265625 40 331.774414062 92.2373046875 354.395507812 167.81640625 c 1024
EndSplineSet
Fore
SplineSet
293 182.869287503 m 1
 293 345.130712497 l 1
 274.741785187 397.905402027 245.968145104 416 227 416 c 0
 216.978403012 416 207.074907458 412.373991715 195.375638009 401.454673562 c 0
 172.165593468 379.791965324 149 327.887880419 149 264 c 0
 149 200.112111735 172.165623819 148.208006348 195.375638009 126.545326438 c 0
 207.074679023 115.626221491 216.978968381 112 227 112 c 0
 246.208964607 112 275.166263767 131.321537488 293 182.869287503 c 1
341 179 m 2
 341 176.967255034 340.595457595 173.974691854 339.844653389 171.643247214 c 0
 319.376229705 108.08340525 277.596001601 64 227 64 c 0
 203.021031619 64 180.925320977 74.3737785086 162.624361991 91.4546735622 c 0
 125.834376181 125.791993652 101 189.887888265 101 264 c 0
 101 338.112119581 125.834406532 402.208034676 162.624361991 436.545326438 c 0
 180.925092542 453.626008285 203.021596988 464 227 464 c 0
 277.602674758 464 319.37318031 419.926063924 339.844653389 356.356752786 c 0
 340.46775348 354.421863029 341 351.449355235 341 349 c 2
 341 179 l 2
312.788165704 533.438409351 m 1
 324.822364332 545.548626781 338.417344561 552 355 552 c 0
 393.673299152 552 418 514.900860409 418 480 c 2
 418 48 l 2
 418 12.786157474 393.684365192 -24 355 -24 c 0
 338.056303448 -24 323.209685728 -15.9257610508 312.788165704 -5.43840935078 c 1
 286.263069282 -22.9902853057 258.747097177 -32 227 -32 c 0
 184.836278682 -32 147.132464418 -13.7938276337 116.612102277 14.4657669414 c 0
 57.0968764637 70.6122063877 24 163.010948516 24 264 c 0
 24 364.988641059 57.0975148767 457.388395889 116.612102277 513.534233059 c 0
 147.143430635 541.803981539 184.824923504 560 227 560 c 0
 258.762843256 560 287.776796606 549.988639401 312.788165704 533.438409351 c 1
341.768399153 490.410533616 m 0
 341.157530746 488.577928395 339.537643072 485.28865612 337.85810289 483.155069707 c 0
 333.159930461 477.186795199 326.056773857 474.108132463 318.92921079 474.108132463 c 0
 313.111261467 474.108132463 307.277050569 476.159388374 302.721277534 480.364717329 c 0
 280.300768367 501.060571945 255.308560243 512 227 512 c 0
 199.175076496 512 172.856569365 500.196018461 149.387897723 478.465766941 c 0
 102.902485123 434.611604111 72 355.011358941 72 264 c 0
 72 172.989051484 102.903123536 93.3877936123 149.387897723 49.5342330586 c 0
 172.867535582 27.7938276337 199.163721318 16 227 16 c 0
 255.307159442 16 280.301244527 26.9398675875 302.721277534 47.6352826711 c 0
 304.140723446 48.9455404356 307.146901478 51.0446454387 309.647585969 52.1027679668 c 0
 312.620234256 53.3605940266 315.721432686 53.9517764063 318.784170443 53.9517764063 c 0
 328.811501037 53.9517764063 338.42657475 47.6149395951 341.768399153 37.5894663844 c 0
 345.422429162 26.6273763573 351.920387207 24 355 24 c 0
 358.315634808 24 370 31.213842526 370 48 c 2
 370 480 l 2
 370 497.099139591 358.326700848 504 355 504 c 0
 351.920533187 504 345.422396318 501.372525111 341.768399153 490.410533616 c 0
EndSplineSet
EndChar

StartChar: b
Encoding: 98 98 66
Width: 470
Flags: HW
LayerCount: 2
Back
SplineSet
115.200195312 688 m 0
 115.200195312 144 l 0
 115.200195312 80 108.799804688 48 108.799804688 48 c 1024
116 360.18359375 m 0
 138.612304688 435.798828125 187.061523438 488 243.200195312 488 c 0
 320.961914062 488 384 387.711914062 384 264 c 0
 384 140.288085938 320.961914062 40 243.200195312 40 c 0
 187.078125 40 138.625976562 92.2373046875 116.004882812 167.81640625 c 1024
EndSplineSet
Fore
SplineSet
178 345.134945619 m 1
 178 182.865054381 l 1
 196.323581911 129.761117518 224.231433829 112 243 112 c 0
 253.021596988 112 262.925092542 115.626008285 274.624361991 126.545326438 c 0
 298.039180535 148.399157078 322 200.396948631 322 264 c 0
 322 327.603055726 298.039149086 379.600872274 274.624361991 401.454673562 c 0
 262.925320977 412.373778509 253.021031619 416 243 416 c 0
 223.99971831 416 195.900283846 397.012113946 178 345.134945619 c 1
130 349 m 2
 130 351.032744966 130.404542405 354.025308146 131.155346611 356.356752786 c 0
 151.51715588 419.585528935 192.195130997 464 243 464 c 0
 266.978968381 464 289.074679023 453.626221491 307.375638009 436.545326438 c 0
 343.960850914 402.399127726 370 338.396944274 370 264 c 0
 370 189.603051369 343.960819465 125.600842922 307.375638009 91.4546735622 c 0
 289.074907458 74.3739917148 266.978403012 64 243 64 c 0
 192.187183097 64 151.520458259 108.404216307 131.155346611 171.643247214 c 0
 130.53224652 173.578136971 130 176.550644765 130 179 c 2
 130 349 l 2
53 688 m 2
 53 722.399384405 75.7046373961 760 115 760 c 0
 153.673299152 760 178 722.900860409 178 688 c 2
 178 544.904644772 l 1
 199.909864348 555.356552783 219.858877882 560 243 560 c 0
 285.163721318 560 322.867535582 541.793827634 353.387897723 513.534233059 c 0
 412.903123536 457.387793612 446 364.989051484 446 264 c 0
 446 163.011358941 412.902485123 70.6116041112 353.387897723 14.4657669414 c 0
 322.856569365 -13.8039815388 285.175076496 -32 243 -32 c 0
 209.895357913 -32 178.96625848 -20.5948359467 153.641818294 -2.81603987947 c 1
 141.419788086 -16.4884342255 127.049114693 -24 109 -24 c 0
 70.3267008484 -24 46 13.0991395912 46 48 c 0
 46 54.9241366498 48.0540204101 62.2599845971 48.2469656119 62.9987833185 c 0
 48.6732853643 67.3837864864 49.3035016306 73.35163754 50.0569392619 84.6532020093 c 0
 51.1062273363 99.3432350514 53 118.090693932 53 144 c 2
 53 688 l 2
101 688 m 2
 101 144 l 2
 101 115.909306068 98.8937726637 94.6567649486 97.9430607381 81.3467979907 c 0
 97.0935627379 68.6043279871 96.2015258504 60.3255124034 95.9699550835 57.7992858549 c 0
 95.9169397348 56.7595557268 95.6450070769 54.6254932927 95.2834200035 53.1791449991 c 0
 94.3610188225 49.489540275 94.0133515421 48.0784618288 93.9957929061 47.944153666 c 0
 94.3012657826 30.9342893244 105.457412447 24 109 24 c 0
 112.603567886 24 120.100139755 27.8771671005 122.466063783 39.7067872433 c 0
 123.01480997 42.4505181777 125.094459202 47.4772263621 127.750288256 50.5867899605 c 0
 132.454747358 56.0949813664 139.239760086 58.8897365015 146.035569945 58.8897365015 c 0
 152.182230181 58.8897365015 158.337723337 56.60340216 162.970562748 51.9705627485 c 0
 186.427975411 28.5131500859 213.250028671 16 243 16 c 0
 270.824923504 16 297.143430635 27.8039815388 320.612102277 49.5342330586 c 0
 367.097514877 93.3883958888 398 172.988641059 398 264 c 0
 398 355.010948516 367.096876464 434.612206388 320.612102277 478.465766941 c 0
 297.132464418 500.206172366 270.836278682 512 243 512 c 0
 216.570945929 512 192.401538594 501.927721142 169.901773173 482.0240825 c 0
 166.849474269 479.323971932 161.136079805 476.487398239 155.882970051 476.073980193 c 0
 155.266711785 476.025480866 154.653712538 476.001668106 154.044917584 476.001668106 c 0
 141.067208887 476.001668106 130 486.822576046 130 500 c 2
 130 688 l 2
 130 705.099139591 118.326700848 712 115 712 c 0
 112.295362604 712 101 705.600615595 101 688 c 2
EndSplineSet
EndChar

StartChar: c
Encoding: 99 99 67
Width: 422
Flags: HW
AnchorPoint: "above" 224 576 basechar 0
AnchorPoint: "bottom" 224 40 basechar 0
AnchorPoint: "middle" 224 264 basechar 0
LayerCount: 2
Back
SplineSet
336 133.853515625 m 0
 311.041992188 77.0341796875 270.180664062 40 224 40 c 0
 148.005859375 40 86.400390625 140.288085938 86.400390625 264 c 0
 86.400390625 387.711914062 148.005859375 488 224 488 c 0
 266.419921875 488 304.358398438 456.751953125 329.599609375 407.625 c 1024
EndSplineSet
Fore
SplineSet
336 206 m 0
 375.219278886 206 398 168.069496089 398 134 c 0
 398 124.009947707 396.966469236 112.995576704 392.009372253 101.429017076 c 0
 360.102497986 29.1067687377 302.000629749 -32 224 -32 c 0
 181.894204909 -32 143.957563567 -13.7540058236 114.36539081 14.7000064424 c 0
 55.9629478691 70.8562015778 24 164.211071087 24 264 c 0
 24 363.78892996 55.9629475903 457.143798154 114.36539081 513.299993558 c 0
 143.958971925 541.755360015 181.891156079 560 224 560 c 0
 294.813387074 560 350.437074593 507.061748417 382.543373057 446.492658539 c 0
 390.839531922 431.099856658 392 421.605208063 392 408 c 0
 392 373.600615595 369.295362604 336 330 336 c 0
 304.99372957 336 285.994441262 351.816644306 275.754393588 370.833875702 c 0
 257.760590017 405.921792665 237.463848634 416 224 416 c 0
 215.568780937 416 206.409552846 412.68632741 194.524136784 401.593272419 c 0
 172.20300674 380.041836515 149 328.818874241 149 264 c 0
 149 199.179636612 172.200879273 147.960217591 194.524136784 126.406727581 c 0
 206.398429692 115.3240542 215.579165184 112 224 112 c 0
 239.106457733 112 261.833387197 124.808484331 279.848580468 166.243428855 c 0
 288.587297486 188.090221399 309.725911117 206 336 206 c 0
336 158 m 0
 332.274088883 158 327.412702514 155.909778601 324.151419532 147.756571145 c 0
 302.166612803 97.1915156688 266.893542267 64 224 64 c 0
 200.420834816 64 179.601570308 74.6759458003 161.475863216 91.593272419 c 0
 125.799120727 126.039782409 101 188.820363388 101 264 c 0
 101 339.181125759 125.79699326 401.958163485 161.475863216 436.406727581 c 0
 179.590447154 453.31367259 200.431219063 464 224 464 c 0
 262.536151366 464 296.239409983 436.078207335 318.245606412 393.166124298 c 0
 322.005558738 386.183355694 327.00627043 384 330 384 c 0
 332.704637396 384 344 390.399384405 344 408 c 0
 344 415.073840397 342.714562916 419.375968407 340.951579305 422.461189726 c 0
 311.715308077 478.104415611 269.23885432 512 224 512 c 0
 196.108843921 512 170.041028075 500.244639985 147.63460919 478.700006442 c 0
 102.03705241 434.856201846 72 354.21107004 72 264 c 0
 72 173.788928913 102.037052131 93.1437984222 147.63460919 49.2999935576 c 0
 170.042436433 27.7540058236 196.105795091 16 224 16 c 0
 273.999370251 16 319.897502014 56.8932312623 347.990627747 120.570982924 c 0
 349.033530764 123.004423296 350 127.990052293 350 134 c 0
 350 151.930503911 338.780721114 158 336 158 c 0
EndSplineSet
EndChar

StartChar: d
Encoding: 100 100 68
Width: 473
Flags: HW
AnchorPoint: "above" 237 784 basechar 0
LayerCount: 2
Back
SplineSet
358.400390625 688 m 0
 358.400390625 144 l 0
 358.400390625 80 364.799804688 48 364.799804688 48 c 1024
357.599609375 360.18359375 m 0
 334.987304688 435.798828125 286.538085938 488 230.400390625 488 c 0
 152.638671875 488 89.599609375 387.711914062 89.599609375 264 c 0
 89.599609375 140.288085938 152.638671875 40 230.400390625 40 c 0
 286.521484375 40 334.974609375 92.2373046875 357.595703125 167.81640625 c 1024
EndSplineSet
Fore
SplineSet
296 182.869287503 m 1
 296 345.130712497 l 1
 277.741785187 397.905402027 248.968145104 416 230 416 c 0
 219.978403012 416 210.074907458 412.373991715 198.375638009 401.454673562 c 0
 175.165593468 379.791965324 152 327.887880419 152 264 c 0
 152 200.112111735 175.165623819 148.208006348 198.375638009 126.545326438 c 0
 210.074679023 115.626221491 219.978968381 112 230 112 c 0
 249.208964607 112 278.166263767 131.321537488 296 182.869287503 c 1
344 179 m 2
 344 176.967255034 343.595457595 173.974691854 342.844653389 171.643247214 c 0
 322.376229705 108.08340525 280.596001601 64 230 64 c 0
 206.021031619 64 183.925320977 74.3737785086 165.624361991 91.4546735622 c 0
 128.834376181 125.791993652 104 189.887888265 104 264 c 0
 104 338.112119581 128.834406532 402.208034676 165.624361991 436.545326438 c 0
 183.925092542 453.626008285 206.021596988 464 230 464 c 0
 280.602674758 464 322.37318031 419.926063924 342.844653389 356.356752786 c 0
 343.46775348 354.421863029 344 351.449355235 344 349 c 2
 344 179 l 2
296 688 m 2
 296 722.399384405 318.704637396 760 358 760 c 0
 396.673299152 760 421 722.900860409 421 688 c 2
 421 144 l 2
 421 117.54947412 421.96905485 98.2892844375 422.943060738 84.6532020092 c 0
 423.789270403 71.9600570322 425.133006546 66.3955043182 425.643529581 63.2971576257 c 0
 427.132227933 56.3895972699 427 51.6353454301 427 48 c 0
 427 13.6006155952 404.295362604 -24 365 -24 c 0
 346.512122839 -24 331.174696914 -14.9161295419 320.297458284 -2.74811052938 c 1
 293.102761209 -21.6660796038 263.068393128 -32 230 -32 c 0
 187.836278682 -32 150.132464418 -13.7938276337 119.612102277 14.4657669414 c 0
 60.0968764637 70.6122063877 27 163.010948516 27 264 c 0
 27 364.988641059 60.0975148767 457.388395889 119.612102277 513.534233059 c 0
 150.143430635 541.803981539 187.824923504 560 230 560 c 0
 253.09971154 560 277.26011674 553.743479366 296 544.720653722 c 1
 296 688 l 2
344 688 m 2
 344 500 l 2
 344 495.924815872 342.339037995 489.766063414 339.168113366 485.557582266 c 0
 334.48539234 479.342630647 327.214816096 476.106443235 319.911302747 476.106443235 c 0
 314.266824478 476.106443235 308.602673265 478.039379882 304.098226827 482.0240825 c 0
 281.816817719 501.734559788 256.52105066 512 230 512 c 0
 202.175076496 512 175.856569365 500.196018461 152.387897723 478.465766941 c 0
 105.902485123 434.611604111 75 355.011358941 75 264 c 0
 75 172.989051484 105.903123536 93.3877936123 152.387897723 49.5342330586 c 0
 175.867535582 27.7938276337 202.163721318 16 230 16 c 0
 259.835442939 16 287.77501815 28.7161436471 311.029437252 51.9705627485 c 0
 313.007969766 53.9490952625 317.526658537 56.9779874498 321.461317422 58.0921118597 c 0
 323.578992494 58.6917454135 325.717529686 58.976409289 327.82735822 58.976409289 c 0
 338.942066043 58.976409289 349.260037437 51.0762811433 351.533936217 39.7067872433 c 0
 353.899849646 27.8772200942 361.396485538 24 365 24 c 0
 367.704637396 24 379 30.3993844048 379 48 c 0
 379 52.2295243713 378.990427826 52.0837536827 378.716579997 53.1791449991 c 0
 378.575247578 53.7444746734 378.298625783 55.092576915 378.168182415 56.1629359525 c 0
 377.839036807 57.996398899 375.945854139 68.0130748387 375.056939262 81.3467979908 c 0
 374.03094515 95.7107155625 373 116.45052588 373 144 c 2
 373 688 l 2
 373 705.099139591 361.326700848 712 358 712 c 0
 355.295362604 712 344 705.600615595 344 688 c 2
EndSplineSet
EndChar

